<?xml version="1.0" standalone="no"?>
<!DOCTYPE svg PUBLIC "-//W3C//DTD SVG 1.1//EN" "http://www.w3.org/Graphics/SVG/1.1/DTD/svg11.dtd" >
<svg xmlns="http://www.w3.org/2000/svg" xmlns:xlink="http://www.w3.org/1999/xlink" version="1.1">
<metadata></metadata>
<defs>
<font id="pf_encore_sans_proextrathin" horiz-adv-x="3723" >
<font-face units-per-em="2048" ascent="1536" descent="-512" />
<missing-glyph horiz-adv-x="536" />
<glyph unicode="fj" horiz-adv-x="892" d="M25 930v37l170 12v170q0 163 90.5 241t249.5 78q86 0 174 -16v-45q-85 12 -160 12q-152 0 -226.5 -61.5t-74.5 -206.5v-172h491v-1126q0 -115 -37 -168.5t-135 -53.5h-45v47h47q68 0 92.5 41.5t24.5 135.5v1075h-438v-930h-53v930h-170z" />
<glyph unicode="ffj" horiz-adv-x="1392" d="M31 930v37l170 12v176q0 160 62 231.5t198 71.5q65 0 117 -12v-47q-68 10 -111 10q-113 0 -163 -51t-50 -193v-186h438v190q0 163 90.5 241.5t249.5 78.5q86 0 174 -16v-46q-93 13 -159 13q-152 0 -227 -62t-75 -207v-192h494v-1126q0 -115 -37 -168.5t-135 -53.5h-45v47 h47q68 0 92.5 41.5t24.5 135.5v1075h-441v-930h-53v930h-438v-930h-53v930h-170z" />
<glyph unicode="fb" horiz-adv-x="1617" d="M25 930v37l170 12v170q0 163 90.5 241t249.5 78q69 0 151 -12h55v-463q0 -151 -6 -223l6 -2q37 92 131.5 159.5t231.5 67.5q412 0 412 -510q0 -230 -103.5 -365.5t-316.5 -135.5q-246 0 -346 172h-9v-28v-27.5t-0.5 -23t-1 -23.5t-2 -18.5t-3.5 -19.5t-5 -16h-43v1409 q-78 10 -137 10q-152 0 -226.5 -61.5t-74.5 -206.5v-172h307v-49h-307v-930h-53v930h-170zM741 401q0 -169 92 -269.5t259 -100.5q366 0 366 454q0 106 -17.5 186t-57.5 144t-111.5 97.5t-173.5 33.5q-73 0 -133.5 -24.5t-101 -65t-69 -93.5t-41 -108t-12.5 -110v-144z" />
<glyph unicode="ffb" horiz-adv-x="2109" d="M25 930v37l170 12v176q0 160 62 231.5t198 71.5q63 0 116 -12v-47q-68 10 -110 10q-113 0 -163 -51t-50 -193v-186h438v170q0 163 90.5 241t249.5 78q70 0 152 -12h55v-463q0 -151 -6 -223l6 -2q37 92 131 159.5t231 67.5q412 0 412 -510q0 -230 -103.5 -365.5 t-316.5 -135.5q-246 0 -346 172h-8v-28v-27.5t-0.5 -23t-1 -23.5t-2 -18.5t-3.5 -19.5t-5 -16h-43v1409q-78 10 -138 10q-152 0 -226.5 -61.5t-74.5 -206.5v-172h308v-49h-308v-930h-53v930h-438v-930h-53v930h-170zM1233 401q0 -169 91.5 -269.5t258.5 -100.5 q367 0 367 454q0 106 -17.5 186t-58 144t-112 97.5t-173.5 33.5q-90 0 -161 -37t-112 -97t-62 -128.5t-21 -138.5v-144z" />
<glyph unicode="fh" horiz-adv-x="1599" d="M25 930v37l170 12v170q0 163 90.5 241t249.5 78q69 0 151 -12h55v-473q0 -124 -6 -192h8q46 97 140.5 150.5t224.5 53.5q94 0 163 -23.5t108.5 -61.5t63 -97.5t31 -118.5t7.5 -137v-557h-58v557q0 69 -5 117.5t-24 103.5t-52.5 88.5t-94 55.5t-145.5 22q-91 0 -162 -32 t-113.5 -86.5t-64 -122t-21.5 -144.5v-559h-55v1409q-78 10 -137 10q-152 0 -226.5 -61.5t-74.5 -206.5v-172h307v-49h-307v-930h-53v930h-170z" />
<glyph unicode="ffh" horiz-adv-x="2091" d="M25 930v37l170 12v176q0 160 62 231.5t198 71.5q63 0 116 -12v-47q-68 10 -110 10q-113 0 -163 -51t-50 -193v-186h438v170q0 163 90.5 241t249.5 78q70 0 152 -12h55v-473q0 -124 -6 -192h8q46 97 140 150.5t224 53.5q94 0 163 -23.5t108.5 -61.5t63 -97.5t31 -118.5 t7.5 -137v-557h-57v557q0 48 -2.5 84.5t-10.5 79t-21.5 73t-38 60.5t-57.5 48.5t-82 30t-110 11.5q-91 0 -162 -32t-113 -86.5t-63.5 -122t-21.5 -144.5v-559h-55v1409q-78 10 -138 10q-152 0 -226.5 -61.5t-74.5 -206.5v-172h308v-49h-308v-930h-53v930h-438v-930h-53v930 h-170z" />
<glyph unicode="fk" horiz-adv-x="1445" d="M25 930v37l170 12v170q0 163 90.5 241t249.5 78q69 0 151 -12h55v-897h234l364 420h66l-383 -447l403 -532h-69l-381 506h-234v-506h-55v1409q-78 10 -137 10q-152 0 -226.5 -61.5t-74.5 -206.5v-172h307v-49h-307v-930h-53v930h-170z" />
<glyph unicode="ffk" horiz-adv-x="1937" d="M25 930v37l170 12v176q0 160 62 231.5t198 71.5q63 0 116 -12v-47q-68 10 -110 10q-113 0 -163 -51t-50 -193v-186h438v170q0 163 90.5 241t249.5 78q70 0 152 -12h55v-897h233l365 420h65l-383 -447l404 -532h-70l-381 506h-233v-506h-55v1409q-78 10 -138 10 q-152 0 -226.5 -61.5t-74.5 -206.5v-172h308v-49h-308v-930h-53v930h-438v-930h-53v930h-170z" />
<glyph unicode="ry" horiz-adv-x="1339" d="M154 0v979h43q12 -45 12 -193h8q38 94 132 152t222 59l162 -434q138 -365 187 -508h14q18 63 44 140t64 184t54 153l153 445h60l-369 -1086q-41 -123 -58 -158q-50 -100 -146 -124q-39 -10 -85 -10h-108v49h102q87 0 132.5 37.5t78.5 130.5l62 180l-37 -4 q-24 74 -52.5 151.5t-62 163.5t-49.5 129l-185 502q-323 -35 -323 -399v-539h-55z" />
<glyph unicode="&#xfb00;" horiz-adv-x="1110" d="M51 930v37l170 12v184q0 164 58 233.5t202 69.5q65 0 117 -12v-47q-68 10 -111 10q-125 0 -169 -48.5t-44 -194.5v-195h439v225q0 164 58 233.5t202 69.5q65 0 117 -12v-47q-68 10 -111 10q-125 0 -169 -49t-44 -195v-235h319v-49h-319v-930h-53v930h-439v-930h-53v930 h-170z" />
<glyph unicode="&#xfb01;" horiz-adv-x="892" d="M25 930v37l170 12v170q0 163 90.5 241t249.5 78q86 0 174 -16v-45q-85 12 -160 12q-152 0 -226.5 -61.5t-74.5 -206.5v-172h491v-979h-53v930h-438v-930h-53v930h-170z" />
<glyph unicode="&#xfb02;" horiz-adv-x="892" d="M25 930v37l170 12v170q0 163 90.5 241t249.5 78q80 0 163 -14h41v-1454h-53v1409q-78 10 -137 10q-152 0 -226.5 -61.5t-74.5 -206.5v-172h307v-49h-307v-930h-53v930h-170z" />
<glyph unicode="&#xfb03;" horiz-adv-x="1392" d="M31 930v37l170 12v176q0 160 62 231.5t198 71.5q65 0 117 -12v-47q-68 10 -111 10q-113 0 -163 -51t-50 -193v-186h438v190q0 163 90.5 241.5t249.5 78.5q86 0 174 -16v-46q-93 13 -159 13q-152 0 -227 -62t-75 -207v-192h494v-979h-53v930h-441v-930h-53v930h-438v-930 h-53v930h-170z" />
<glyph unicode="&#xfb04;" horiz-adv-x="1386" d="M25 930v37l170 12v176q0 160 62 231.5t198 71.5q63 0 116 -12v-47q-68 10 -110 10q-113 0 -163 -51t-50 -193v-186h438v190q0 163 91.5 241.5t250.5 78.5q81 0 164 -14h41v-1475h-53v1430q-78 10 -138 10q-152 0 -227.5 -62.5t-75.5 -206.5v-192h308v-49h-308v-930h-53 v930h-438v-930h-53v930h-170z" />
<glyph unicode="ft" horiz-adv-x="1134" d="M51 934v35l170 10v186q0 163 58 232t202 69q73 0 117 -10v-47q-68 10 -111 10q-125 0 -169 -48.5t-44 -194.5v-197h437l20 242h35v-242h303v-45h-303v-639q0 -140 55.5 -200t173.5 -60q83 0 127 6v-47q-46 -6 -133 -6q-155 0 -216.5 73.5t-61.5 245.5v627h-437v-932h-53 v932h-170z" />
<glyph horiz-adv-x="0" />
<glyph horiz-adv-x="682" />
<glyph unicode=" "  horiz-adv-x="536" />
<glyph unicode="&#x09;" horiz-adv-x="536" />
<glyph unicode="&#xa0;" horiz-adv-x="536" />
<glyph unicode="!" horiz-adv-x="561" d="M215 59q0 28 21 49t49 21t48.5 -21t20.5 -49t-20.5 -48.5t-48.5 -20.5t-49 20.5t-21 48.5zM250 1413h72q-3 -173 -7.5 -541.5t-7.5 -541.5h-43q-2 141 -6 516.5t-8 566.5z" />
<glyph unicode="&#x22;" horiz-adv-x="536" d="M154 1380h65l-14 -413h-35zM330 1380h67l-16 -413h-35z" />
<glyph unicode="#" horiz-adv-x="1171" d="M123 442l8 45h242l67 385h-250l9 43h250l69 416h43l-67 -416h407l68 416h47l-72 -416h252l-10 -43h-248l-64 -385h244l-8 -45h-244l-73 -442h-50l78 442h-409l-78 -442h-45l78 442h-244zM420 487h407l66 385h-408z" />
<glyph unicode="$" horiz-adv-x="1171" d="M86 346q0 23 2 35h51q0 -295 373 -342v663q-75 15 -128 31t-103 40.5t-80 55.5t-48 76t-18 103q0 125 94 216.5t283 112.5v146h47v-1653h-47v158q-199 18 -312.5 110.5t-113.5 247.5zM199 1012q0 -110 69.5 -161.5t243.5 -90.5v522q-158 -18 -235.5 -92t-77.5 -178z M635 -170v1653h47v-146q165 -14 270 -97t105 -228q0 -15 -4 -27h-47q0 53 -16 99t-51 88t-100.5 71t-156.5 39v-561q96 -20 165 -46t127.5 -67.5t88 -104t29.5 -145.5q0 -66 -24.5 -126.5t-72.5 -111.5t-128.5 -85.5t-184.5 -44.5v-160h-47zM682 41q96 11 167.5 42.5 t110 75.5t56.5 90.5t18 96.5q0 134 -79 207.5t-273 114.5v-627z" />
<glyph unicode="%" horiz-adv-x="1597" d="M86 977q0 194 80.5 303t255.5 109q93 0 160 -33t103.5 -92.5t52.5 -129t16 -155.5q0 -63 -10 -118.5t-34 -107t-61 -88.5t-95 -59t-132 -22q-76 0 -134 19t-96 52.5t-62 83.5t-34 108t-10 130zM139 977q0 -346 281 -346q129 0 203.5 87.5t74.5 260.5q0 169 -67 264.5 t-211 95.5q-150 0 -215.5 -94.5t-65.5 -267.5zM334 -61l854 1501h57l-854 -1501h-57zM866 383q0 194 80.5 303t255.5 109q93 0 160 -33t103.5 -92.5t52.5 -129t16 -155.5q0 -63 -10 -118.5t-34 -107t-61 -88.5t-95 -59t-132 -22q-76 0 -134 19t-96 52.5t-62 83.5t-34 108 t-10 130zM920 383q0 -346 280 -346q129 0 204 87.5t75 260.5q0 169 -67.5 264.5t-211.5 95.5q-150 0 -215 -94.5t-65 -267.5z" />
<glyph unicode="&#x26;" horiz-adv-x="1441" d="M127 334q0 116 85 229t237 201q-175 200 -175 334q0 110 75.5 196t205.5 86q123 0 192.5 -69t69.5 -174q0 -112 -77.5 -205.5t-221.5 -181.5q266 -327 557 -574q127 96 190.5 237t63.5 285q0 73 -17.5 131t-65 112t-126.5 93l17 37q120 -49 179.5 -145.5t59.5 -223.5 q0 -148 -67 -299.5t-201 -257.5q122 -100 248 -190l-29 -37q-142 96 -260 197q-191 -127 -465 -127q-102 0 -184.5 17.5t-149.5 56.5t-104 108t-37 164zM176 334q0 -148 113.5 -225.5t308.5 -77.5q253 0 434 114q-266 230 -557 582q-299 -179 -299 -393zM330 1104 q0 -42 12 -83t38 -83.5t48.5 -73t60.5 -76.5q69 42 110.5 72.5t83.5 73t61.5 90.5t19.5 106q0 89 -58 146t-153 57q-60 0 -106 -23.5t-70 -60t-35.5 -73.5t-11.5 -72z" />
<glyph unicode="'" horiz-adv-x="399" d="M174 1380h66l-15 -413h-35z" />
<glyph unicode="(" horiz-adv-x="563" d="M115 598q0 251 93 466.5t251 381.5l24 -19q-313 -384 -313 -815q0 -427 313 -823l-24 -22q-155 163 -249.5 377.5t-94.5 453.5z" />
<glyph unicode=")" horiz-adv-x="563" d="M66 -211q313 396 313 823q0 431 -313 815l24 19q158 -166 251 -381.5t93 -466.5q0 -239 -94.5 -453.5t-249.5 -377.5z" />
<glyph unicode="*" horiz-adv-x="866" d="M147 1135l25 61l250 -109l-10 271h57l-16 -268l256 106l22 -59l-262 -82l174 -217l-57 -41l-150 237l-141 -235l-55 39l170 217z" />
<glyph unicode="+" horiz-adv-x="1171" d="M205 526v49h356v371h49v-371h355v-49h-355v-348h-49v348h-356z" />
<glyph unicode="," horiz-adv-x="385" d="M96 -258l88 246q-27 3 -45 22.5t-18 46.5q0 31 20 52.5t49 21.5q32 0 53 -19.5t21 -52.5q0 -21 -10 -43l-133 -282z" />
<glyph unicode="-" horiz-adv-x="917" d="M211 477v68h496v-68h-496z" />
<glyph unicode="." horiz-adv-x="385" d="M121 57q0 31 20 52.5t49 21.5q31 0 52.5 -21.5t21.5 -52.5q0 -29 -21.5 -49t-52.5 -20q-29 0 -49 20t-20 49z" />
<glyph unicode="/" horiz-adv-x="991" d="M8 -92l918 1560h57l-917 -1560h-58z" />
<glyph unicode="0" horiz-adv-x="1171" d="M76 647q0 126 17.5 230t56.5 190.5t98 146t145.5 92.5t196.5 33q114 0 203 -38t144.5 -101t91.5 -153.5t50.5 -187t14.5 -210.5q0 -106 -15 -198.5t-51.5 -180t-93 -149.5t-145 -99.5t-201.5 -37.5q-116 0 -204 32t-146 88.5t-94.5 141t-52 182t-15.5 219.5zM129 647 q0 -618 457 -618q211 0 332.5 157t121.5 463q0 145 -25.5 260t-78 202t-141.5 134t-209 47q-457 0 -457 -645z" />
<glyph unicode="1" horiz-adv-x="1171" d="M182 0v45h377v1206l-330 -61v35l328 92h57v-1272h375v-45h-807z" />
<glyph unicode="2" horiz-adv-x="1171" d="M115 0v59q0 64 11 116.5t45 101.5t59 80.5t91.5 79.5t101.5 70t127 79q9 6 14 9t13 8t15 9q69 43 110.5 70.5t92.5 69t78.5 77.5t47 83.5t19.5 99.5q0 128 -87 201t-267 73q-107 0 -187 -27.5t-124 -74.5t-65 -100.5t-22 -114.5h-43q-2 12 -2 28q0 110 60.5 188.5 t158.5 115.5t222 38q109 0 192 -26t131.5 -71.5t72.5 -103t24 -124.5q0 -43 -12.5 -84t-29.5 -73t-49.5 -67.5t-58 -59.5t-70.5 -56t-71 -49t-74 -47q-35 -22 -88.5 -55.5t-81.5 -51t-69 -44.5t-62 -44.5t-50.5 -43t-43.5 -46.5t-31.5 -49.5t-24.5 -57t-12 -64t-4 -75.5h858 v-47h-915z" />
<glyph unicode="3" horiz-adv-x="1171" d="M106 315q0 11 3 29h43q1 -48 13 -91t41.5 -84t73 -70.5t111.5 -47.5t154 -18q205 0 320.5 97.5t115.5 266.5q0 176 -113 260t-340 84q-55 0 -73 -2l-29 41l512 482l-4 8h-762v49h846v-53l-504 -469l4 -9q21 3 43 3q226 0 350.5 -97t124.5 -288q0 -192 -131 -307 t-358 -115q-93 0 -171.5 20t-139.5 60t-95.5 104t-34.5 147z" />
<glyph unicode="4" horiz-adv-x="1171" d="M74 358v56l741 905h51v-909h230v-52h-230v-358h-57v358h-735zM145 420l5 -10h659v807l-8 4z" />
<glyph unicode="5" horiz-adv-x="1171" d="M117 315q0 17 2 29h43q1 -48 13 -91t41.5 -84t73 -70.5t111.5 -47.5t154 -18q202 0 316 101t114 265q0 99 -34.5 174t-95 119t-135.5 66t-163 22q-163 0 -303 -43l-51 21l84 561h671v-49h-626l-72 -482q128 41 295 41q77 0 146 -14t131.5 -45.5t108 -79.5t72.5 -120 t27 -162q0 -190 -129 -307t-354 -117q-125 0 -222 34.5t-157.5 111t-60.5 185.5z" />
<glyph unicode="6" horiz-adv-x="1171" d="M131 584q0 120 13 223.5t47.5 203.5t89 171t142 114t200.5 43q156 0 263 -78t107 -214q0 -15 -2 -25h-41q-1 51 -18 96.5t-52.5 85.5t-101.5 64t-155 24q-90 0 -160.5 -29t-118 -84.5t-80 -124.5t-50.5 -161.5t-26 -182t-10 -198.5l10 -2q34 126 149.5 215.5t270.5 89.5 q201 0 318.5 -106t117.5 -297q0 -192 -116 -310t-336 -118q-247 0 -354 139.5t-107 460.5zM209 381q0 -96 33.5 -167.5t90.5 -110.5t123 -57.5t142 -18.5q79 0 148.5 23t125 68t87.5 119.5t32 170.5q0 164 -96 262t-291 98q-161 0 -278 -116.5t-117 -270.5z" />
<glyph unicode="7" horiz-adv-x="1171" d="M137 1270v47h895v-47l-639 -1270h-59l639 1270h-836z" />
<glyph unicode="8" horiz-adv-x="1171" d="M123 338q0 37 8 73t31.5 81t61 83.5t103 74.5t150.5 59l2 8q-301 73 -301 303q0 56 25 111t72.5 102.5t128 76.5t180.5 29q89 0 160.5 -19.5t117 -51t76 -74t43 -85.5t12.5 -89q0 -36 -13.5 -74.5t-43.5 -82t-88.5 -82t-138.5 -62.5v-8q86 -20 150.5 -57t99 -76t55.5 -87 t27 -82t6 -67q0 -70 -29.5 -133.5t-85.5 -114t-146 -80.5t-202 -30q-217 0 -339 94t-122 260zM174 334q0 -78 34 -139t92.5 -96.5t130 -53.5t153.5 -18q76 0 147.5 19t131.5 55.5t96 98t36 138.5q0 141 -106.5 237t-300.5 113q-195 -26 -304.5 -120t-109.5 -234zM233 1020 q0 -114 88 -179t265 -108q165 27 259.5 106t94.5 183q0 85 -50 147.5t-129.5 92.5t-176.5 30q-148 0 -249.5 -73.5t-101.5 -198.5z" />
<glyph unicode="9" horiz-adv-x="1171" d="M141 911q0 197 115 312.5t330 115.5q223 0 335.5 -147.5t112.5 -452.5q0 -131 -11 -233.5t-43.5 -204t-86.5 -168.5t-144.5 -108t-213.5 -41q-156 0 -262.5 78t-106.5 214q0 15 2 25h45q1 -36 10.5 -71.5t34 -72t60 -64t93 -45t128.5 -17.5q72 0 130 14.5t102 44 t77.5 67.5t56.5 93.5t38.5 113t24 134t12.5 148.5t5 165l-10 2q-30 -128 -141.5 -216.5t-258.5 -88.5q-207 0 -320.5 104t-113.5 299zM195 915q0 -167 91.5 -264.5t293.5 -97.5q159 0 266.5 116.5t107.5 272.5q0 89 -32 158t-85.5 110t-117.5 61.5t-133 20.5q-76 0 -142 -19 t-124 -60.5t-91.5 -117.5t-33.5 -180z" />
<glyph unicode=":" horiz-adv-x="385" d="M121 57q0 31 20 52.5t49 21.5q31 0 52.5 -21.5t21.5 -52.5q0 -29 -21.5 -49t-52.5 -20q-29 0 -49 20t-20 49zM121 750q0 31 20 52t49 21q31 0 52.5 -21t21.5 -52q0 -29 -21.5 -49.5t-52.5 -20.5q-29 0 -49 20.5t-20 49.5z" />
<glyph unicode=";" horiz-adv-x="385" d="M96 -258l88 246q-27 3 -45 22.5t-18 46.5q0 31 20 52.5t49 21.5q32 0 53 -19.5t21 -52.5q0 -21 -10 -43l-133 -282zM121 750q0 31 20 52t49 21q31 0 52.5 -21t21.5 -52q0 -29 -21.5 -49.5t-52.5 -20.5q-29 0 -49 20.5t-20 49.5z" />
<glyph unicode="&#x3c;" horiz-adv-x="1171" d="M199 520v64l774 370v-51l-725 -348l725 -348v-55z" />
<glyph unicode="=" horiz-adv-x="1171" d="M205 371v49h760v-49h-760zM205 684v47h760v-47h-760z" />
<glyph unicode="&#x3e;" horiz-adv-x="1171" d="M199 152v55l725 348l-725 348v51l774 -370v-64z" />
<glyph unicode="?" horiz-adv-x="1171" d="M162 1087q0 166 110 254.5t297 88.5q103 0 180 -25t122.5 -69.5t67.5 -101t22 -124.5q0 -81 -48.5 -158.5t-142.5 -163.5q-52 -48 -84.5 -84.5t-65.5 -87.5t-49 -110.5t-16 -130.5v-43h-61v30q0 127 47.5 231t150.5 202q107 100 156 166.5t49 140.5q0 274 -326 274 q-86 0 -151.5 -19t-104 -48.5t-62.5 -72.5t-32.5 -85t-9.5 -92h-47q-2 12 -2 28zM449 59q0 28 20.5 49t48.5 21t49 -21t21 -49t-21 -48.5t-49 -20.5t-48.5 20.5t-20.5 48.5z" />
<glyph unicode="@" horiz-adv-x="1699" d="M139 653q0 147 54 279.5t149 229t231.5 153.5t292.5 57q195 0 348 -74t241.5 -216t88.5 -330q0 -223 -84 -342t-229 -119q-34 0 -69.5 11.5t-69.5 43t-43 76.5h-11q-90 -135 -293 -135q-104 0 -173.5 50.5t-69.5 149.5q0 105 91.5 177.5t264.5 72.5q93 0 180 -18v59 q0 29 -3.5 53t-17 56t-36.5 53.5t-66.5 37t-103.5 15.5q-116 0 -169.5 -52t-55.5 -122h-41v23q0 68 45.5 114.5t102.5 64t116 17.5q144 0 213.5 -68t69.5 -179v-316q0 -62 37 -98.5t102 -36.5q120 0 190 102t70 310q0 137 -52.5 248.5t-141 181t-199 106.5t-232.5 37 q-137 0 -260 -50t-214 -137.5t-144 -213.5t-53 -271q0 -198 88 -353.5t246.5 -242t361.5 -86.5q106 0 199 15t196 61l19 -47q-197 -78 -412 -78t-385.5 88t-269.5 255.5t-99 387.5zM555 487q0 -69 47 -112t143 -43q83 0 143.5 24.5t91 64t44.5 80t14 83.5v88q-87 20 -182 20 q-151 0 -226 -58t-75 -147z" />
<glyph unicode="A" horiz-adv-x="1159" d="M20 0l523 1380h67l529 -1380h-64l-145 383h-705l-145 -383h-60zM244 436h669l-184 475q-29 74 -78.5 211t-66.5 183h-15q-64 -190 -143 -394z" />
<glyph unicode="B" horiz-adv-x="1218" d="M133 0v1380h533q190 0 298.5 -91t108.5 -265q0 -38 -10.5 -79t-33 -86t-67 -82.5t-104.5 -55.5v-8q84 -20 143.5 -73t87 -122t27.5 -147q0 -56 -14 -108t-47 -100.5t-82 -84t-124 -57t-167 -21.5h-549zM190 51h482q74 0 140 16.5t122.5 51.5t89.5 97t33 144q0 85 -31 151 t-83 104t-115 57.5t-132 19.5h-506v-641zM190 743h490q93 0 166.5 27.5t121.5 93t48 160.5q0 70 -21.5 124t-56 87.5t-84 55t-101 30t-110.5 8.5h-453v-586z" />
<glyph unicode="C" horiz-adv-x="1189" d="M113 676q0 163 30.5 291.5t95 226t172 149.5t253.5 52q121 0 218.5 -36.5t158.5 -115.5t61 -188q0 -17 -2 -29h-43q-1 60 -22.5 114t-66.5 101t-125.5 74.5t-187.5 27.5q-127 0 -221.5 -47.5t-152 -137t-85.5 -209.5t-28 -273q0 -328 119 -483.5t364 -155.5 q95 0 170 21.5t122.5 55.5t79 81t44.5 94t14 98h45q2 -14 2 -31q0 -166 -133 -267t-342 -101q-122 0 -215 32.5t-154 91t-100 146t-55 189t-16 229.5z" />
<glyph unicode="D" horiz-adv-x="1267" d="M133 0v1378h381q93 0 179.5 -20.5t172 -71.5t148.5 -128t102 -199t39 -275q0 -158 -48 -287t-133.5 -216t-203 -134t-256.5 -47h-381zM190 51h308q51 0 102 7t111.5 26t113.5 48.5t103.5 79.5t86 114.5t57.5 157.5t22 204q0 110 -21.5 202.5t-57 157.5t-85.5 115.5 t-103 81t-113.5 50t-112.5 27t-105 7.5h-306v-1278z" />
<glyph unicode="E" horiz-adv-x="1062" d="M133 0v1380h840v-51h-783v-586h723v-51h-723v-641h811v-51h-868z" />
<glyph unicode="F" horiz-adv-x="1013" d="M133 0v1380h860v-51h-803v-598h711v-53h-711v-678h-57z" />
<glyph unicode="G" horiz-adv-x="1286" d="M113 676q0 129 20 237.5t64 198.5t109.5 152.5t159.5 96.5t212 34q122 0 223.5 -36.5t167.5 -115.5t66 -188q0 -17 -2 -29h-46q-1 61 -23 115t-68.5 101.5t-130 75.5t-195.5 28q-102 0 -185 -31.5t-141.5 -89.5t-98 -141t-58.5 -185t-19 -223q0 -641 496 -641 q111 0 195.5 32t132 79t77.5 111.5t39.5 119.5t9.5 112v166h-403v52h459v-226q0 -107 -30.5 -195.5t-91.5 -155.5t-159.5 -104.5t-226.5 -37.5q-122 0 -216.5 32.5t-157.5 91t-103.5 145.5t-58 189.5t-17.5 229.5z" />
<glyph unicode="H" horiz-adv-x="1286" d="M133 0v1382h55v-639h906v639h59v-1382h-59v692h-906v-692h-55z" />
<glyph unicode="I" horiz-adv-x="403" d="M174 0v1380h55v-1380h-55z" />
<glyph unicode="J" horiz-adv-x="1089" d="M41 338q0 17 2 29h49q1 -49 11 -92.5t37.5 -88t70 -76t113 -51.5t161.5 -20q198 0 301 105.5t103 293.5v942h57v-954q0 -86 -25.5 -161.5t-78 -139t-144 -100.5t-211.5 -37q-203 0 -324.5 91.5t-121.5 258.5z" />
<glyph unicode="K" horiz-adv-x="1067" d="M133 0v1380h55v-637h281l492 637h67l-510 -659l529 -721h-74l-502 692h-283v-692h-55z" />
<glyph unicode="L" horiz-adv-x="1046" d="M133 0v1380h57v-1329h836v-51h-893z" />
<glyph unicode="M" horiz-adv-x="1554" d="M133 0v1380h70l364 -708l205 -391h12q136 271 213 417l353 682h71v-1380h-59v1274h-8q-102 -209 -193 -379l-354 -684h-62l-389 747q-77 143 -159 318h-9v-1276h-55z" />
<glyph unicode="N" horiz-adv-x="1296" d="M133 0v1380h51l609 -848q125 -173 301 -426h10v1274h59v-1380h-57l-651 903q-144 199 -254 367h-13v-1270h-55z" />
<glyph unicode="O" horiz-adv-x="1347" d="M113 676q0 719 567 719q130 0 228.5 -39t159.5 -104t99.5 -159.5t53 -194.5t14.5 -220q0 -111 -15.5 -206.5t-56 -187t-103.5 -155t-164.5 -102.5t-233.5 -39q-126 0 -222 33t-157.5 90.5t-100 145.5t-54 189.5t-15.5 229.5zM168 676q0 -329 120 -485t371 -156 q515 0 515 643q0 123 -15.5 222.5t-52 184t-93 141t-142 88.5t-195.5 32q-111 0 -197.5 -31.5t-144.5 -89t-95.5 -142t-54 -184.5t-16.5 -223z" />
<glyph unicode="P" horiz-adv-x="1105" d="M133 0v1380h506q204 0 320 -122.5t116 -309.5q0 -57 -12.5 -112.5t-44 -112t-79.5 -99t-125.5 -69.5t-174.5 -27h-449v-528h-57zM190 582h439q60 0 113.5 11t104.5 38t87.5 68t59 105.5t22.5 145.5q0 174 -107.5 276.5t-279.5 102.5h-439v-747z" />
<glyph unicode="Q" horiz-adv-x="1347" d="M113 676q0 719 567 719q130 0 228.5 -39t159.5 -104t99.5 -159.5t53 -194.5t14.5 -220q0 -103 -13.5 -193t-47 -177t-85.5 -152t-134.5 -110t-188.5 -58q149 -80 362 -146l-24 -55q-242 82 -426 197q-109 0 -195.5 22.5t-148 66.5t-105 103t-68.5 138.5t-36.5 167.5 t-11.5 194zM168 676q0 -330 124 -486.5t384 -156.5q239 0 368.5 160.5t129.5 484.5q0 123 -15.5 222.5t-52 184t-93 141t-142 88.5t-195.5 32q-111 0 -197.5 -31.5t-144.5 -89t-95.5 -142t-54 -184.5t-16.5 -223z" />
<glyph unicode="R" horiz-adv-x="1134" d="M133 0v1380h508q215 0 328.5 -108t113.5 -291q0 -52 -11.5 -102t-42 -103.5t-78 -93t-126.5 -65t-180 -25.5h-47l449 -592h-68l-451 592h-338v-592h-57zM190 647h443q61 0 113.5 8.5t105 31.5t89 59.5t59 96.5t22.5 138q0 171 -106.5 259.5t-282.5 88.5h-443v-682z" />
<glyph unicode="S" horiz-adv-x="1210" d="M113 383q0 23 2 35h51q0 -59 10.5 -109.5t39.5 -102t75 -87t123.5 -58t179.5 -22.5q119 0 209 28.5t140.5 76.5t74.5 102t24 114q0 152 -102 234.5t-319 112.5q-57 8 -94.5 14t-87 16.5t-81.5 22.5t-69 29t-60 40t-43.5 52.5t-29.5 68t-9 84.5q0 71 26 133.5t79.5 115 t147 83.5t216.5 31q94 0 175.5 -21.5t146.5 -64t102 -114t37 -165.5q0 -12 -4 -28h-49q0 68 -22.5 127t-68.5 107.5t-127 76.5t-188 28q-195 0 -301 -86.5t-106 -212.5q0 -36 7 -65.5t15.5 -52.5t32 -42.5t38 -33t53 -26.5t59 -20t73 -17t77 -14t89.5 -14q4 -1 6.5 -1t6 -1 t6.5 -1q95 -15 168.5 -41.5t134 -70t93 -112t32.5 -157.5q0 -59 -16 -112.5t-54 -104.5t-94.5 -88t-143.5 -59.5t-196 -22.5q-234 0 -359.5 101t-125.5 294z" />
<glyph unicode="T" horiz-adv-x="1093" d="M31 1329v51h1032v-51h-483v-1329h-58v1329h-491z" />
<glyph unicode="U" horiz-adv-x="1304" d="M133 551v829h55v-829q0 -146 30 -246.5t92 -159t146 -83.5t201 -25q222 0 338.5 120t116.5 396v827h59v-827q0 -103 -15.5 -186t-52.5 -155.5t-95.5 -121.5t-147.5 -76.5t-205 -27.5q-150 0 -253 38t-161.5 114.5t-83 175.5t-24.5 237z" />
<glyph unicode="V" horiz-adv-x="1157" d="M20 1380h64l295 -780q118 -306 196 -528h9q35 90 98 265t94 257l299 786h62l-523 -1380h-71z" />
<glyph unicode="W" horiz-adv-x="1718" d="M20 1380h64l205 -768q94 -360 143 -536h8q32 106 87.5 295.5t74.5 253.5l225 755h66l213 -706q118 -395 174 -598h8l160 596l188 708h62l-375 -1380h-74l-239 793l-148 495h-8q-63 -230 -137 -477l-246 -811h-74z" />
<glyph unicode="X" horiz-adv-x="1073" d="M16 0l486 715l-447 665h66l414 -620l417 620h66l-449 -665l484 -715h-72l-446 668l-449 -668h-70z" />
<glyph unicode="Y" horiz-adv-x="1048" d="M20 1380h66l219 -385q144 -256 203 -368h14l205 352l234 401h67l-483 -823v-557h-60v555z" />
<glyph unicode="Z" horiz-adv-x="1083" d="M51 0v53l889 1278h-858v51h930v-49l-891 -1282h911v-51h-981z" />
<glyph unicode="[" horiz-adv-x="581" d="M162 -254v1708h270v-45h-217v-1618h217v-45h-270z" />
<glyph unicode="\" horiz-adv-x="1007" d="M8 1468h58l917 -1560h-57z" />
<glyph unicode="]" horiz-adv-x="581" d="M162 -209h217v1618h-217v45h270l-2 -1708h-268v45z" />
<glyph unicode="^" horiz-adv-x="1171" d="M139 543q71 144 211.5 418.5t210.5 418.5h49q73 -148 215 -426.5t207 -410.5h-59l-387 768q-60 -125 -192.5 -381.5t-194.5 -386.5h-60z" />
<glyph unicode="_" horiz-adv-x="1024" d="M0 -164h1024v-49h-1024v49z" />
<glyph unicode="`" horiz-adv-x="1050" d="M471 1368l66 47l219 -282l-27 -21z" />
<glyph unicode="a" horiz-adv-x="958" d="M72 250q0 141 118.5 236.5t346.5 95.5q109 0 247 -27v88q0 41 -5 76t-23.5 79.5t-49.5 75t-90 51.5t-139 21q-82 0 -143 -21.5t-94.5 -58t-49 -76.5t-16.5 -85h-43q-2 10 -2 24q0 69 30.5 122.5t81 83.5t108.5 45t120 15q195 0 283 -91.5t88 -244.5v-659h-43 q-13 32 -13 170h-8q-119 -186 -387 -186q-139 0 -228 65t-89 201zM127 250q0 -98 65.5 -159.5t194.5 -61.5q90 0 161.5 23.5t114.5 59.5t71.5 84t39 93t10.5 90v127q-136 29 -249 29q-103 0 -182.5 -23t-128 -63.5t-73 -90.5t-24.5 -108z" />
<glyph unicode="b" horiz-adv-x="1054" d="M123 0v1456h55v-463q0 -129 -8 -225l6 -2q37 92 132.5 160.5t232.5 68.5q411 0 411 -510q0 -230 -103.5 -365.5t-316.5 -135.5q-246 0 -346 172h-8v-28v-27.5t-0.5 -23t-1 -23.5t-2 -18.5t-3.5 -19.5t-5 -16h-43zM178 401q0 -169 91.5 -269.5t258.5 -100.5q367 0 367 454 q0 106 -17.5 186t-57.5 144t-111.5 97.5t-173.5 33.5q-73 0 -133.5 -24.5t-101 -65t-69 -93.5t-41 -108t-12.5 -110v-144z" />
<glyph unicode="c" horiz-adv-x="966" d="M102 479q0 85 13 158.5t44.5 140.5t79.5 114t122.5 75t170.5 28q152 0 248.5 -67t96.5 -197q0 -9 -3 -24h-43q-1 45 -16.5 85t-49 76.5t-94.5 58t-143 21.5q-94 0 -165.5 -35t-115 -98.5t-65.5 -147t-22 -184.5q0 -127 24.5 -215.5t73.5 -140t115 -74t157 -22.5 q73 0 130.5 17.5t92 44t57 63t31 71t9.5 70.5h43q2 -10 2 -25q0 -136 -103.5 -212t-265.5 -76q-224 0 -324 120.5t-100 374.5z" />
<glyph unicode="d" horiz-adv-x="1054" d="M102 475q0 113 22.5 204t70.5 163.5t131 112.5t196 40q65 0 119.5 -14.5t89.5 -36t64 -53t44 -57t29 -56.5h9v676h55v-1454h-43q-3 8 -5 17t-3.5 21.5t-2 21t-1 26.5t-0.5 25.5v31.5v31h-9q-62 -107 -151 -148.5t-209 -41.5q-406 0 -406 491zM160 475q0 -229 88 -337.5 t274 -108.5q88 0 158 31.5t112 84.5t63.5 118.5t21.5 137.5v144q0 77 -21 146.5t-62.5 127.5t-112 92.5t-161.5 34.5q-96 0 -167 -35.5t-112.5 -100.5t-61 -148t-19.5 -187z" />
<glyph unicode="e" horiz-adv-x="1013" d="M102 487q0 109 23 198t71 160t131 110.5t195 39.5q105 0 181 -32.5t118 -91.5t61 -130.5t19 -160.5q0 -28 -4 -86h-737q0 -238 90 -350.5t276 -112.5q77 0 136.5 17.5t94 44t56.5 63.5t30 70.5t9 70.5h43q2 -10 2 -25q0 -135 -106 -211.5t-269 -76.5q-116 0 -199 36.5 t-130.5 105.5t-69 157.5t-21.5 203.5zM164 541h686q0 70 -8 126t-30 110t-57.5 89.5t-94.5 57.5t-138 22q-94 0 -163.5 -33t-110 -91.5t-60.5 -127.5t-24 -153z" />
<glyph unicode="f" horiz-adv-x="620" d="M51 930v37l170 12v184q0 163 58 232t202 69q65 0 117 -12v-45q-68 10 -111 10q-125 0 -169 -48.5t-44 -194.5v-195h324v-49h-324v-930h-53v930h-170z" />
<glyph unicode="g" horiz-adv-x="1079" d="M92 -176q0 82 50.5 149t129.5 111q-155 33 -155 139q0 44 28.5 88t87.5 76q-118 93 -118 256q0 159 115 255.5t296 96.5q101 0 164 -16h297v-37q-40 -12 -180 -12v-8q69 -38 109 -108.5t40 -166.5q0 -156 -109.5 -251t-305.5 -95q-40 0 -77 3.5t-62.5 8.5t-50 12.5 t-37 13t-27.5 12t-17 7.5q-51 -28 -75.5 -62.5t-24.5 -64.5q0 -18 7.5 -32.5t22.5 -26t33.5 -20t46 -15.5t53 -12t61 -10t65 -8t70 -8t69.5 -9q97 -12 164 -29t120.5 -45t79 -71t25.5 -103q0 -70 -37.5 -121.5t-105.5 -80.5t-151.5 -42.5t-186.5 -13.5q-414 0 -414 240z M143 -176q0 -91 92 -143t279 -52q66 0 123 5.5t113 20.5t95.5 38t64 60.5t24.5 86.5q0 40 -14 69.5t-50 56.5t-104.5 46t-171.5 31l-252 29q-92 -43 -145.5 -106t-53.5 -142zM172 645q0 -135 88.5 -216t276.5 -81q173 0 268.5 79.5t95.5 221.5q0 40 -10 78.5t-36.5 79.5 t-66.5 71.5t-107.5 50t-152.5 19.5q-162 0 -259 -83.5t-97 -219.5z" />
<glyph unicode="h" horiz-adv-x="1036" d="M123 0v1454h55v-471q0 -124 -6 -192h8q46 97 140.5 150.5t224.5 53.5q94 0 163 -23.5t108.5 -61.5t63 -97.5t31 -118.5t7.5 -137v-557h-58v557q0 69 -5 117.5t-24 103.5t-52.5 88.5t-94 55.5t-145.5 22q-91 0 -162 -32t-113.5 -86.5t-64 -122t-21.5 -144.5v-559h-55z" />
<glyph unicode="i" horiz-adv-x="430" d="M164 1331q0 22 14.5 36.5t36.5 14.5t36.5 -14.5t14.5 -36.5t-14.5 -36.5t-36.5 -14.5t-36.5 14.5t-14.5 36.5zM188 0v979h56v-979h-56z" />
<glyph unicode="j" horiz-adv-x="430" d="M29 -354h47q68 0 92.5 41t24.5 135v1157h53v-1159q0 -115 -37 -168t-135 -53h-45v47zM168 1331q0 22 14.5 36.5t36.5 14.5t36.5 -14.5t14.5 -36.5t-14.5 -36.5t-36.5 -14.5t-36.5 14.5t-14.5 36.5z" />
<glyph unicode="k" horiz-adv-x="882" d="M123 0v1456h55v-897h248l350 420h66l-369 -447l389 -532h-69l-367 506h-248v-506h-55z" />
<glyph unicode="l" horiz-adv-x="395" d="M154 147v1307h53v-1319q-1 -63 27 -81q25 -17 81 -17h13v-47q-16 -2 -52 -2q-34 0 -57.5 9t-36 21t-19 35.5t-8 42.5t-1.5 51z" />
<glyph unicode="m" horiz-adv-x="1734" d="M123 0v979h43q5 -12 7.5 -24.5t3.5 -31.5t1.5 -30.5t0 -41t-0.5 -42.5h8q110 186 351 186q147 0 232.5 -66.5t107.5 -174.5q99 243 378 243q68 0 122 -13t91.5 -35t64.5 -56t43 -70.5t25 -85.5t12 -92.5t3 -99.5v-545h-57v545q0 49 -2 85.5t-9.5 80.5t-20.5 76 t-36.5 63.5t-55.5 51.5t-79 32t-107 12q-88 0 -157 -32t-111 -87t-63 -123t-21 -145v-559h-57v526q0 69 -5 121t-23.5 111t-50.5 97t-91 63.5t-140 25.5q-88 0 -157 -32t-111 -86.5t-63 -122t-21 -144.5v-559h-55z" />
<glyph unicode="n" horiz-adv-x="1036" d="M123 0v979h43q5 -12 7.5 -24.5t3.5 -31.5t1.5 -30.5t0 -41t-0.5 -42.5h8q111 188 367 188q90 0 156.5 -23t106 -60.5t63 -93.5t31.5 -112t8 -126v-582h-58v557q0 42 -1.5 72t-8 73.5t-18.5 74.5t-35.5 65t-55.5 55t-82 35t-112 14q-88 0 -160 -32.5t-116.5 -87 t-68.5 -123t-24 -144.5v-559h-55z" />
<glyph unicode="o" horiz-adv-x="1067" d="M102 477q0 115 24 207t75 163t136.5 109.5t201.5 38.5q98 0 173.5 -28.5t122.5 -75t77 -114t41.5 -138.5t11.5 -154q0 -81 -12.5 -151.5t-43 -136t-78 -112t-122.5 -74t-172 -27.5q-121 0 -206.5 33.5t-135 99.5t-71.5 153.5t-22 206.5zM160 477q0 -229 88.5 -337.5 t290.5 -108.5q179 0 273.5 112t94.5 342q0 102 -19 183.5t-61 145.5t-114.5 99t-173.5 35t-175.5 -35t-118 -99.5t-64.5 -148t-21 -188.5z" />
<glyph unicode="p" horiz-adv-x="1054" d="M123 -401v1380h43q3 -6 4.5 -14.5t3 -16t2.5 -19.5t1.5 -19.5t0.5 -23.5v-24v-27v-28h8q109 188 357 188q108 0 189 -39t128 -108t69.5 -155t22.5 -189q0 -113 -22.5 -204t-70.5 -163.5t-131 -112.5t-196 -40q-77 0 -138.5 18t-101.5 49t-65 62.5t-41 68.5h-8v-583h-55z M178 424q0 -76 21 -144.5t62.5 -125t112 -90t161.5 -33.5q96 0 167 35.5t112.5 101t61 149t19.5 187.5q0 222 -94.5 333t-268.5 111q-88 0 -157.5 -32t-111.5 -86t-63.5 -120t-21.5 -139v-147z" />
<glyph unicode="q" horiz-adv-x="1054" d="M102 481q0 112 24.5 203.5t74 162t131.5 109.5t190 39q246 0 346 -172h9q0 121 12 156h43v-1380h-55v387q0 151 6 223l-6 2q-37 -92 -131.5 -159.5t-231.5 -67.5q-93 0 -164 24.5t-117.5 67t-76 106t-42 136.5t-12.5 163zM160 481q0 -105 17.5 -183.5t57.5 -140 t111.5 -93t173.5 -31.5q73 0 133.5 24.5t101 65t69 93.5t41 108t12.5 110v144q0 169 -92 269.5t-259 100.5q-185 0 -275.5 -121t-90.5 -346z" />
<glyph unicode="r" horiz-adv-x="585" d="M154 0v979h43q12 -45 12 -193h8q38 94 130.5 153t215.5 60l6 -63q-92 -6 -158.5 -30.5t-104.5 -59.5t-60.5 -87.5t-29.5 -103t-7 -116.5v-539h-55z" />
<glyph unicode="s" horiz-adv-x="935" d="M92 272q0 15 2 25h43q1 -51 16 -94.5t49 -84t99 -64t156 -23.5q86 0 151.5 19.5t102 52.5t54 70.5t17.5 78.5q0 104 -76 158t-233 73q-60 7 -105 15.5t-94 26.5t-80.5 43.5t-52 66.5t-20.5 94q0 55 19.5 101.5t59.5 84t109 59t160 21.5q68 0 127 -15t107.5 -44.5 t77 -79.5t28.5 -115q0 -14 -2 -24h-43q-1 45 -16 83.5t-47 73t-92 54.5t-142 20q-140 0 -214.5 -59.5t-74.5 -147.5q0 -39 9 -69t31.5 -51t46 -34.5t68 -24.5t79.5 -17t98 -15q72 -10 127 -27.5t102.5 -48t73 -79t25.5 -113.5q0 -55 -21 -103t-64 -88.5t-118 -63.5t-174 -23 q-166 0 -267.5 72t-101.5 216z" />
<glyph unicode="t" horiz-adv-x="641" d="M41 930v37l168 14l20 240h35v-242h303v-49h-303v-635q0 -145 59.5 -202.5t180.5 -57.5q60 0 117 8v-47q-65 -8 -132 -8q-148 0 -214 70t-66 249v623h-168z" />
<glyph unicode="u" horiz-adv-x="1015" d="M119 422v557h57v-557q0 -68 5.5 -118t25 -103.5t53.5 -87.5t93.5 -56t142.5 -22q82 0 148.5 32t108 86t63.5 122.5t22 144.5v559h55v-979h-43q-5 12 -7.5 25t-3.5 33t-1.5 31.5t0 41.5t0.5 43h-9q-33 -56 -76.5 -95t-90.5 -59t-88.5 -28t-84.5 -8q-94 0 -162 24 t-107.5 61.5t-62.5 97t-30.5 118.5t-7.5 137z" />
<glyph unicode="v" horiz-adv-x="854" d="M16 979h60l162 -426q149 -392 182 -496h8q68 208 188 521l154 401h59l-372 -985h-70z" />
<glyph unicode="w" horiz-adv-x="1370" d="M16 979h58l121 -401q88 -295 149 -519h8q134 440 158 512l133 408h76l133 -412q24 -77 77 -251t81 -259h8q50 181 149 521l121 401h58l-297 -983h-70l-135 410q-69 208 -160 509h-8q-58 -198 -156 -501l-137 -418h-70z" />
<glyph unicode="x" horiz-adv-x="833" d="M20 0l361 506l-338 473h70l303 -432l303 432h67l-335 -473l362 -506h-70l-327 461l-326 -461h-70z" />
<glyph unicode="y" horiz-adv-x="837" d="M14 977h60l157 -414q138 -365 187 -508h14q18 63 44 140t64 184t54 153l154 445h59l-369 -1086q-41 -124 -57 -157q-49 -99 -142 -124q-40 -11 -89 -11h-109v49h102q87 0 132.5 37.5t78.5 130.5l62 180l-37 -4q-24 74 -52.5 151.5t-62 163.5t-49.5 129z" />
<glyph unicode="z" horiz-adv-x="837" d="M31 0v45l678 883h-623v51h690v-51l-674 -881h674v-47h-745z" />
<glyph unicode="{" horiz-adv-x="692" d="M190 567v37q37 8 60.5 22.5t37 31.5t20 51t8 63.5t1.5 87.5v410q0 85 37 130.5t107 45.5h78v-41h-60q-31 0 -52.5 -9t-33 -22.5t-17.5 -38t-7.5 -45.5t-1.5 -55v-410q0 -50 -2.5 -79.5t-12 -64t-31.5 -57t-57 -38.5v-4q28 -10 48 -30.5t30 -41.5t15.5 -55t6.5 -57.5 t1 -61.5v-369q0 -94 26.5 -136t93.5 -42h54v-45h-66q-70 0 -112 49.5t-42 136.5v385q0 127 -22.5 177t-106.5 75z" />
<glyph unicode="|" horiz-adv-x="540" d="M236 -254v1722h55v-1722h-55z" />
<glyph unicode="}" horiz-adv-x="692" d="M190 -211h54q67 0 94 42t27 136v369q0 39 1 62t6 57t15 55t30 41.5t48 30.5v4q-35 16 -57 38.5t-31.5 57t-12 64t-2.5 79.5v410q0 34 -1.5 55t-7.5 45.5t-17.5 38t-33 22.5t-52.5 9h-60v41h78q70 0 107 -45.5t37 -130.5v-410q0 -58 1.5 -87.5t8 -63.5t20 -51t37 -31.5 t60.5 -22.5v-37q-84 -25 -106.5 -75t-22.5 -177v-385q0 -87 -42 -136.5t-112 -49.5h-66v45z" />
<glyph unicode="~" horiz-adv-x="1171" d="M156 520q69 146 227 146q44 0 102.5 -20t106.5 -43.5t101.5 -43.5t88.5 -20q69 0 113.5 27.5t89.5 95.5l43 -21q-36 -79 -101 -116.5t-141 -37.5q-60 0 -137 31.5t-148 63.5t-116 32q-61 0 -103 -25t-85 -91z" />
<glyph unicode="&#xa2;" horiz-adv-x="1171" d="M195 653q0 102 21 188t65 158.5t122 116.5t183 51v219h49v-217q66 -2 124.5 -18t106 -47t75.5 -82t28 -117q0 -14 -2 -24h-43q-1 44 -16 83.5t-47 75t-90 58t-136 24.5v-917q87 1 150 27t95 67.5t46.5 83.5t15.5 88h43q2 -10 2 -25q0 -133 -98 -209t-254 -79v-258h-49 v258q-207 7 -299 128t-92 367zM252 657q0 -235 84 -339t250 -113v915q-167 -12 -250.5 -136t-83.5 -327z" />
<glyph unicode="&#xa3;" horiz-adv-x="1171" d="M135 0v47h62q62 74 97.5 186t35.5 207q0 91 -39 238h-154v45h146q-32 110 -43 164t-11 100q0 154 106 254t304 100q108 0 198.5 -33t145.5 -98t55 -149q0 -15 -2 -25h-41q-1 49 -22.5 94t-63 82.5t-111.5 59.5t-159 22q-169 0 -263.5 -88t-94.5 -233q0 -68 57 -250h401 v-45h-393q33 -144 33 -244q0 -209 -121 -387h758v-47h-881z" />
<glyph unicode="&#xa5;" horiz-adv-x="1171" d="M104 1319h68l203 -344q124 -208 196 -340h17q93 166 190 319l226 365h65l-444 -725h407v-47h-880v47h383zM152 379v47h880v-47h-424v-379h-59v379h-397z" />
<glyph unicode="&#xa8;" horiz-adv-x="958" d="M299 1212q0 21 13.5 35.5t33.5 14.5t34.5 -15t14.5 -35t-14.5 -33.5t-34.5 -13.5t-33.5 13.5t-13.5 33.5zM612 1212q0 21 13.5 35.5t33.5 14.5t35 -15t15 -35t-14.5 -33.5t-35.5 -13.5q-20 0 -33.5 13.5t-13.5 33.5z" />
<glyph unicode="&#xa9;" horiz-adv-x="1656" d="M88 725q0 160 58.5 300.5t157.5 238.5t233.5 154.5t283.5 56.5q148 0 282 -56.5t232.5 -154.5t156.5 -238.5t58 -300.5q0 -159 -58 -300t-156.5 -239.5t-232.5 -155.5t-282 -57q-222 0 -389.5 97.5t-255.5 267.5t-88 387zM141 725q0 -157 50.5 -289t140 -223t215.5 -142 t274 -51q139 0 264.5 55.5t216 149.5t144 224.5t53.5 275.5q0 143 -53.5 272.5t-144 222.5t-216 148t-264.5 55q-191 0 -347.5 -93t-244.5 -253t-88 -352zM397 690q0 84 13.5 157.5t45.5 140.5t80.5 114.5t122 75.5t166.5 28q92 0 167.5 -26t127 -87.5t51.5 -150.5 q0 -14 -2 -24h-43q-1 45 -16.5 85t-49 76.5t-94.5 58t-143 21.5q-185 0 -276.5 -125t-91.5 -340q0 -127 24.5 -215.5t73.5 -140t115 -74t157 -22.5q73 0 130.5 17.5t92 44t57 63t31 71t9.5 70.5h43q2 -10 2 -25q0 -136 -103.5 -212t-265.5 -76q-224 0 -324 120.5t-100 374.5 z" />
<glyph unicode="&#xaa;" horiz-adv-x="661" d="M43 762q0 95 82 158t242 63q65 0 159 -16v47q0 184 -198 184q-104 0 -151.5 -45.5t-47.5 -108.5h-43q-4 12 -4 23q0 89 72.5 134.5t167.5 45.5q136 0 198 -61.5t62 -163.5v-428h-41q-13 29 -13 98l-8 4q-88 -112 -254 -112q-98 0 -160.5 43.5t-62.5 134.5zM96 762 q0 -60 42.5 -96.5t125.5 -36.5q60 0 107 14.5t75.5 37t47 52t25.5 57t7 54.5v76q-81 16 -161 16q-131 0 -200 -50t-69 -124z" />
<glyph unicode="&#xab;" horiz-adv-x="811" d="M133 440v29l305 387l27 -18l-264 -383l284 -375l-28 -21zM371 440v29l305 387l26 -18l-264 -383l285 -375l-29 -21z" />
<glyph unicode="&#xad;" horiz-adv-x="917" d="M211 477v68h496v-68h-496z" />
<glyph unicode="&#xae;" horiz-adv-x="1155" d="M88 950q0 98 37.5 187t101.5 154t152.5 103t185.5 38q137 0 248 -65t172.5 -175t61.5 -242q0 -129 -64.5 -238.5t-175.5 -173t-242 -63.5q-213 0 -345 137t-132 338zM131 950q0 -181 123 -308.5t311 -127.5q180 0 308 129t128 307q0 119 -58 221.5t-158.5 163 t-219.5 60.5q-185 0 -309.5 -130.5t-124.5 -314.5zM412 676v563h178q78 0 129 -40.5t51 -121.5q0 -51 -30 -92t-99 -53l131 -256h-49l-125 252h-143v-252h-43zM455 965h141q129 0 129 114q0 60 -40.5 90.5t-90.5 30.5h-139v-235z" />
<glyph unicode="&#xb2;" horiz-adv-x="761" d="M66 778v47q0 37 7.5 67.5t27.5 58t39 47.5t60 47t71.5 45t89.5 52q5 3 8.5 5t7.5 4q56 32 86 51.5t65 48.5t50.5 59.5t15.5 65.5q0 71 -52.5 111.5t-162.5 40.5q-127 0 -186.5 -55.5t-59.5 -131.5h-45q-4 16 -4 27q0 100 83 153.5t210 55.5q142 0 210 -56t68 -143 q0 -45 -20 -84.5t-58.5 -72.5t-74.5 -56t-86 -49q-54 -29 -78.5 -42.5t-63.5 -36.5t-56 -37t-40 -35.5t-32 -40.5t-16 -44t-7 -53h549v-49h-606z" />
<glyph unicode="&#xb3;" horiz-adv-x="761" d="M61 973v24h50q2 -76 58.5 -128t182.5 -52q128 0 198.5 54t70.5 147q0 99 -69 145.5t-210 46.5q-28 0 -53 -4l-29 39l309 260l-2 11h-463v49h562v-45l-314 -260h10q149 0 231.5 -60t82.5 -176t-87 -186t-235 -70q-128 0 -210.5 52.5t-82.5 152.5z" />
<glyph unicode="&#xb4;" horiz-adv-x="958" d="M444 1143l209 268l66 -49l-248 -240z" />
<glyph unicode="&#xb8;" horiz-adv-x="966" d="M348 -377l17 39q74 -29 143 -29q51 0 94 26t43 79q0 46 -36.5 73t-92.5 27q-38 0 -70 -12l-34 20l94 170h51l-80 -137q36 4 53 4q46 0 81.5 -14.5t54 -37t27.5 -45.5t9 -44q0 -65 -48.5 -108t-141.5 -44q-88 0 -164 33z" />
<glyph unicode="&#xb9;" horiz-adv-x="761" d="M111 778v47h239v678l-211 -35v41l219 54h48v-738h241v-47h-536z" />
<glyph unicode="&#xba;" horiz-adv-x="735" d="M63 905q0 74 17 134t52.5 107.5t95 74t139.5 26.5q69 0 122.5 -19.5t86 -51t53.5 -76.5t29 -91t8 -98q0 -64 -14.5 -119t-47 -103.5t-93 -76.5t-144.5 -28q-304 0 -304 321zM121 905q0 -136 58 -205t188 -69q117 0 181 71.5t64 208.5q0 131 -57.5 210t-187.5 79 q-127 0 -186.5 -82t-59.5 -213z" />
<glyph unicode="&#xbb;" horiz-adv-x="811" d="M133 80l285 375l-264 383l26 18l305 -387v-29l-323 -381zM371 80l284 375l-264 383l27 18l305 -387v-29l-324 -381z" />
<glyph unicode="&#xbc;" horiz-adv-x="1597" d="M106 594v47h240v678l-211 -35v41l219 53h47v-737h242v-47h-537zM387 -61l854 1501h57l-854 -1501h-57zM838 207v45l483 534h45v-530h147v-49h-147v-207h-55v207h-473zM911 256h400v442z" />
<glyph unicode="&#xbd;" horiz-adv-x="1597" d="M102 594v47h240v678l-211 -35v41l219 53h47v-737h242v-47h-537zM352 -61l854 1501h58l-854 -1501h-58zM922 0v47q0 37 7.5 67.5t27.5 58t39 47.5t60 47t71.5 45t89.5 52q11 6 16 9q56 32 86 51.5t65 48.5t50.5 59.5t15.5 65.5q0 71 -52.5 111.5t-162.5 40.5 q-127 0 -186.5 -55.5t-59.5 -131.5h-45q-4 16 -4 27q0 100 83 153.5t210 55.5q142 0 210 -56t68 -143q0 -45 -20 -84.5t-58.5 -72.5t-74.5 -56t-86 -49q-54 -29 -78.5 -42.5t-63.5 -36.5t-56 -37t-40 -35.5t-32 -40.5t-16 -44t-7 -53h549v-49h-606z" />
<glyph unicode="&#xbe;" horiz-adv-x="1597" d="M102 788v25h50q2 -76 58.5 -128t182.5 -52q128 0 198.5 54t70.5 147q0 99 -69 145.5t-210 46.5q-28 0 -53 -4l-29 39l309 260l-2 10h-463v49h562v-45l-314 -260h10q149 0 231.5 -59.5t82.5 -175.5t-87 -186t-235 -70q-129 0 -211 52t-82 152zM397 -61l854 1501h58 l-854 -1501h-58zM862 207v45l484 534h45v-530h147v-49h-147v-207h-56v207h-473zM936 256h399v442z" />
<glyph unicode="&#xc6;" horiz-adv-x="1898" d="M18 0l934 1380h871v-49h-781v-629h713v-49h-713v-602h799v-51h-860v516h-545l-350 -516h-68zM473 571h508l2 744l-10 2z" />
<glyph unicode="&#xe6;" horiz-adv-x="1701" d="M72 250q0 293 420 293h296v100q0 303 -311 303q-82 0 -143 -21.5t-94.5 -58t-49 -76.5t-16.5 -85h-43q-2 10 -2 24q0 71 33.5 125t87 83.5t110.5 43.5t115 14q157 0 245 -67.5t111 -182.5q92 250 379 250q105 0 181 -32.5t118 -91.5t61 -130.5t19 -160.5q0 -28 -4 -86 h-739q0 -237 91 -350t277 -113q77 0 136.5 17.5t94 44t56.5 63.5t30 70.5t9 70.5h43q2 -10 2 -25q0 -135 -106 -211.5t-269 -76.5q-286 0 -374 223q-35 -51 -75 -89.5t-80.5 -62t-77.5 -39t-78.5 -22t-70.5 -8.5t-65 -2q-139 0 -228 65t-89 201zM127 250q0 -98 65.5 -159.5 t194.5 -61.5q80 0 147 17t108.5 39.5t79 59t54 60t37.5 57.5q-27 115 -25 230h-299q-192 0 -277 -62t-85 -180zM852 541h686q0 70 -8 126t-30 110t-57.5 89.5t-94.5 57.5t-138 22q-94 0 -163.5 -33t-110 -91.5t-60.5 -127.5t-24 -153z" />
<glyph unicode="&#x152;" horiz-adv-x="1732" d="M109 676q0 719 567 719q61 0 145 -15h842v-49h-780v-588h712v-49h-712v-643h798v-51h-854q-72 -16 -153 -16q-127 0 -224 33t-161 92t-104.5 147t-58 190.5t-17.5 229.5zM164 676q0 -645 508 -645q78 0 149 18v1280q-77 17 -149 17q-111 0 -197.5 -31.5t-144.5 -89 t-95.5 -142t-54 -184.5t-16.5 -223z" />
<glyph unicode="&#x153;" horiz-adv-x="1822" d="M102 477q0 115 24 207t75 163t136.5 109.5t201.5 38.5q317 0 399 -290q39 135 136 212.5t257 77.5q105 0 181 -32.5t118 -91.5t61 -130.5t19 -160.5q0 -28 -4 -86h-737q0 -238 90 -350.5t276 -112.5q77 0 136.5 17.5t94 44t56.5 63.5t30 70.5t9 70.5h43q2 -10 2 -25 q0 -135 -106 -211.5t-269 -76.5q-318 0 -395 284q-85 -284 -399 -284q-121 0 -206.5 33.5t-135 99.5t-71.5 153.5t-22 206.5zM160 477q0 -229 88.5 -337.5t290.5 -108.5q179 0 273.5 112t94.5 342q0 102 -19 183.5t-61 145.5t-114.5 99t-173.5 35t-175.5 -35t-118 -99.5 t-64.5 -148t-21 -188.5zM973 541h686q0 70 -8 126t-30 110t-57.5 89.5t-94.5 57.5t-138 22q-94 0 -163.5 -33t-110 -91.5t-60.5 -127.5t-24 -153z" />
<glyph unicode="&#x2c6;" horiz-adv-x="958" d="M197 1137q131 117 274 247h51q51 -48 150 -139.5t114 -105.5l-22 -23l-272 207q-50 -41 -147 -113.5t-126 -95.5q-1 2 -22 23z" />
<glyph unicode="&#x2da;" horiz-adv-x="958" d="M309 1284q0 70 53 122t125 52q74 0 126.5 -51.5t52.5 -122.5t-53 -123.5t-126 -52.5q-72 0 -125 52.5t-53 123.5zM356 1284q0 -55 38 -95t93 -40q58 0 97 40t39 95t-39 95t-97 40q-55 0 -93 -39.5t-38 -95.5z" />
<glyph unicode="&#x2dc;" horiz-adv-x="958" d="M178 1186q25 60 70 90.5t96 30.5q48 0 142 -39t122 -39q44 0 71.5 18t57.5 68l37 -19q-26 -63 -71 -91.5t-97 -28.5q-48 0 -141 38.5t-125 38.5q-38 0 -65.5 -18.5t-57.5 -67.5z" />
<glyph unicode="&#x401;" horiz-adv-x="1062" d="M133 0v1380h840v-51h-783v-586h723v-51h-723v-641h811v-51h-868zM350 1585q0 20 13.5 34.5t33.5 14.5t34.5 -14.5t14.5 -34.5t-14.5 -33.5t-34.5 -13.5t-33.5 13.5t-13.5 33.5zM664 1585q0 20 13.5 34.5t33.5 14.5t34.5 -14.5t14.5 -34.5t-14.5 -33.5t-34.5 -13.5 t-33.5 13.5t-13.5 33.5z" />
<glyph unicode="&#x402;" horiz-adv-x="1548" d="M20 1329v51h1197v-51h-682v-526l6 -4q84 71 199.5 114t234.5 43q79 0 144 -18.5t110 -49t79 -74.5t54 -89.5t32.5 -100.5t16.5 -101.5t4 -96.5q0 -53 -3.5 -98.5t-14.5 -101.5t-29 -100.5t-51 -88.5t-76.5 -73.5t-108.5 -47.5t-145 -18q-29 0 -45 2l4 47q106 0 182.5 27 t119 68.5t67.5 106t32 123.5t7 138q0 493 -389 493q-106 0 -229 -49t-201 -139v-715h-56v1329h-459z" />
<glyph unicode="&#x403;" horiz-adv-x="1036" d="M133 0v1380h860v-53h-807v-1327h-53zM449 1544l270 203l43 -57l-295 -172z" />
<glyph unicode="&#x404;" horiz-adv-x="1177" d="M113 676q0 163 30.5 291.5t95 226t172 149.5t253.5 52q121 0 218.5 -36.5t158.5 -115.5t61 -188q0 -17 -2 -29h-43q-1 60 -22.5 114t-66.5 101t-125.5 74.5t-187.5 27.5q-237 0 -355.5 -159t-131.5 -443h698v-49h-698q0 -341 118.5 -498t364.5 -157q95 0 170 21.5 t122.5 55.5t79 81t44.5 94t14 98h45q2 -14 2 -31q0 -166 -133 -267t-342 -101q-122 0 -215 32.5t-154 91t-100 146t-55 189t-16 229.5z" />
<glyph unicode="&#x405;" horiz-adv-x="1210" d="M113 383q0 23 2 35h51q0 -59 10.5 -109.5t39.5 -102t75 -87t123.5 -58t179.5 -22.5q119 0 209 28.5t140.5 76.5t74.5 102t24 114q0 152 -102 234.5t-319 112.5q-57 8 -94.5 14t-87 16.5t-81.5 22.5t-69 29t-60 40t-43.5 52.5t-29.5 68t-9 84.5q0 71 26 133.5t79.5 115 t147 83.5t216.5 31q94 0 175.5 -21.5t146.5 -64t102 -114t37 -165.5q0 -12 -4 -28h-49q0 68 -22.5 127t-68.5 107.5t-127 76.5t-188 28q-195 0 -301 -86.5t-106 -212.5q0 -36 7 -65.5t15.5 -52.5t32 -42.5t38 -33t53 -26.5t59 -20t73 -17t77 -14t89.5 -14q4 -1 6.5 -1t6 -1 t6.5 -1q95 -15 168.5 -41.5t134 -70t93 -112t32.5 -157.5q0 -59 -16 -112.5t-54 -104.5t-94.5 -88t-143.5 -59.5t-196 -22.5q-234 0 -359.5 101t-125.5 294z" />
<glyph unicode="&#x406;" horiz-adv-x="403" d="M174 0v1380h55v-1380h-55z" />
<glyph unicode="&#x407;" horiz-adv-x="403" d="M-4 1579q0 20 13.5 34.5t33.5 14.5t34.5 -14.5t14.5 -34.5t-14.5 -33.5t-34.5 -13.5t-33.5 13.5t-13.5 33.5zM174 0v1380h55v-1380h-55zM309 1579q0 20 13.5 34.5t33.5 14.5t35 -14.5t15 -34.5t-14.5 -33.5t-35.5 -13.5q-20 0 -33.5 13.5t-13.5 33.5z" />
<glyph unicode="&#x408;" horiz-adv-x="1089" d="M41 338q0 17 2 29h49q1 -49 11 -92.5t37.5 -88t70 -76t113 -51.5t161.5 -20q198 0 301 105.5t103 293.5v942h57v-954q0 -86 -25.5 -161.5t-78 -139t-144 -100.5t-211.5 -37q-203 0 -324.5 91.5t-121.5 258.5z" />
<glyph unicode="&#x409;" horiz-adv-x="1976" d="M20 -16v47q61 0 108 19t78 51.5t52 83t31.5 106.5t15.5 129l66 960h635v-596h473q98 0 175 -22t125 -58t79.5 -85.5t44 -101t12.5 -107.5q0 -184 -115 -297t-321 -113h-531v1331l-524 -2l-66 -921q-3 -43 -7.5 -79t-14.5 -81.5t-23.5 -81t-37 -71t-53 -59.5t-72.5 -39 t-95 -15q-23 0 -35 2zM1006 53h454q172 0 282.5 92.5t110.5 262.5q0 81 -24.5 141t-61 94t-91 54.5t-103.5 27t-109 6.5h-458v-678z" />
<glyph unicode="&#x40a;" horiz-adv-x="1880" d="M129 0v1382h55v-598h686v596h58v-596h467q98 0 175 -23t125 -59.5t79.5 -87.5t44 -102.5t12.5 -108.5q0 -184 -114.5 -293.5t-321.5 -109.5h-525v731h-686v-731h-55zM928 53h450q173 0 282 89t109 259q0 77 -24 137t-61.5 95.5t-90 58t-103.5 31t-108 8.5h-454v-678z" />
<glyph unicode="&#x40b;" horiz-adv-x="1552" d="M20 1331v49h1168v-49h-658v-534l9 -2q206 161 471 161q409 0 409 -417v-539h-57v526q0 63 -9 115.5t-33 102.5t-62.5 84.5t-102 55.5t-147.5 21q-125 0 -257 -48.5t-221 -141.5v-715h-55v1331h-455z" />
<glyph unicode="&#x40c;" horiz-adv-x="1067" d="M133 0v1380h55v-637h279l494 637h67l-512 -659l531 -721h-74l-504 692h-281v-692h-55zM401 1526l271 203l43 -58l-295 -172z" />
<glyph unicode="&#x40e;" horiz-adv-x="993" d="M10 1380h62l434 -952h8l399 952h58l-467 -1130q-50 -120 -81 -165q-75 -105 -218 -110h-17h-67v52h61q168 0 238 168l76 182l-27 -2zM240 1712h51q-1 -33 11 -68t36.5 -69t71.5 -56t108 -22q59 0 105 23t71.5 57.5t38 69.5t12.5 65h48q-1 -35 -11 -71t-32 -72t-53.5 -64 t-78 -45.5t-102.5 -17.5q-70 0 -125.5 26.5t-87 68t-47.5 87t-16 88.5z" />
<glyph unicode="&#x40f;" horiz-adv-x="1286" d="M133 0v1382h57v-1329h900v1329h59l4 -1382h-477v-356h-60v356h-483z" />
<glyph unicode="&#x410;" horiz-adv-x="1159" d="M20 0l523 1380h67l529 -1380h-64l-145 383h-705l-145 -383h-60zM244 436h669l-184 475q-29 74 -78.5 211t-66.5 183h-15q-64 -190 -143 -394z" />
<glyph unicode="&#x411;" horiz-adv-x="1189" d="M133 0v1382h858v-47h-801v-551h482q98 0 175 -23t125 -59.5t79.5 -87.5t44 -102.5t12.5 -108.5q0 -184 -114.5 -293.5t-321.5 -109.5h-539zM190 51h465q173 0 282.5 90t109.5 260q0 77 -24 137t-61.5 96t-90 59t-104 31.5t-108.5 8.5h-469v-682z" />
<glyph unicode="&#x412;" horiz-adv-x="1218" d="M133 0v1380h533q190 0 298.5 -91t108.5 -265q0 -38 -10.5 -79t-33 -86t-67 -82.5t-104.5 -55.5v-8q84 -20 143.5 -73t87 -122t27.5 -147q0 -56 -14 -108t-47 -100.5t-82 -84t-124 -57t-167 -21.5h-549zM190 51h482q74 0 140 16.5t122.5 51.5t89.5 97t33 144q0 85 -31 151 t-83 104t-115 57.5t-132 19.5h-506v-641zM190 743h490q93 0 166.5 27.5t121.5 93t48 160.5q0 70 -21.5 124t-56 87.5t-84 55t-101 30t-110.5 8.5h-453v-586z" />
<glyph unicode="&#x413;" horiz-adv-x="1036" d="M133 0v1380h860v-53h-807v-1327h-53z" />
<glyph unicode="&#x414;" horiz-adv-x="1329" d="M16 51h119q76 136 123 333t72 523l37 473h798v-1329h127v-366h-59v315h-1159v-315h-58v366zM199 51h909v1278h-690l-33 -409q-15 -184 -30 -300.5t-54.5 -275.5t-101.5 -293z" />
<glyph unicode="&#x415;" horiz-adv-x="1062" d="M133 0v1380h840v-51h-783v-586h723v-51h-723v-641h811v-51h-868z" />
<glyph unicode="&#x416;" horiz-adv-x="1724" d="M6 0l559 721l-540 659h67l522 -637h220v637h55v-637h219l522 637h68l-541 -659l559 -721h-74l-532 692h-221v-692h-55v692h-222l-532 -692h-74z" />
<glyph unicode="&#x417;" horiz-adv-x="1148" d="M70 354q0 17 2 31h45q1 -50 16 -98.5t50 -95t85.5 -82t128 -57t172.5 -21.5q215 0 326 97.5t111 256.5q0 53 -18 104.5t-56.5 100t-111 78.5t-169.5 30h-215v52h203q87 0 154.5 25t107.5 67.5t60 94.5t20 110q0 128 -101 213.5t-300 85.5q-107 0 -189 -28.5t-128 -76 t-69 -102.5t-24 -115h-45q-2 12 -2 29q0 110 62.5 188.5t165 116t233.5 37.5q219 0 339.5 -98.5t120.5 -254.5q0 -107 -63.5 -194t-165.5 -119v-8q110 -23 181 -117t71 -219q0 -82 -29 -153t-87 -127t-154.5 -88.5t-221.5 -32.5q-227 0 -366 101.5t-139 268.5z" />
<glyph unicode="&#x418;" horiz-adv-x="1296" d="M133 0v1380h60v-1274h10q140 202 301 424l608 850h51v-1380h-55v1278h-12q-139 -212 -254 -371l-652 -907h-57z" />
<glyph unicode="&#x419;" horiz-adv-x="1296" d="M133 0v1380h60v-1274h10q140 202 301 424l608 850h51v-1380h-55v1278h-12q-139 -212 -254 -371l-652 -907h-57zM365 1729h51q-1 -33 11 -68t36.5 -69.5t71.5 -56.5t108 -22q59 0 105 23t71.5 58t38 70t12.5 65h48q-1 -44 -17.5 -89.5t-48.5 -87t-87 -68t-124 -26.5 q-70 0 -125.5 26.5t-87 68.5t-47.5 87.5t-16 88.5z" />
<glyph unicode="&#x41a;" horiz-adv-x="1067" d="M133 0v1380h55v-637h279l494 637h67l-512 -659l531 -721h-74l-504 692h-281v-692h-55z" />
<glyph unicode="&#x41b;" horiz-adv-x="1245" d="M20 -16v47q61 0 107.5 19t77 51.5t51 83.5t31 106.5t16.5 128.5l76 960h733v-1380h-57v1329h-623l-76 -921q-4 -45 -8 -79.5t-14 -81t-23.5 -81t-36.5 -71t-52.5 -59.5t-72 -38.5t-94.5 -15.5q-23 0 -35 2z" />
<glyph unicode="&#x41c;" horiz-adv-x="1554" d="M133 0v1380h70l364 -708l205 -391h12q136 271 213 417l353 682h71v-1380h-59v1274h-8q-102 -209 -193 -379l-354 -684h-62l-389 747q-77 143 -159 318h-9v-1276h-55z" />
<glyph unicode="&#x41d;" horiz-adv-x="1286" d="M133 0v1382h55v-639h906v639h59v-1382h-59v692h-906v-692h-55z" />
<glyph unicode="&#x41e;" horiz-adv-x="1347" d="M113 676q0 719 567 719q130 0 228.5 -39t159.5 -104t99.5 -159.5t53 -194.5t14.5 -220q0 -111 -15.5 -206.5t-56 -187t-103.5 -155t-164.5 -102.5t-233.5 -39q-126 0 -222 33t-157.5 90.5t-100 145.5t-54 189.5t-15.5 229.5zM168 676q0 -329 120 -485t371 -156 q515 0 515 643q0 123 -15.5 222.5t-52 184t-93 141t-142 88.5t-195.5 32q-111 0 -197.5 -31.5t-144.5 -89t-95.5 -142t-54 -184.5t-16.5 -223z" />
<glyph unicode="&#x41f;" horiz-adv-x="1286" d="M133 0v1380h1020v-1380h-59v1329h-906v-1329h-55z" />
<glyph unicode="&#x420;" horiz-adv-x="1105" d="M133 0v1380h506q204 0 320 -122.5t116 -309.5q0 -57 -12.5 -112.5t-44 -112t-79.5 -99t-125.5 -69.5t-174.5 -27h-449v-528h-57zM190 582h439q60 0 113.5 11t104.5 38t87.5 68t59 105.5t22.5 145.5q0 174 -107.5 276.5t-279.5 102.5h-439v-747z" />
<glyph unicode="&#x421;" horiz-adv-x="1189" d="M113 676q0 163 30.5 291.5t95 226t172 149.5t253.5 52q121 0 218.5 -36.5t158.5 -115.5t61 -188q0 -17 -2 -29h-43q-1 60 -22.5 114t-66.5 101t-125.5 74.5t-187.5 27.5q-127 0 -221.5 -47.5t-152 -137t-85.5 -209.5t-28 -273q0 -328 119 -483.5t364 -155.5 q95 0 170 21.5t122.5 55.5t79 81t44.5 94t14 98h45q2 -14 2 -31q0 -166 -133 -267t-342 -101q-122 0 -215 32.5t-154 91t-100 146t-55 189t-16 229.5z" />
<glyph unicode="&#x422;" horiz-adv-x="1093" d="M31 1329v51h1032v-51h-483v-1329h-58v1329h-491z" />
<glyph unicode="&#x423;" horiz-adv-x="993" d="M10 1380h62l434 -952h8l399 952h58l-467 -1130q-50 -120 -81 -165q-75 -105 -218 -110h-17h-67v52h61q168 0 238 168l76 182l-27 -2z" />
<glyph unicode="&#x424;" horiz-adv-x="1449" d="M102 711q0 131 35 238.5t106 190.5t188.5 131t273.5 52v59h59v-59q584 -23 584 -610q0 -86 -17.5 -164.5t-60.5 -155t-108 -134t-167 -95.5t-231 -45v-119h-59v117q-131 5 -234 38t-171.5 86t-113.5 127.5t-64.5 158.5t-19.5 184zM158 711q0 -517 547 -547v1112 q-117 -5 -209.5 -36t-155.5 -81t-104 -120t-59.5 -151t-18.5 -177zM764 164q249 18 385.5 157.5t136.5 391.5q0 542 -522 563v-1112z" />
<glyph unicode="&#x425;" horiz-adv-x="1073" d="M16 0l486 715l-447 665h66l414 -620l417 620h66l-449 -665l484 -715h-72l-446 668l-449 -668h-70z" />
<glyph unicode="&#x426;" horiz-adv-x="1302" d="M133 0v1382h57v-1331h900v1331h59v-1331h92v-366h-59v315h-1049z" />
<glyph unicode="&#x427;" horiz-adv-x="1167" d="M102 965v415h58v-407q0 -385 428 -385q171 0 389 55v737h57v-1380h-57v590q-221 -53 -397 -53q-478 0 -478 428z" />
<glyph unicode="&#x428;" horiz-adv-x="1910" d="M133 0v1382h57v-1331h736v1331h57v-1331h735v1331h60v-1382h-1645z" />
<glyph unicode="&#x429;" horiz-adv-x="1931" d="M133 0v1382h57v-1331h734v1331h59v-1331h735v1331h60v-1331h92v-366h-60v315h-1677z" />
<glyph unicode="&#x42a;" horiz-adv-x="1656" d="M16 1333v49h631v-598h481q98 0 175 -23t125 -60t80 -87.5t44.5 -102t12.5 -108.5q0 -184 -115 -293.5t-322 -109.5h-538v1333h-574zM647 51h465q173 0 282 90t109 260q0 77 -24 137t-61.5 95.5t-90 58t-103.5 31t-108 8.5h-469v-680z" />
<glyph unicode="&#x42b;" horiz-adv-x="1464" d="M133 0v1382h57v-598h482q98 0 175 -23t125 -59.5t79.5 -87.5t44 -102.5t12.5 -108.5q0 -184 -114.5 -293.5t-321.5 -109.5h-539zM190 51h465q173 0 282.5 90t109.5 260q0 77 -24 137t-61.5 95.5t-90 58t-104 31t-108.5 8.5h-469v-680zM1274 0v1382h57v-1382h-57z" />
<glyph unicode="&#x42c;" horiz-adv-x="1189" d="M133 0v1382h57v-598h482q98 0 175 -23t125 -59.5t79.5 -87.5t44 -102.5t12.5 -108.5q0 -184 -114.5 -293.5t-321.5 -109.5h-539zM190 51h465q173 0 282.5 90t109.5 260q0 77 -24 137t-61.5 95.5t-90 58t-104 31t-108.5 8.5h-469v-680z" />
<glyph unicode="&#x42d;" horiz-adv-x="1191" d="M59 356q0 17 2 31h45q1 -51 13 -98t43 -94t77.5 -81t121 -55.5t169.5 -21.5q488 0 494 655h-698v49h698q-1 93 -15.5 175t-49 162t-87 137.5t-136 92.5t-189.5 35q-103 0 -181.5 -24t-125.5 -67.5t-71 -97.5t-28 -120h-47v21q0 68 25.5 125.5t68 96.5t98.5 66t117 39.5 t125 12.5q124 0 220.5 -37.5t158 -99t101 -148.5t55.5 -179.5t16 -197.5q0 -139 -18 -251t-59 -205.5t-104.5 -156.5t-156.5 -97.5t-213 -34.5q-208 0 -338.5 101t-130.5 267z" />
<glyph unicode="&#x42e;" horiz-adv-x="1710" d="M133 0v1382h55v-639h328q4 110 23.5 203.5t60.5 178t102 143t153 93t208 34.5q125 0 219.5 -39t153.5 -104t96 -159.5t51 -194.5t14 -220q0 -108 -13 -200.5t-50 -185.5t-95 -158t-154.5 -105.5t-223.5 -40.5q-126 0 -221.5 35.5t-156.5 96.5t-99 152t-53 192.5 t-15 227.5h-328v-692h-55zM571 676q0 -327 122 -484t366 -157q477 0 477 643q0 668 -477 668q-127 0 -221.5 -48t-152.5 -138t-86 -210.5t-28 -273.5z" />
<glyph unicode="&#x42f;" horiz-adv-x="1179" d="M96 981q0 184 113.5 292.5t327.5 108.5h510v-1382h-58v592h-338l-450 -592h-68l449 592h-76q-91 0 -163.5 25.5t-117.5 65t-75 92.5t-42 104t-12 102zM158 983q0 -78 22 -138t58 -97t87.5 -60.5t104 -32t113.5 -8.5h446v684h-442q-176 0 -282.5 -88.5t-106.5 -259.5z" />
<glyph unicode="&#x430;" horiz-adv-x="958" d="M72 250q0 141 118.5 236.5t346.5 95.5q109 0 247 -27v88q0 41 -5 76t-23.5 79.5t-49.5 75t-90 51.5t-139 21q-82 0 -143 -21.5t-94.5 -58t-49 -76.5t-16.5 -85h-43q-2 10 -2 24q0 69 30.5 122.5t81 83.5t108.5 45t120 15q195 0 283 -91.5t88 -244.5v-659h-43 q-13 32 -13 170h-8q-119 -186 -387 -186q-139 0 -228 65t-89 201zM127 250q0 -98 65.5 -159.5t194.5 -61.5q90 0 161.5 23.5t114.5 59.5t71.5 84t39 93t10.5 90v127q-136 29 -249 29q-103 0 -182.5 -23t-128 -63.5t-73 -90.5t-24.5 -108z" />
<glyph unicode="&#x431;" horiz-adv-x="1067" d="M102 586q0 206 33.5 348t130.5 246q40 43 90 78.5t118 66t113.5 48.5t135 48.5t123.5 42.5l18 -45q-264 -90 -357 -133q-171 -81 -248 -196q-88 -131 -97 -367l8 -2q47 116 156 175.5t233 59.5q90 0 161.5 -26.5t117 -71.5t75 -108t42 -130.5t12.5 -144.5q0 -72 -12 -138 t-42.5 -131t-77 -112.5t-122 -77.5t-172.5 -32q-109 0 -186.5 26t-126.5 72t-77 123.5t-38.5 166t-10.5 214.5zM162 475q0 -223 89 -333.5t277 -110.5q189 0 285 115t96 331q0 71 -10.5 131.5t-36 116.5t-64.5 95.5t-100 63t-139 23.5q-181 0 -289 -122.5t-108 -309.5z" />
<glyph unicode="&#x432;" horiz-adv-x="1007" d="M123 0v979h440q148 0 229.5 -63t81.5 -189q0 -34 -12 -70t-48.5 -74.5t-92.5 -56.5v-8q97 -28 140.5 -97.5t43.5 -152.5q0 -51 -18.5 -97.5t-56 -85.5t-103.5 -62t-152 -23h-452zM180 51h398q111 0 190.5 54.5t79.5 154.5q0 110 -74.5 172t-179.5 62h-414v-443zM180 547 h389q106 0 177 45.5t71 134.5q0 56 -21.5 97t-60 62.5t-82.5 31.5t-96 10h-377v-381z" />
<glyph unicode="&#x433;" horiz-adv-x="827" d="M123 0v979h684v-51h-629v-928h-55z" />
<glyph unicode="&#x434;" horiz-adv-x="1081" d="M20 47h105q106 186 141 590l29 342h639v-932h110v-328h-55v281h-913v-281h-56v328zM184 47h693v881h-533l-20 -281q-14 -186 -45 -333.5t-95 -266.5z" />
<glyph unicode="&#x435;" horiz-adv-x="1013" d="M102 487q0 109 23 198t71 160t131 110.5t195 39.5q105 0 181 -32.5t118 -91.5t61 -130.5t19 -160.5q0 -28 -4 -86h-737q0 -238 90 -350.5t276 -112.5q77 0 136.5 17.5t94 44t56.5 63.5t30 70.5t9 70.5h43q2 -10 2 -25q0 -135 -106 -211.5t-269 -76.5q-116 0 -199 36.5 t-130.5 105.5t-69 157.5t-21.5 203.5zM164 541h686q0 70 -8 126t-30 110t-57.5 89.5t-94.5 57.5t-138 22q-94 0 -163.5 -33t-110 -91.5t-60.5 -127.5t-24 -153z" />
<glyph unicode="&#x436;" horiz-adv-x="1386" d="M23 0l383 532l-363 447h66l344 -420h213v420h55v-420h213l344 420h65l-362 -447l383 -532h-70l-360 506h-213v-506h-55v506h-213l-361 -506h-69z" />
<glyph unicode="&#x437;" horiz-adv-x="937" d="M72 272q0 15 2 25h45q1 -46 17 -89t51.5 -84t104 -66t161.5 -25q162 0 247.5 66.5t85.5 172.5q0 99 -72 164.5t-202 65.5h-156v55h156q254 0 254 184q0 72 -42 119.5t-106.5 66.5t-148.5 19q-90 0 -157 -25t-102 -65t-51.5 -79.5t-19.5 -80.5h-43q-2 10 -2 25 q9 127 113.5 200.5t267.5 73.5q172 0 262 -70t90 -188q0 -65 -39.5 -120t-130.5 -85v-8q56 -17 95 -47t58.5 -66.5t27.5 -70.5t8 -70q0 -130 -101.5 -208t-285.5 -78q-164 0 -275.5 77t-111.5 211z" />
<glyph unicode="&#x438;" horiz-adv-x="1040" d="M123 0v981h57v-879l10 -4q17 23 89.5 124t113.5 153l459 606h66v-981h-62v883h-12q-86 -132 -201 -279l-457 -604h-63z" />
<glyph unicode="&#x439;" horiz-adv-x="1040" d="M123 0v981h57v-879l10 -4q17 23 89.5 124t113.5 153l459 606h66v-981h-62v883h-12q-86 -132 -201 -279l-457 -604h-63zM254 1389h51q-1 -33 11 -68t36.5 -69t71.5 -56t108 -22q59 0 105 23t71.5 57.5t38.5 69.5t13 65h47q-1 -44 -17.5 -89.5t-48.5 -87t-87 -68 t-124 -26.5q-70 0 -125.5 26.5t-87 68.5t-47.5 87.5t-16 88.5z" />
<glyph unicode="&#x43a;" horiz-adv-x="882" d="M123 0v979h55v-420h248l350 420h66l-369 -447l389 -532h-69l-367 506h-248v-506h-55z" />
<glyph unicode="&#x43b;" horiz-adv-x="1011" d="M16 -20v47q40 3 67.5 14.5t50 42t36 71t24.5 116.5t18 162t15 222l19 324h643v-979h-55v926h-537l-21 -365q-8 -141 -18.5 -234.5t-28 -164t-45 -108.5t-65 -56t-92.5 -18h-11z" />
<glyph unicode="&#x43c;" horiz-adv-x="1222" d="M123 0v979h59l236 -418q92 -165 188 -346h12q68 130 168 309l258 455h56v-979h-56v854l-10 2q-41 -83 -123 -227l-270 -482h-57l-265 474q-17 30 -61 113.5t-70 127.5l-10 -2v-860h-55z" />
<glyph unicode="&#x43d;" horiz-adv-x="1038" d="M123 0v981h53v-438h684v438h55v-981h-55v496h-684v-496h-53z" />
<glyph unicode="&#x43e;" horiz-adv-x="1067" d="M102 477q0 115 24 207t75 163t136.5 109.5t201.5 38.5q98 0 173.5 -28.5t122.5 -75t77 -114t41.5 -138.5t11.5 -154q0 -81 -12.5 -151.5t-43 -136t-78 -112t-122.5 -74t-172 -27.5q-121 0 -206.5 33.5t-135 99.5t-71.5 153.5t-22 206.5zM160 477q0 -229 88.5 -337.5 t290.5 -108.5q179 0 273.5 112t94.5 342q0 102 -19 183.5t-61 145.5t-114.5 99t-173.5 35t-175.5 -35t-118 -99.5t-64.5 -148t-21 -188.5z" />
<glyph unicode="&#x43f;" horiz-adv-x="1060" d="M123 0v979h815v-979h-57v928h-703v-928h-55z" />
<glyph unicode="&#x440;" horiz-adv-x="1054" d="M123 -401v1380h43q3 -6 4.5 -14.5t3 -16t2.5 -19.5t1.5 -19.5t0.5 -23.5v-24v-27v-28h8q109 188 357 188q108 0 189 -39t128 -108t69.5 -155t22.5 -189q0 -113 -22.5 -204t-70.5 -163.5t-131 -112.5t-196 -40q-77 0 -138.5 18t-101.5 49t-65 62.5t-41 68.5h-8v-583h-55z M178 424q0 -76 21 -144.5t62.5 -125t112 -90t161.5 -33.5q96 0 167 35.5t112.5 101t61 149t19.5 187.5q0 222 -94.5 333t-268.5 111q-88 0 -157.5 -32t-111.5 -86t-63.5 -120t-21.5 -139v-147z" />
<glyph unicode="&#x441;" horiz-adv-x="966" d="M102 479q0 85 13 158.5t44.5 140.5t79.5 114t122.5 75t170.5 28q152 0 248.5 -67t96.5 -197q0 -9 -3 -24h-43q-1 45 -16.5 85t-49 76.5t-94.5 58t-143 21.5q-94 0 -165.5 -35t-115 -98.5t-65.5 -147t-22 -184.5q0 -127 24.5 -215.5t73.5 -140t115 -74t157 -22.5 q73 0 130.5 17.5t92 44t57 63t31 71t9.5 70.5h43q2 -10 2 -25q0 -136 -103.5 -212t-265.5 -76q-224 0 -324 120.5t-100 374.5z" />
<glyph unicode="&#x442;" horiz-adv-x="858" d="M18 928v51h820v-51h-381v-928h-56v928h-383z" />
<glyph unicode="&#x443;" horiz-adv-x="837" d="M14 977h60l157 -414q138 -365 187 -508h14q18 63 44 140t64 184t54 153l154 445h59l-369 -1086q-41 -124 -57 -157q-49 -99 -142 -124q-40 -11 -89 -11h-109v49h102q87 0 132.5 37.5t78.5 130.5l62 180l-37 -4q-24 74 -52.5 151.5t-62 163.5t-49.5 129z" />
<glyph unicode="&#x444;" horiz-adv-x="1257" d="M102 479q0 78 14 146.5t49.5 136t90.5 116.5t143.5 80t202.5 33v463h53v-463q113 -1 201 -30t143.5 -75.5t91 -112.5t50 -135t14.5 -149q0 -78 -15 -146.5t-51.5 -133t-92.5 -111.5t-143 -77t-198 -33v-389h-53v389q-117 3 -206.5 32t-144 74t-89 109t-47.5 130.5 t-13 145.5zM160 479q0 -226 111.5 -330t330.5 -118v911q-228 -4 -335 -125.5t-107 -337.5zM655 31q219 14 331 122.5t112 335.5q0 214 -109 333t-334 120v-911z" />
<glyph unicode="&#x445;" horiz-adv-x="833" d="M20 0l361 506l-338 473h70l303 -432l303 432h67l-335 -473l362 -506h-70l-327 461l-326 -461h-70z" />
<glyph unicode="&#x446;" horiz-adv-x="1081" d="M123 0v981h57v-934h699v934h57v-934h84v-342h-53v295h-844z" />
<glyph unicode="&#x447;" horiz-adv-x="942" d="M72 672v307h55v-293q0 -146 83.5 -213t229.5 -67q132 0 324 55v518h55v-979h-55v412q-178 -56 -326 -56q-80 0 -144.5 17.5t-115 53.5t-78.5 98.5t-28 146.5z" />
<glyph unicode="&#x448;" horiz-adv-x="1548" d="M123 0v981h57v-934h565v934h58v-934h565v934h57v-981h-1302z" />
<glyph unicode="&#x449;" horiz-adv-x="1570" d="M123 0v981h57v-934h565v934h58v-934h565v934h57v-934h84v-342h-53v295h-1333z" />
<glyph unicode="&#x44a;" horiz-adv-x="1280" d="M6 926v53h469v-391h389q96 0 164.5 -26.5t103.5 -71.5t50.5 -93t15.5 -102q0 -133 -86 -214t-248 -81h-446v926h-412zM473 51h381q135 0 210 62.5t75 179.5q0 55 -16 98t-42 69.5t-63 44t-76.5 24t-85.5 6.5h-383v-484z" />
<glyph unicode="&#x44b;" horiz-adv-x="1226" d="M123 0v979h57v-391h389q96 0 164.5 -26.5t103.5 -71.5t50.5 -93t15.5 -102q0 -133 -86 -214t-248 -81h-446zM178 51h381q135 0 210 62.5t75 179.5q0 55 -16 98t-42 69.5t-63 44t-76.5 24t-85.5 6.5h-383v-484zM1049 0v938h55v-938h-55z" />
<glyph unicode="&#x44c;" horiz-adv-x="985" d="M123 0v979h57v-391h389q96 0 164.5 -26.5t103.5 -71.5t50.5 -93t15.5 -102q0 -133 -86 -214t-248 -81h-446zM178 51h381q135 0 210 62.5t75 179.5q0 55 -16 98t-42 69.5t-63 44t-76.5 24t-85.5 6.5h-383v-484z" />
<glyph unicode="&#x44d;" horiz-adv-x="976" d="M72 272q0 15 2 25h43q1 -36 9.5 -70.5t31.5 -71t58 -63.5t94 -44.5t134 -18.5q371 0 371 463l-483 2v49h481q-8 192 -95 298.5t-263 106.5q-73 0 -130.5 -17.5t-92 -44t-57 -63t-31 -71t-9.5 -70.5h-43q-2 10 -2 25q0 135 103 211.5t262 76.5q99 0 174 -28t121 -74.5 t74.5 -114t39 -138.5t10.5 -157q0 -499 -434 -499q-162 0 -265 76t-103 212z" />
<glyph unicode="&#x44e;" horiz-adv-x="1361" d="M123 0v981h57v-442h236q21 456 426 456q100 0 176.5 -31t121.5 -79.5t73 -118t37.5 -136.5t9.5 -145t-11 -146.5t-40.5 -135t-75.5 -114t-120.5 -76.5t-170.5 -29q-117 0 -202 38t-133.5 107.5t-70.5 157t-22 196.5h-234v-483h-57zM471 483q0 -454 371 -454 q172 0 266 113.5t94 342.5q0 463 -360 463q-197 0 -284 -121t-87 -344z" />
<glyph unicode="&#x44f;" horiz-adv-x="952" d="M72 688q0 132 87.5 211.5t248.5 79.5h421v-979h-55v414h-260l-354 -414h-70l356 414h-47q-92 0 -158.5 22.5t-102 63t-51 86.5t-15.5 102zM129 690q0 -69 24.5 -116.5t69 -71t92.5 -32.5t109 -9h350v467h-364q-124 0 -202.5 -61.5t-78.5 -176.5z" />
<glyph unicode="&#x451;" horiz-adv-x="1013" d="M102 487q0 109 23 198t71 160t131 110.5t195 39.5q105 0 181 -32.5t118 -91.5t61 -130.5t19 -160.5q0 -28 -4 -86h-737q0 -238 90 -350.5t276 -112.5q77 0 136.5 17.5t94 44t56.5 63.5t30 70.5t9 70.5h43q2 -10 2 -25q0 -135 -106 -211.5t-269 -76.5q-116 0 -199 36.5 t-130.5 105.5t-69 157.5t-21.5 203.5zM164 541h686q0 70 -8 126t-30 110t-57.5 89.5t-94.5 57.5t-138 22q-94 0 -163.5 -33t-110 -91.5t-60.5 -127.5t-24 -153zM303 1227q0 20 13.5 34.5t33.5 14.5t34.5 -14.5t14.5 -34.5t-14.5 -33.5t-34.5 -13.5t-33.5 13.5t-13.5 33.5z M616 1227q0 20 14 34.5t34 14.5t34.5 -14.5t14.5 -34.5t-14.5 -33.5t-34.5 -13.5t-34 13.5t-14 33.5z" />
<glyph unicode="&#x452;" horiz-adv-x="1079" d="M41 1196v45h100v213h56v-213h571v-45h-571v-209q0 -121 -13 -207l13 -4q51 97 144 150t214 53q422 0 422 -606q0 -73 -10.5 -140.5t-37 -133.5t-66.5 -115t-103.5 -79t-143.5 -30q-27 0 -41 2v41q184 3 265.5 122.5t81.5 338.5q0 156 -23 251q-66 268 -295 297 q-27 3 -55 3q-88 0 -157 -32t-111 -87t-63 -123t-21 -145v-543h-56v1196h-100z" />
<glyph unicode="&#x453;" horiz-adv-x="827" d="M123 0v979h684v-51h-629v-928h-55zM356 1169l209 269l66 -49l-248 -240z" />
<glyph unicode="&#x454;" horiz-adv-x="966" d="M102 479q0 85 13 158.5t44.5 140.5t79.5 114t122.5 75t170.5 28q152 0 248.5 -67t96.5 -197q0 -9 -3 -24h-43q-1 45 -16.5 85t-49 76.5t-94.5 58t-143 21.5q-171 0 -262 -110t-104 -295h483v-49h-485q0 -131 24.5 -221.5t73.5 -143t115 -75.5t157 -23q73 0 130.5 17.5 t92 44t57 63t31 71t9.5 70.5h43q2 -10 2 -25q0 -136 -103.5 -212t-265.5 -76q-224 0 -324 120.5t-100 374.5z" />
<glyph unicode="&#x455;" horiz-adv-x="935" d="M92 272q0 15 2 25h43q1 -51 16 -94.5t49 -84t99 -64t156 -23.5q86 0 151.5 19.5t102 52.5t54 70.5t17.5 78.5q0 104 -76 158t-233 73q-60 7 -105 15.5t-94 26.5t-80.5 43.5t-52 66.5t-20.5 94q0 55 19.5 101.5t59.5 84t109 59t160 21.5q68 0 127 -15t107.5 -44.5 t77 -79.5t28.5 -115q0 -14 -2 -24h-43q-1 45 -16 83.5t-47 73t-92 54.5t-142 20q-140 0 -214.5 -59.5t-74.5 -147.5q0 -39 9 -69t31.5 -51t46 -34.5t68 -24.5t79.5 -17t98 -15q72 -10 127 -27.5t102.5 -48t73 -79t25.5 -113.5q0 -55 -21 -103t-64 -88.5t-118 -63.5t-174 -23 q-166 0 -267.5 72t-101.5 216z" />
<glyph unicode="&#x456;" horiz-adv-x="430" d="M164 1331q0 22 14.5 36.5t36.5 14.5t36.5 -14.5t14.5 -36.5t-14.5 -36.5t-36.5 -14.5t-36.5 14.5t-14.5 36.5zM188 0v979h56v-979h-56z" />
<glyph unicode="&#x457;" horiz-adv-x="448" d="M0 1212q0 21 13.5 35.5t33.5 14.5t34.5 -15t14.5 -35t-14.5 -33.5t-34.5 -13.5t-33.5 13.5t-13.5 33.5zM188 0v979h56v-979h-56zM313 1212q0 21 13.5 35.5t33.5 14.5t35 -15t15 -35t-14.5 -33.5t-35.5 -13.5q-20 0 -33.5 13.5t-13.5 33.5z" />
<glyph unicode="&#x458;" horiz-adv-x="430" d="M29 -354h47q68 0 92.5 41t24.5 135v1157h53v-1159q0 -115 -37 -168t-135 -53h-45v47zM168 1331q0 22 14.5 36.5t36.5 14.5t36.5 -14.5t14.5 -36.5t-14.5 -36.5t-36.5 -14.5t-36.5 14.5t-14.5 36.5z" />
<glyph unicode="&#x459;" horiz-adv-x="1583" d="M16 -20v47q40 3 67.5 14.5t50 42t36 71t24.5 116.5t18 162t15 222l19 324h532v-391h389q96 0 164.5 -26.5t103.5 -71.5t50.5 -93t15.5 -102q0 -133 -86 -214t-248 -81h-446l-2 928h-422l-21 -367q-8 -141 -18.5 -234.5t-28 -164t-45 -108.5t-65 -56t-92.5 -18h-11z M776 51h381q135 0 210 62.5t75 179.5q0 55 -16 98t-42 69.5t-63 44t-76.5 24t-85.5 6.5h-383v-484z" />
<glyph unicode="&#x45a;" horiz-adv-x="1564" d="M123 0v981h59v-414h535v412h57v-412h379q96 0 164 -25t102.5 -68t49 -89t14.5 -100q0 -132 -83.5 -208.5t-246.5 -76.5h-436v512h-535v-512h-59zM772 51h371q129 0 204.5 58.5t75.5 173.5q0 229 -278 229h-373v-461z" />
<glyph unicode="&#x45b;" horiz-adv-x="1036" d="M25 1194v49h98v211h55v-211h533v-49h-533v-211q0 -124 -6 -192h8q46 97 140.5 150.5t224.5 53.5q94 0 163 -23.5t108.5 -61.5t63 -97.5t31 -118.5t7.5 -137v-557h-58v557q0 69 -5 117.5t-24 103.5t-52.5 88.5t-94 55.5t-145.5 22q-91 0 -162 -32t-113.5 -86.5t-64 -122 t-21.5 -144.5v-559h-55v1194h-98z" />
<glyph unicode="&#x45c;" horiz-adv-x="882" d="M123 0v979h55v-420h248l350 420h66l-369 -447l389 -532h-69l-367 506h-248v-506h-55zM367 1143l208 268l66 -49l-248 -240z" />
<glyph unicode="&#x45e;" horiz-adv-x="837" d="M14 977h60l157 -414q138 -365 187 -508h14q18 63 44 140t64 184t54 153l154 445h59l-369 -1086q-41 -124 -57 -157q-49 -99 -142 -124q-40 -11 -89 -11h-109v49h102q87 0 132.5 37.5t78.5 130.5l62 180l-37 -4q-24 74 -52.5 151.5t-62 163.5t-49.5 129zM158 1346h51 q-1 -33 11 -68t36.5 -69.5t71.5 -56.5t108 -22q59 0 105 23t71.5 58t38.5 70t13 65h47q-1 -44 -17.5 -89.5t-48.5 -87t-87 -68t-124 -26.5q-70 0 -125.5 26.5t-87 68.5t-47.5 87.5t-16 88.5z" />
<glyph unicode="&#x45f;" horiz-adv-x="1058" d="M123 0v981h57v-934h699v934h57v-981h-363v-309h-53v309h-397z" />
<glyph unicode="&#x490;" horiz-adv-x="1013" d="M133 0v1380h809v238h51v-291h-807v-1327h-53z" />
<glyph unicode="&#x491;" horiz-adv-x="825" d="M123 0v979h631v233h51v-284h-627v-928h-55z" />
<glyph unicode="&#x4d9;" horiz-adv-x="1038" d="M127 399q0 28 4 86h737q0 239 -86.5 351t-271.5 112q-83 0 -149.5 -24t-105 -64t-58.5 -85.5t-21 -92.5h-43q-2 10 -2 25q0 135 108 211.5t271 76.5q116 0 198.5 -36.5t129 -105.5t67.5 -157t21 -204q0 -109 -23 -198t-71 -160t-131 -110.5t-195 -39.5q-105 0 -181 32.5 t-118 91.5t-61 130.5t-19 160.5zM178 438q0 -70 8 -126t30 -110t57.5 -89.5t94.5 -57.5t138 -22q94 0 163.5 33t110 91.5t60.5 127.5t24 153h-686z" />
<glyph unicode="&#x2000;" horiz-adv-x="934" />
<glyph unicode="&#x2001;" horiz-adv-x="1868" />
<glyph unicode="&#x2002;" horiz-adv-x="934" />
<glyph unicode="&#x2003;" horiz-adv-x="1868" />
<glyph unicode="&#x2004;" horiz-adv-x="622" />
<glyph unicode="&#x2005;" horiz-adv-x="467" />
<glyph unicode="&#x2006;" horiz-adv-x="311" />
<glyph unicode="&#x2007;" horiz-adv-x="311" />
<glyph unicode="&#x2008;" horiz-adv-x="233" />
<glyph unicode="&#x2009;" horiz-adv-x="373" />
<glyph unicode="&#x200a;" horiz-adv-x="103" />
<glyph unicode="&#x2010;" horiz-adv-x="917" d="M211 477v68h496v-68h-496z" />
<glyph unicode="&#x2011;" horiz-adv-x="917" d="M211 477v68h496v-68h-496z" />
<glyph unicode="&#x2012;" horiz-adv-x="917" d="M211 477v68h496v-68h-496z" />
<glyph unicode="&#x2013;" horiz-adv-x="1024" d="M53 492v51h926v-51h-926z" />
<glyph unicode="&#x2014;" horiz-adv-x="2048" d="M37 492v51h1984v-51h-1984z" />
<glyph unicode="&#x2018;" horiz-adv-x="399" d="M123 1190q0 20 10 43l119 252l24 -8l-73 -215q27 -3 45 -23t18 -47q0 -31 -20 -52.5t-49 -21.5q-32 0 -53 19.5t-21 52.5z" />
<glyph unicode="&#x2019;" horiz-adv-x="399" d="M123 1116l74 215q-27 3 -45.5 23t-18.5 47q0 31 20.5 52.5t49.5 21.5q32 0 52.5 -19.5t20.5 -52.5q0 -21 -10 -43l-119 -252z" />
<glyph unicode="&#x201a;" horiz-adv-x="385" d="M96 -258l88 246q-27 3 -45 22.5t-18 46.5q0 31 20 52.5t49 21.5q32 0 53 -19.5t21 -52.5q0 -21 -10 -43l-133 -282z" />
<glyph unicode="&#x201c;" horiz-adv-x="598" d="M123 1190q0 20 10 43l119 252l24 -8l-73 -215q27 -3 45 -23t18 -47q0 -31 -20 -52.5t-49 -21.5q-32 0 -53 19.5t-21 52.5zM322 1190q0 20 10 43l119 252l24 -8l-74 -215q27 -3 45.5 -23t18.5 -47q0 -31 -20.5 -52.5t-49.5 -21.5q-32 0 -52.5 19.5t-20.5 52.5z" />
<glyph unicode="&#x201d;" horiz-adv-x="598" d="M123 1116l74 215q-27 3 -45.5 23t-18.5 47q0 31 20.5 52.5t49.5 21.5q32 0 52.5 -19.5t20.5 -52.5q0 -21 -10 -43l-119 -252zM322 1116l73 215q-27 3 -45 23t-18 47q0 31 20 52.5t49 21.5q32 0 53 -19.5t21 -52.5q0 -21 -10 -43l-119 -252z" />
<glyph unicode="&#x201e;" horiz-adv-x="589" d="M96 -258l88 246q-27 3 -45 22.5t-18 46.5q0 31 20 52.5t49 21.5q32 0 53 -19.5t21 -52.5q0 -21 -10 -43l-133 -282zM295 -258l88 246q-27 3 -45.5 22.5t-18.5 46.5q0 31 20.5 52.5t49.5 21.5q32 0 53 -19.5t21 -52.5q0 -21 -10 -43l-134 -282z" />
<glyph unicode="&#x2026;" horiz-adv-x="1275" d="M121 57q0 31 20 52.5t49 21.5q31 0 52.5 -21.5t21.5 -52.5q0 -29 -21.5 -49t-52.5 -20q-29 0 -49 20t-20 49zM567 57q0 31 20.5 52.5t49.5 21.5q31 0 52.5 -21.5t21.5 -52.5q0 -29 -21.5 -49t-52.5 -20q-29 0 -49.5 20t-20.5 49zM1016 57q0 31 20 52.5t49 21.5 q31 0 52.5 -21.5t21.5 -52.5q0 -29 -21.5 -49t-52.5 -20q-29 0 -49 20t-20 49z" />
<glyph unicode="&#x202f;" horiz-adv-x="373" />
<glyph unicode="&#x2030;" horiz-adv-x="2322" d="M86 977q0 194 80.5 303t255.5 109q93 0 160 -33t103.5 -92.5t52.5 -129t16 -155.5q0 -63 -10 -118.5t-34 -107t-61 -88.5t-95 -59t-132 -22q-76 0 -134 19t-96 52.5t-62 83.5t-34 108t-10 130zM139 977q0 -346 281 -346q129 0 203.5 87.5t74.5 260.5q0 169 -67 264.5 t-211 95.5q-150 0 -215.5 -94.5t-65.5 -267.5zM334 -61l854 1501h57l-854 -1501h-57zM866 383q0 194 80.5 303t255.5 109q93 0 160 -33t103.5 -92.5t52.5 -129t16 -155.5q0 -63 -10 -118.5t-34 -107t-61 -88.5t-95 -59t-132 -22q-76 0 -134 19t-96 52.5t-62 83.5t-34 108 t-10 130zM920 383q0 -346 280 -346q129 0 204 87.5t75 260.5q0 169 -67.5 264.5t-211.5 95.5q-150 0 -215 -94.5t-65 -267.5zM1589 383q0 194 80.5 303t255.5 109q93 0 160 -33t103.5 -92.5t52.5 -129t16 -155.5q0 -63 -10 -118.5t-34 -107t-61 -88.5t-95 -59t-132 -22 q-76 0 -134 19t-96 52.5t-62 83.5t-34 108t-10 130zM1642 383q0 -346 281 -346q129 0 204 87.5t75 260.5q0 169 -67.5 264.5t-211.5 95.5q-150 0 -215.5 -94.5t-65.5 -267.5z" />
<glyph unicode="&#x2039;" horiz-adv-x="614" d="M133 440v29l305 387l27 -18l-264 -383l284 -375l-28 -21z" />
<glyph unicode="&#x203a;" horiz-adv-x="614" d="M133 80l285 375l-264 383l26 18l305 -387v-29l-323 -381z" />
<glyph unicode="&#x2044;" horiz-adv-x="319" d="M-281 -61l854 1501h58l-854 -1501h-58z" />
<glyph unicode="&#x205f;" horiz-adv-x="467" />
<glyph unicode="&#x2070;" horiz-adv-x="761" d="M43 1161q0 194 80.5 303t255.5 109q93 0 160 -33t103.5 -92.5t52.5 -129t16 -155.5q0 -63 -10 -118.5t-34 -107t-61 -88.5t-95 -59t-132 -22q-76 0 -134 19t-96 52.5t-62 83.5t-34 108t-10 130zM96 1161q0 -346 281 -346q129 0 203.5 87.5t74.5 260.5q0 169 -67 265 t-211 96q-150 0 -215.5 -95t-65.5 -268z" />
<glyph unicode="&#x2074;" horiz-adv-x="761" d="M39 985v45l483 535h45v-531h148v-49h-148v-207h-55v207h-473zM113 1034h399v443z" />
<glyph unicode="&#x2075;" horiz-adv-x="761" d="M68 973q0 12 4 24h45q2 -76 59.5 -128t181.5 -52q126 0 196.5 56.5t70.5 146.5q0 107 -75.5 160t-189.5 53q-98 0 -196 -29l-45 17l59 344h449v-49h-404l-41 -254q92 18 176 18q65 0 120.5 -14t101.5 -43t72 -80t26 -119q0 -115 -85 -185.5t-233 -70.5q-128 0 -210 52.5 t-82 152.5z" />
<glyph unicode="&#x2076;" horiz-adv-x="761" d="M78 1126q0 72 8.5 133t30.5 121.5t57.5 102.5t93.5 68t133 26q105 0 176.5 -48t71.5 -132v-25h-47q-2 65 -50 111.5t-151 46.5q-60 0 -106.5 -20.5t-76.5 -55t-50 -85t-29 -104.5t-12 -120l10 -6q37 59 104 96t152 37q132 0 209.5 -64t77.5 -180q0 -117 -76.5 -188.5 t-220.5 -71.5q-165 0 -235 82.5t-70 275.5zM145 1010q0 -54 20.5 -93.5t56 -60.5t76.5 -31t89 -10q102 0 172 52.5t70 156.5q0 91 -59.5 146t-178.5 55q-99 0 -172.5 -65t-73.5 -150z" />
<glyph unicode="&#x2077;" horiz-adv-x="761" d="M82 1516v47h590v-37l-414 -748h-57l407 738h-526z" />
<glyph unicode="&#x2078;" horiz-adv-x="761" d="M72 983q0 57 41.5 114.5t140.5 96.5l-2 14q-39 13 -67 31t-42 35t-22.5 38t-10 35t-1.5 31q0 75 70 135t196 60q140 0 205 -58.5t65 -136.5q0 -46 -34.5 -94t-114.5 -78l2 -8q55 -17 94 -45.5t56.5 -60.5t24.5 -57t7 -48q0 -92 -80 -155.5t-225 -63.5q-141 0 -222 57.5 t-81 157.5zM125 981q0 -82 72 -124t178 -42q103 0 178.5 42.5t75.5 125.5q0 75 -67.5 129t-180.5 64q-115 -18 -185.5 -70.5t-70.5 -124.5zM162 1378q0 -59 54 -94.5t161 -62.5q94 19 154.5 62.5t60.5 94.5q0 69 -62 107.5t-155 38.5q-90 0 -151.5 -39.5t-61.5 -106.5z" />
<glyph unicode="&#x2079;" horiz-adv-x="761" d="M84 1319q0 119 76 188.5t219 69.5q295 0 295 -358q0 -79 -7 -140t-28 -121.5t-56.5 -100.5t-95.5 -64.5t-141 -24.5q-104 0 -175 48.5t-71 133.5v25h50q0 -62 47.5 -110t150.5 -48q65 0 112.5 19t77.5 51t49 83.5t27 105.5t11 128h-11q-35 -59 -99 -95t-142 -36 q-138 0 -213.5 63.5t-75.5 182.5zM137 1321q0 -93 57 -147t181 -54q97 0 163 64.5t66 150.5q0 49 -19.5 87.5t-52 61t-72 34.5t-81.5 12q-48 0 -88.5 -10.5t-76.5 -33.5t-56.5 -65t-20.5 -100z" />
<glyph unicode="&#x207a;" horiz-adv-x="761" d="M129 1090v43h229v213h43v-213h230v-43h-230v-203h-43v203h-229z" />
<glyph unicode="&#x207b;" horiz-adv-x="598" d="M131 1061v51h334v-51h-334z" />
<glyph unicode="&#x207c;" horiz-adv-x="761" d="M129 999v39h502v-39h-502zM129 1182v39h502v-39h-502z" />
<glyph unicode="&#x207d;" horiz-adv-x="342" d="M41 1139q0 149 60.5 278t164.5 228l35 -21q-209 -229 -209 -479q0 -244 205 -479l-31 -27q-102 99 -163.5 228t-61.5 272z" />
<glyph unicode="&#x207e;" horiz-adv-x="317" d="M29 1624l30 21q106 -99 168 -228.5t62 -277.5q0 -143 -63 -272t-167 -228l-28 27q207 237 207 479q0 250 -209 479z" />
<glyph unicode="&#x207f;" horiz-adv-x="714" d="M78 594v649h43q10 -29 10 -113h8q82 117 228 117q67 0 116.5 -17t78 -43.5t45 -66.5t21.5 -77t5 -85v-364h-53v364q0 39 -3.5 68.5t-16.5 63.5t-36 56t-64 37t-98 15q-112 0 -171.5 -70t-59.5 -170v-364h-53z" />
<glyph unicode="&#x2080;" horiz-adv-x="761" d="M43 199q0 411 336 411q93 0 160 -33t103.5 -92t52.5 -128.5t16 -155.5q0 -80 -17 -147.5t-53.5 -125t-103 -90.5t-158.5 -33q-94 0 -161 28.5t-104.5 82.5t-54 123t-16.5 160zM96 199q0 -346 281 -346q129 0 203.5 87.5t74.5 260.5q0 169 -67 264.5t-211 95.5 q-150 0 -215.5 -94.5t-65.5 -267.5z" />
<glyph unicode="&#x2081;" horiz-adv-x="761" d="M111 -137h239v678l-211 -35v41l219 53h48v-737h241v-47h-536v47z" />
<glyph unicode="&#x2082;" horiz-adv-x="761" d="M66 -137q0 44 15 81t30.5 61t64 59t76 51.5t106.5 61.5q4 3 6.5 4t6 3t6.5 4q55 31 86 51.5t65.5 49.5t50 59.5t15.5 65.5q0 71 -52.5 111t-162.5 40q-127 0 -186.5 -55t-59.5 -131h-45q-4 16 -4 27q0 100 83 153t210 55q142 0 210 -55.5t68 -142.5q0 -45 -20 -84.5 t-58.5 -72.5t-74.5 -56t-86 -49q-54 -29 -78.5 -42.5t-63.5 -36.5t-56 -37t-40 -35.5t-32 -40.5t-16 -44t-7 -53h549v-49h-606v47z" />
<glyph unicode="&#x2083;" horiz-adv-x="761" d="M61 10v25h50q2 -76 58.5 -128t182.5 -52q128 0 198.5 53.5t70.5 146.5q0 99 -69 146t-210 47q-28 0 -53 -4l-29 39l309 260l-2 10h-463v49h562v-45l-314 -260h10q149 0 231.5 -60t82.5 -176t-87 -186t-235 -70q-128 0 -210.5 52.5t-82.5 152.5z" />
<glyph unicode="&#x2084;" horiz-adv-x="761" d="M39 23v45l483 534h45v-530h148v-49h-148v-207h-55v207h-473zM113 72h399v442z" />
<glyph unicode="&#x2085;" horiz-adv-x="761" d="M68 10q0 13 4 25h45q2 -76 59.5 -128t181.5 -52q126 0 196.5 56t70.5 146q0 107 -75.5 160t-189.5 53q-101 0 -196 -28l-45 16l59 344h449v-49h-404l-41 -254q92 18 176 18q65 0 120.5 -14t101.5 -43t72 -80t26 -119q0 -115 -85 -185.5t-233 -70.5q-128 0 -210 52.5 t-82 152.5z" />
<glyph unicode="&#x2086;" horiz-adv-x="761" d="M78 164q0 72 8.5 133t30.5 121t57.5 102t93.5 68t133 26q105 0 176.5 -48t71.5 -132v-24h-47q-2 65 -50 111t-151 46q-60 0 -106.5 -20.5t-76.5 -55t-50 -85t-29 -104.5t-12 -120l10 -6q37 59 104 96t152 37q132 0 209.5 -64t77.5 -179q0 -117 -76.5 -189t-220.5 -72 q-165 0 -235 83t-70 276zM145 47q0 -54 20.5 -93t56 -60.5t76.5 -31t89 -9.5q66 0 119 20.5t88 69t35 118.5q0 91 -59.5 146t-178.5 55q-99 0 -172.5 -65t-73.5 -150z" />
<glyph unicode="&#x2087;" horiz-adv-x="761" d="M82 551v47h590v-37l-414 -745h-57l407 735h-526z" />
<glyph unicode="&#x2088;" horiz-adv-x="761" d="M72 20q0 57 41.5 114.5t140.5 96.5l-2 15q-39 13 -67 31t-42 35t-22.5 38t-10 35t-1.5 31q0 74 69.5 134t196.5 60q140 0 205 -58t65 -136q0 -46 -34.5 -94t-114.5 -78l2 -8q55 -17 94 -45.5t56.5 -60.5t24.5 -57t7 -48q0 -92 -80 -156t-225 -64q-141 0 -222 57.5 t-81 157.5zM125 18q0 -82 72 -123.5t178 -41.5q65 0 120.5 16t94.5 55.5t39 95.5q0 75 -67.5 129t-180.5 64q-115 -18 -185.5 -70.5t-70.5 -124.5zM162 416q0 -59 54 -95t161 -63q94 19 154.5 63t60.5 95q0 69 -62 107t-155 38q-90 0 -151.5 -39t-61.5 -106z" />
<glyph unicode="&#x2089;" horiz-adv-x="761" d="M84 356q0 119 76 188.5t219 69.5q295 0 295 -358q0 -79 -7 -140t-28 -121.5t-56.5 -100.5t-95.5 -64.5t-141 -24.5q-104 0 -175 49t-71 134v24h50q0 -62 47.5 -109.5t150.5 -47.5q65 0 112.5 19t77.5 51t49 83.5t27 105.5t11 128h-11q-35 -59 -99 -95t-142 -36 q-138 0 -213.5 63t-75.5 182zM137 358q0 -92 57 -146t181 -54q97 0 163 64.5t66 150.5q0 94 -67 144t-158 50q-48 0 -88.5 -10.5t-76.5 -33.5t-56.5 -65t-20.5 -100z" />
<glyph unicode="&#x208a;" horiz-adv-x="761" d="M129 125v43h229v213h43v-213h230v-43h-230v-203h-43v203h-229z" />
<glyph unicode="&#x208b;" horiz-adv-x="598" d="M131 96v51h334v-51h-334z" />
<glyph unicode="&#x208c;" horiz-adv-x="761" d="M129 35v39h502v-39h-502zM129 217v39h502v-39h-502z" />
<glyph unicode="&#x208d;" horiz-adv-x="342" d="M41 260q0 149 60.5 278t164.5 228l35 -21q-209 -229 -209 -479q0 -244 205 -479l-31 -27q-102 99 -163.5 228t-61.5 272z" />
<glyph unicode="&#x208e;" horiz-adv-x="317" d="M29 745l30 21q106 -99 168 -228.5t62 -277.5q0 -143 -63 -272t-167 -228l-28 27q207 237 207 479q0 250 -209 479z" />
<glyph unicode="&#x20ac;" horiz-adv-x="1171" d="M43 754v45h113q6 121 41 219.5t98.5 171.5t160.5 113t220 40q117 0 210.5 -35t152.5 -110.5t59 -181.5q0 -17 -2 -27h-45q-1 58 -21 109t-62.5 96t-119.5 71.5t-180 26.5q-212 0 -327.5 -130.5t-129.5 -362.5h727v-45h-895zM45 586v47h897v-47h-737q9 -549 461 -549 q91 0 163.5 20.5t118 53.5t75.5 77.5t42.5 90t13.5 94.5h43q2 -14 2 -31q0 -160 -127.5 -257t-328.5 -97q-138 0 -238 41t-160 121t-89 187t-31 249h-105z" />
<glyph unicode="&#x2105;" horiz-adv-x="1445" d="M96 1028q0 71 16 133t49.5 115.5t94 85t141.5 31.5q101 0 172.5 -48.5t71.5 -142.5v-26h-45q-1 32 -10 59t-30 52.5t-62 40.5t-99 15q-122 0 -182.5 -84.5t-60.5 -228.5q0 -163 62 -231t183 -68q65 0 109.5 17t65 46t28.5 57t8 60h43q4 -12 4 -22q0 -98 -73 -152.5 t-189 -54.5q-156 0 -226.5 87t-70.5 259zM248 -61l854 1501h53l-854 -1501h-53zM741 332q0 80 17.5 145.5t53.5 116.5t97.5 79.5t143.5 28.5q71 0 125.5 -21t88 -55.5t55.5 -83t30 -98t8 -106.5q0 -69 -15 -128.5t-48 -112t-95.5 -83t-148.5 -30.5q-168 0 -240 91.5 t-72 256.5zM799 332q0 -151 60 -226t194 -75q121 0 187.5 78.5t66.5 228.5q0 68 -13.5 123.5t-42 100t-79 69t-119.5 24.5q-67 0 -117.5 -25.5t-79.5 -71t-43 -102t-14 -124.5z" />
<glyph unicode="&#x2116;" horiz-adv-x="1853" d="M125 0v1380h57l768 -1253h8v1253h56v-1380h-53l-771 1253h-10v-1253h-55zM1163 1055q0 73 15.5 132t49 107t93 74.5t141.5 26.5q291 0 291 -340q0 -64 -14.5 -119.5t-46 -104.5t-90.5 -77.5t-140 -28.5q-155 0 -227 90t-72 240zM1198 553v53h518v-53h-518zM1221 1055 q0 -281 241 -281q112 0 173 70t61 211q0 142 -54 217.5t-180 75.5q-131 0 -186 -75t-55 -218z" />
<glyph unicode="&#x2122;" horiz-adv-x="1394" d="M70 1335v47h510v-47h-232v-702h-49v702h-229zM647 633v749h47l264 -477h9l266 477h39v-749h-43v629l-8 2l-240 -428h-39l-242 432l-6 -2v-633h-47z" />
<glyph unicode="&#x2153;" horiz-adv-x="1597" d="M109 594v47h239v678l-211 -35v41l219 53h47v-737h242v-47h-536zM340 -61l854 1501h57l-854 -1501h-57zM913 195v24h50q2 -76 58.5 -128t182.5 -52q128 0 198.5 54t70.5 147q0 99 -69 145.5t-210 46.5q-28 0 -53 -4l-29 39l309 260l-2 10h-463v49h562v-45l-314 -260h10 q149 0 231.5 -59.5t82.5 -175.5t-87 -186t-235 -70q-128 0 -210.5 52.5t-82.5 152.5z" />
<glyph unicode="&#x2154;" horiz-adv-x="1597" d="M51 594v47q0 37 7.5 67.5t27.5 58t39 47.5t60 47t71.5 45t89.5 52q11 6 16 9q56 32 86 51.5t65.5 48.5t51 59.5t15.5 65.5q0 71 -52.5 111t-162.5 40q-127 0 -186.5 -55t-59.5 -131h-45q-4 16 -4 27q0 100 82.5 153.5t209.5 55.5q142 0 210.5 -56t68.5 -143 q0 -45 -20 -84.5t-59 -72.5t-74.5 -56t-86.5 -49q-53 -28 -78.5 -42t-64 -37t-55.5 -37t-39.5 -35.5t-31.5 -40.5t-16 -44t-7 -53h548v-49h-606zM360 -61l854 1501h58l-854 -1501h-58zM922 195v24h49q2 -76 58.5 -128t182.5 -52q128 0 198.5 54t70.5 147q0 99 -69 145.5 t-210 46.5q-28 0 -53 -4l-29 39l310 260l-3 10h-462v49h561v-45l-314 -260h11q149 0 231 -59.5t82 -175.5t-87 -186t-235 -70q-128 0 -210 52.5t-82 152.5z" />
<glyph unicode="&#x2155;" horiz-adv-x="1597" d="M98 594v47h240v678l-211 -35v41l219 53h47v-737h242v-47h-537zM342 -61l854 1501h57l-854 -1501h-57zM913 195q0 9 5 24h45q2 -76 59.5 -128t181.5 -52q126 0 196 56.5t70 146.5q0 107 -75 160t-189 53q-98 0 -196 -29l-45 16l59 344h449v-49h-404l-41 -254q97 19 176 19 q65 0 120.5 -14t101.5 -43t72 -80t26 -119q0 -115 -85 -185.5t-233 -70.5q-128 0 -210.5 52.5t-82.5 152.5z" />
<glyph unicode="&#x2156;" horiz-adv-x="1597" d="M61 594v47q0 37 8 67.5t26.5 57t40 48.5t58.5 46.5t72 45.5t89 51q4 2 6 3.5t5.5 3t6.5 3.5q56 32 86 51.5t65 48.5t50.5 59.5t15.5 65.5q0 71 -52.5 111t-162.5 40q-127 0 -186.5 -55t-59.5 -131h-45q-4 16 -4 27q0 100 83 153.5t210 55.5q142 0 210 -56t68 -143 q0 -45 -20 -84.5t-58.5 -72.5t-74.5 -56t-86 -49q-54 -29 -78.5 -42.5t-63.5 -36.5t-56 -37t-40 -35.5t-32 -40.5t-16 -44t-7 -53h549v-49h-607zM379 -61l854 1501h57l-854 -1501h-57zM944 195q0 12 4 24h45q2 -76 60 -128t182 -52q126 0 196 56.5t70 146.5q0 107 -75 160 t-189 53q-99 0 -197 -29l-45 16l60 344h448v-49h-403l-41 -254q97 19 176 19q65 0 120.5 -14t101 -43t71.5 -80t26 -119q0 -115 -84.5 -185.5t-232.5 -70.5q-128 0 -210.5 52.5t-82.5 152.5z" />
<glyph unicode="&#x2157;" horiz-adv-x="1597" d="M49 788v25h49q2 -76 59 -128t183 -52q128 0 198 54t70 147q0 99 -68.5 145.5t-209.5 46.5q-29 0 -54 -4l-28 39l309 260l-2 10h-463v49h561v-45l-313 -260h10q149 0 231.5 -59.5t82.5 -175.5t-87 -186t-235 -70q-129 0 -211 52t-82 152zM348 -61l854 1501h58l-854 -1501 h-58zM930 195q0 12 4 24h45q2 -76 60 -128t182 -52q126 0 196 56.5t70 146.5q0 107 -75 160t-189 53q-99 0 -197 -29l-45 16l59 344h449v-49h-404l-41 -254q97 19 177 19q65 0 120.5 -14t101 -43t71.5 -80t26 -119q0 -115 -84.5 -185.5t-232.5 -70.5q-128 0 -210.5 52.5 t-82.5 152.5z" />
<glyph unicode="&#x2158;" horiz-adv-x="1597" d="M43 801v45l483 534h45v-530h148v-49h-148v-207h-55v207h-473zM117 850h399v442zM365 -61l854 1501h57l-854 -1501h-57zM954 195q0 12 4 24h46q2 -76 59.5 -128t181.5 -52q126 0 196 56.5t70 146.5q0 107 -75 160t-189 53q-98 0 -196 -29l-45 16l59 344h448v-49h-403 l-41 -254q97 19 176 19q65 0 120.5 -14t101.5 -43t72 -80t26 -119q0 -115 -85 -185.5t-233 -70.5q-128 0 -210.5 52.5t-82.5 152.5z" />
<glyph unicode="&#x2159;" horiz-adv-x="1597" d="M90 594v47h240v678l-211 -35v41l219 53h47v-737h242v-47h-537zM358 -61l854 1501h58l-854 -1501h-58zM930 348q0 72 8.5 133t30.5 121.5t57.5 102.5t93.5 68t133 26q105 0 176.5 -48.5t71.5 -132.5v-24h-47q-2 65 -50 111.5t-151 46.5q-60 0 -106.5 -20.5t-76.5 -55 t-50 -85t-29 -104.5t-12 -120l10 -7q38 59 104.5 96.5t151.5 37.5q132 0 209.5 -64t77.5 -180q0 -117 -76.5 -188.5t-220.5 -71.5q-165 0 -235 82.5t-70 275.5zM997 231q0 -54 20.5 -93t56 -60.5t76.5 -31t89 -9.5q102 0 172 52.5t70 156.5q0 91 -59.5 145.5t-178.5 54.5 q-99 0 -172.5 -65t-73.5 -150z" />
<glyph unicode="&#x215a;" horiz-adv-x="1597" d="M68 788q0 13 4 25h45q2 -76 59.5 -128t181.5 -52q126 0 196.5 56.5t70.5 146.5q0 107 -75.5 160t-189.5 53q-98 0 -196 -29l-45 16l59 344h449v-49h-404l-41 -254q97 19 176 19q65 0 120.5 -14t101.5 -43t72 -80t26 -119q0 -115 -85 -185.5t-233 -70.5q-129 0 -210.5 52 t-81.5 152zM360 -61l854 1501h58l-854 -1501h-58zM934 348q0 72 8.5 133t30.5 121.5t57.5 102.5t93.5 68t133 26q105 0 176.5 -48.5t71.5 -132.5v-24h-47q-2 65 -50 111.5t-151 46.5q-60 0 -106.5 -20.5t-76.5 -55t-50 -85t-29 -104.5t-12 -120l10 -7q38 59 104.5 96.5 t151.5 37.5q132 0 209.5 -64t77.5 -180q0 -117 -76.5 -188.5t-220.5 -71.5q-165 0 -235 82.5t-70 275.5zM1001 231q0 -54 20.5 -93t56 -60.5t76.5 -31t89 -9.5q102 0 172 52.5t70 156.5q0 91 -59.5 145.5t-178.5 54.5q-99 0 -172.5 -65t-73.5 -150z" />
<glyph unicode="&#x215b;" horiz-adv-x="1597" d="M76 594v47h239v678l-211 -35v41l220 53h47v-737h241v-47h-536zM346 -61l854 1501h57l-854 -1501h-57zM926 205q0 57 41.5 114.5t140.5 96.5l-2 14q-39 13 -67 31t-42 35t-22.5 38t-10 35t-1.5 31q0 75 70 135t196 60q140 0 205 -58.5t65 -136.5q0 -46 -34.5 -94 t-114.5 -78l2 -8q55 -17 94 -45.5t56.5 -60.5t24.5 -57t7 -48q0 -92 -80 -155.5t-225 -63.5q-141 0 -222 57.5t-81 157.5zM979 203q0 -82 72 -124t178 -42q103 0 178.5 42.5t75.5 125.5q0 75 -67 128.5t-181 63.5q-115 -18 -185.5 -70t-70.5 -124zM1016 600q0 -59 54 -95 t161 -63q94 19 154.5 63t60.5 95q0 69 -62 107t-155 38q-90 0 -151.5 -39t-61.5 -106z" />
<glyph unicode="&#x215c;" horiz-adv-x="1597" d="M63 788v25h50q2 -76 58.5 -128t182.5 -52q128 0 198.5 54t70.5 147q0 99 -69 145.5t-210 46.5q-28 0 -53 -4l-29 39l309 260l-2 10h-463v49h562v-45l-314 -260h11q149 0 231 -59.5t82 -175.5t-87 -186t-235 -70q-129 0 -211 52t-82 152zM371 -61l854 1501h57l-854 -1501 h-57zM938 205q0 57 41.5 114.5t140.5 96.5l-2 14q-39 13 -67 31t-42 35t-22.5 38t-10 35t-1.5 31q0 75 70 135t196 60q140 0 205 -58.5t65 -136.5q0 -46 -34.5 -94t-114.5 -78l2 -8q55 -17 94 -45.5t56.5 -60.5t24.5 -57t7 -48q0 -92 -80 -155.5t-225 -63.5 q-141 0 -222 57.5t-81 157.5zM991 203q0 -82 72 -124t178 -42q103 0 178.5 42.5t75.5 125.5q0 75 -67 128.5t-181 63.5q-115 -18 -185.5 -70t-70.5 -124zM1028 600q0 -59 54 -95t161 -63q94 19 154.5 63t60.5 95q0 69 -62 107t-155 38q-90 0 -151.5 -39t-61.5 -106z" />
<glyph unicode="&#x215d;" horiz-adv-x="1597" d="M66 788q0 13 4 25h45q2 -76 59.5 -128t181.5 -52q126 0 196.5 56.5t70.5 146.5q0 107 -75.5 160t-189.5 53q-98 0 -196 -29l-45 16l59 344h449v-49h-404l-41 -254q97 19 176 19q65 0 120.5 -14t101.5 -43t72 -80t26 -119q0 -115 -85 -185.5t-233 -70.5q-129 0 -210.5 52 t-81.5 152zM348 -61l854 1501h58l-854 -1501h-58zM918 205q0 57 41.5 114.5t140.5 96.5l-2 14q-144 48 -144 170q0 75 70 135t197 60q140 0 205 -58.5t65 -136.5q0 -46 -35 -94t-115 -78l2 -8q55 -17 94.5 -46t57 -60.5t24.5 -56.5t7 -48q0 -92 -80 -155.5t-225 -63.5 q-141 0 -222 57.5t-81 157.5zM971 203q0 -82 72 -124t178 -42q103 0 178.5 42.5t75.5 125.5q0 75 -67 128.5t-181 63.5q-115 -18 -185.5 -70t-70.5 -124zM1008 600q0 -59 54 -95t161 -63q94 19 154.5 63t60.5 95q0 69 -62 107t-155 38q-90 0 -151.5 -39t-61.5 -106z" />
<glyph unicode="&#x215e;" horiz-adv-x="1597" d="M92 1331v47h590v-37l-414 -747h-57l407 737h-526zM252 -61l854 1501h57l-854 -1501h-57zM889 205q0 57 41.5 114.5t140.5 96.5l-2 14q-39 13 -67 31t-42 35t-22.5 38t-10 35t-1.5 31q0 75 70 135t196 60q140 0 205 -58.5t65 -136.5q0 -46 -34.5 -94t-114.5 -78l2 -8 q55 -17 94 -45.5t56.5 -60.5t24.5 -57t7 -48q0 -92 -80 -155.5t-225 -63.5q-141 0 -222 57.5t-81 157.5zM942 203q0 -82 72 -124t178 -42q103 0 178.5 42.5t75.5 125.5q0 75 -67 128.5t-181 63.5q-115 -18 -185.5 -70t-70.5 -124zM979 600q0 -59 54 -95t161 -63 q94 19 154.5 63t60.5 95q0 69 -62 107t-155 38q-90 0 -151.5 -39t-61.5 -106z" />
<glyph unicode="&#x2190;" horiz-adv-x="1630" d="M100 657l426 422l47 -43l-360 -354h1311v-55h-1311l360 -351l-47 -45z" />
<glyph unicode="&#x2191;" horiz-adv-x="993" d="M66 1001l426 426l421 -426l-43 -47l-354 361v-1311h-55v1311l-350 -361z" />
<glyph unicode="&#x2192;" horiz-adv-x="1630" d="M102 627v55h1311l-360 354l47 43l426 -422l-426 -426l-47 45l360 351h-1311z" />
<glyph unicode="&#x2193;" horiz-adv-x="993" d="M66 432l45 47l350 -360v1311h55v-1311l354 360l43 -47l-421 -426z" />
<glyph unicode="&#x2196;" horiz-adv-x="1720" d="M258 709v594h602v-60h-506l1186 -1169l-41 -41l-1184 1175v-501z" />
<glyph unicode="&#x2198;" horiz-adv-x="1720" d="M258 1270l41 41l1184 -1176v500h57v-596h-602v61h506z" />
<glyph unicode="&#x21a9;" horiz-adv-x="1720" d="M129 655l420 422l43 -41l-354 -352h1081q132 0 193 74t61 198v172q0 242 -254 242h-121v57h131q160 0 232.5 -82.5t72.5 -224.5v-164q0 -155 -84 -242t-250 -87h-1062l354 -353l-43 -41z" />
<glyph unicode="&#x21aa;" horiz-adv-x="1720" d="M131 956v164q0 142 72.5 224.5t232.5 82.5h131v-57h-121q-253 0 -253 -242v-172q0 -125 60.5 -198.5t192.5 -73.5h1082l-354 352l43 41l419 -422l-419 -422l-43 41l354 353h-1063q-166 0 -250 87t-84 242z" />
<glyph unicode="&#x21b3;" horiz-adv-x="1720" d="M281 625v792h63v-733h1196l-354 352l41 41l420 -424l-418 -420l-43 41l354 351h-1259z" />
<glyph unicode="&#x21b5;" horiz-adv-x="1720" d="M283 653l419 424l41 -41l-354 -352h1196v733h64v-792h-1260l354 -351l-43 -41z" />
<glyph unicode="&#x21de;" horiz-adv-x="993" d="M92 993l422 422l422 -422l-41 -43l-352 350l2 -567h237v-59h-237v-242h237v-61h-237v-371h-62v371h-237v61h237v242h-237v59h237v567l-350 -350z" />
<glyph unicode="&#x21df;" horiz-adv-x="993" d="M92 424l41 43l350 -350v567h-237v59h237v242h-237v62h237v370h62v-370h237v-62h-237v-242h237v-59h-237l-2 -567l352 350l41 -43l-422 -422z" />
<glyph unicode="&#x21e0;" horiz-adv-x="1619" d="M100 657l426 422l47 -43l-360 -354h408v-55h-408l360 -351l-47 -45zM719 625v57h217v-57h-217zM1038 625v57h219v-57h-219zM1360 625v57h158v-57h-158z" />
<glyph unicode="&#x21e1;" horiz-adv-x="962" d="M53 991l426 426l422 -426l-43 -47l-354 361v-408h-55v408l-351 -361zM446 0v158h58v-158h-58zM446 260v219h58v-219h-58zM446 582v217h58v-217h-58z" />
<glyph unicode="&#x21e2;" horiz-adv-x="1619" d="M100 625v57h158v-57h-158zM360 625v57h220v-57h-220zM682 625v57h217v-57h-217zM997 627v55h408l-361 354l48 43l426 -422l-426 -426l-48 45l361 351h-408z" />
<glyph unicode="&#x21e3;" horiz-adv-x="962" d="M53 426l45 47l351 -360v407h55v-407l354 360l43 -47l-422 -426zM446 618v218h58v-218h-58zM446 938v219h58v-219h-58zM446 1260v157h58v-157h-58z" />
<glyph unicode="&#x21e4;" horiz-adv-x="1548" d="M162 227v854h59v-854h-59zM264 657l426 422l47 -43l-360 -354h1085v-55h-1085l360 -351l-47 -45z" />
<glyph unicode="&#x21e5;" horiz-adv-x="1548" d="M164 627v55h1085l-360 354l47 43l426 -422l-426 -426l-47 45l360 351h-1085zM1405 227v854h59v-854h-59z" />
<glyph unicode="&#x21e7;" horiz-adv-x="1556" d="M49 674l717 749l717 -749h-353v-674h-729v674h-352zM164 719h289v-670h628v670h287l-602 622z" />
<glyph unicode="&#x21ea;" horiz-adv-x="1585" d="M68 674l716 749l717 -749h-352v-586h-729v586h-352zM182 719h289v-582h629v582h286l-602 622zM422 -63h727v-338h-727v338zM473 -113v-237h627v237h-627z" />
<glyph unicode="&#x2303;" horiz-adv-x="1628" d="M221 846l592 590l584 -580l-43 -45l-541 532l-547 -540z" />
<glyph unicode="&#x2318;" horiz-adv-x="1687" d="M109 246q0 108 72 183t192 75h205v420h-205q-106 0 -185 77t-79 181q0 109 75 184.5t189 75.5q124 0 191 -73.5t67 -186.5v-209h413v209q0 109 75 184.5t188 75.5q121 0 190.5 -74.5t69.5 -185.5q0 -104 -77 -181t-183 -77h-207v-420h207q126 0 193 -74t67 -184 q0 -111 -67 -185.5t-193 -74.5q-119 0 -191 75t-72 185v209h-413v-209q0 -110 -67.5 -185t-190.5 -75q-120 0 -192 74t-72 186zM162 246q0 -89 60 -150t151 -61q86 0 145.5 61.5t59.5 149.5v209h-205q-91 0 -151 -61t-60 -148zM162 1182q0 -90 59.5 -149.5t151.5 -59.5h205 v209q0 86 -60 146.5t-145 60.5q-89 0 -150 -59.5t-61 -147.5zM631 504h413v420h-413v-420zM1100 246q0 -88 60.5 -149.5t146.5 -61.5q87 0 146.5 61.5t59.5 149.5q0 87 -59.5 148t-146.5 61h-207v-209zM1100 973h207q87 0 146.5 60.5t59.5 148.5q0 87 -59.5 147t-146.5 60 t-147 -60t-60 -147v-209z" />
<glyph unicode="&#x2324;" horiz-adv-x="1628" d="M287 1366v59h1169v-59h-1169zM305 688l565 604l566 -602l-43 -45l-523 555l-520 -555z" />
<glyph unicode="&#x2325;" horiz-adv-x="2433" d="M84 1303v61h448l818 -1307h944v-57h-987l-813 1303h-410zM1063 1303v61h1231v-61h-1231z" />
<glyph unicode="&#x2326;" horiz-adv-x="2267" d="M158 0v1423h1360l696 -712l-694 -711h-1362zM209 51h1276l651 660l-651 659h-1276v-1319zM639 371l340 340l-340 340l33 36l340 -342l340 342l32 -36l-337 -340l337 -340l-32 -35l-340 344l-340 -344z" />
<glyph unicode="&#x232b;" horiz-adv-x="2267" d="M158 711l696 712h1360v-1423h-1362zM236 711l651 -660h1276v1319h-1276zM987 371l338 340l-338 340l33 36l340 -342l340 342l33 -36l-340 -340l340 -340l-33 -35l-340 344l-340 -344z" />
<glyph unicode="&#x235f;" horiz-adv-x="1646" d="M94 711q0 196 97 362.5t264 263.5t364 97q196 0 362.5 -97t263.5 -264t97 -364h-2q0 -196 -97 -362.5t-264 -263.5t-364 -97q-196 0 -362 97t-262.5 264t-96.5 364zM211 709q0 -164 81 -303t220 -219.5t303 -80.5q123 0 235 48t192.5 128.5t128.5 192.5t48 234 q0 123 -48 235t-128.5 192.5t-192.5 128.5t-235 48t-235 -48t-192.5 -128.5t-128.5 -192.5t-48 -235zM311 848l334 65l154 304l164 -299l335 -70l-231 -232l53 -346l-321 156l-289 -156l43 338z" />
<glyph unicode="&#x23cf;" horiz-adv-x="1748" d="M135 186v279h1438v-279h-1438zM135 643l719 719l719 -719h-1438z" />
<glyph unicode="&#x25a0;" horiz-adv-x="1792" d="M252 82v1296h1296v-1296h-1296z" />
<glyph unicode="&#x25a1;" horiz-adv-x="1722" d="M162 0v1419h1407v-1419h-1407zM227 53h1280v1309h-1280v-1309z" />
<glyph unicode="&#x25b2;" horiz-adv-x="1679" d="M162 360l719 719l718 -719h-1437z" />
<glyph unicode="&#x25b6;" horiz-adv-x="1218" d="M283 0v1436l718 -717z" />
<glyph unicode="&#x25bc;" horiz-adv-x="1679" d="M162 1079h1437l-718 -719z" />
<glyph unicode="&#x25c0;" horiz-adv-x="1218" d="M207 719l719 717v-1436z" />
<glyph unicode="&#x25ca;" horiz-adv-x="1024" d="M100 690l383 705h60l379 -705l-379 -690h-60zM160 690l354 -647l350 647l-350 662z" />
<glyph unicode="&#x25cf;" horiz-adv-x="1726" d="M227 731q0 105 34 204.5t95.5 178.5t142 139t178.5 92.5t200 32.5q169 0 318.5 -87.5t239 -237.5t89.5 -322q0 -128 -52 -247.5t-139 -207.5t-207 -141t-249 -53q-130 0 -250.5 52t-208 139.5t-139.5 207.5t-52 250z" />
<glyph unicode="&#x25fc;" horiz-adv-x="983" d="M0 0v983h983v-983h-983z" />
<glyph unicode="&#x2602;" horiz-adv-x="1597" d="M102 745q0 126 62.5 252.5t158.5 219t216 150.5t231 58v64h59v-66q111 0 230 -57.5t214.5 -149.5t157 -218t62.5 -253q-33 37 -81.5 58.5t-102.5 21.5q-102 0 -176 -80h-5q-49 80 -153 80q-57 0 -127 -28v-623q0 -86 -54 -138t-149 -52q-89 0 -144 50.5t-55 149.5v27h97 v-27q0 -55 26.5 -82.5t71.5 -27.5q104 0 104 114v607q-52 24 -106 24q-91 0 -174 -76q-68 80 -178 80q-112 0 -183 -80zM1493 745l2 -2z" />
<glyph unicode="&#x2605;" horiz-adv-x="1667" d="M86 874l510 99l233 463l252 -457l512 -105l-354 -354l80 -528l-490 239l-438 -239l66 514z" />
<glyph unicode="&#x2606;" horiz-adv-x="1716" d="M80 887l520 100l231 461l254 -457l521 -104l-361 -361l80 -530l-491 240l-447 -244l68 522zM199 850l313 -313l-55 -443l377 203l421 -203l-71 453l305 303l-436 88l-219 395l-201 -401z" />
<glyph unicode="&#x2610;" horiz-adv-x="1722" d="M162 0v1419h1407v-1419h-1407zM227 53h1280v1309h-1280v-1309z" />
<glyph unicode="&#x2611;" horiz-adv-x="1740" d="M168 0v1419h1407v-1419h-1407zM233 53h1280v1307h-1280v-1307zM420 745q29 20 68.5 30.5t66.5 10.5q35 0 93.5 -134.5t78.5 -272.5q141 234 340.5 475.5t366.5 349.5l8 -6q-102 -80 -238.5 -265t-242.5 -362t-177 -321q-84 -17 -137 -41q-41 152 -107.5 319.5 t-119.5 216.5z" />
<glyph unicode="&#x2612;" horiz-adv-x="1740" d="M168 0v1419h1407v-1419h-1407zM233 53h1280v1307h-1280v-1307zM399 305l410 410l-410 409l56 54l409 -412l404 412l55 -54l-405 -405l411 -412l-57 -53l-410 412l-409 -416z" />
<glyph unicode="&#x2622;" horiz-adv-x="1714" d="M102 719q0 109 34 217.5t100 203.5t155 168t208.5 115.5t252.5 42.5q158 0 299 -57.5t242 -155.5t160 -234.5t59 -289.5q0 -155 -58.5 -296t-159 -244t-241 -163.5t-297.5 -60.5q-155 0 -294.5 59t-240.5 159.5t-160 240t-59 295.5zM176 719q0 -141 55 -267.5t147 -216.5 t218 -143t264 -53q132 0 256.5 55t216 145t146.5 212t55 251q0 156 -58 289.5t-153.5 222t-218 138t-252.5 49.5q-182 0 -338 -92.5t-247 -249.5t-91 -340zM236 719q0 176 73.5 305t233.5 233l202 -352q-94 -58 -106 -186h-403zM547 184l201 348q61 -28 110 -28q42 0 103 28 l204 -350q-162 -84 -315 -84q-164 0 -303 86zM692 719q0 69 48 117.5t116 48.5q66 0 113 -50t47 -116q0 -65 -47 -112.5t-113 -47.5q-65 0 -114.5 46.5t-49.5 113.5zM961 909l204 351q149 -82 230.5 -222.5t81.5 -318.5h-404q-12 127 -112 190z" />
<glyph unicode="&#x2623;" horiz-adv-x="1753" d="M113 494q0 282 319 387q0 256 93 381.5t300 164.5l11 -30q-279 -80 -279 -310q0 -138 78 -219t227 -100v-45q-43 -10 -64.5 -36t-21.5 -58q0 -15 8 -39l-39 -21q-124 148 -272 148q-120 0 -215.5 -92.5t-95.5 -212.5q0 -44 12 -115l-22 -10q-39 115 -39 207zM207 180 l22 17q138 -123 240 -123q135 0 230.5 93.5t95.5 225.5q0 79 -37 146l45 26q23 -37 78 -37q37 0 67 35l47 -24q-34 -80 -34 -148q0 -126 92 -218.5t215 -92.5q137 0 250 110l24 -16q-73 -100 -153.5 -137t-196.5 -37q-188 0 -315 109q-143 -109 -318 -109q-112 0 -192.5 39 t-159.5 141zM463 606q0 42 8 78h25q43 -3 86 -25v-61q0 -157 180 -246q-11 -65 -43 -106q-116 47 -186 146t-70 214zM623 946q133 88 254 88q129 0 256 -88q-25 -54 -76 -88q-89 62 -176 62q-83 0 -183 -62q-48 30 -75 88zM891 723v45q147 19 225 102.5t78 221.5 q0 224 -242 303l11 32q185 -41 273.5 -158t88.5 -317q0 -42 -2 -67q157 -62 236 -169.5t79 -246.5q0 -96 -36 -197l-27 9q16 88 16 133q0 124 -93 209.5t-226 85.5q-153 0 -260 -146l-47 27q6 21 6 41q0 70 -80 92zM991 352q180 89 180 254q0 35 -2 53q36 21 111 21 q8 -33 8 -76q0 -111 -69 -207t-191 -151q-32 58 -37 106z" />
<glyph unicode="&#x262e;" horiz-adv-x="1708" d="M96 723q0 202 100 372t271 267.5t373 97.5q156 0 296.5 -58t241.5 -156t160 -233t59 -284q0 -155 -60 -295t-162 -240t-242.5 -158.5t-296.5 -58.5q-147 0 -283.5 60t-236.5 160.5t-160 238.5t-60 287zM229 719q0 -104 17.5 -161t66.5 -142l473 430v489 q-248 -31 -402.5 -200.5t-154.5 -415.5zM383 324q109 -102 196.5 -155.5t206.5 -72.5v596zM903 100q223 25 410 224l-410 368v-592zM903 846l479 -428q80 140 80 311q0 239 -151 403.5t-408 202.5v-489z" />
<glyph unicode="&#x262f;" horiz-adv-x="1695" d="M102 729q0 162 64.5 303t169.5 235.5t238 148.5t272 54q165 0 306.5 -60.5t237 -163t149.5 -238.5t54 -287q0 -164 -60.5 -304t-162 -234.5t-236.5 -147.5t-284 -53q-162 0 -303.5 62t-238 165.5t-151.5 239t-55 280.5zM500 1337l10 -8q43 12 86 12q81 0 152.5 -31.5 t118 -79.5t73.5 -104.5t27 -107.5q0 -105 -41.5 -195t-137.5 -186q-39 -39 -57 -99t-18 -112q0 -151 94 -236.5t262 -85.5q87 0 174 49.5t154 131.5t109 198t42 240q0 135 -51 262.5t-140.5 227t-223 159.5t-287.5 60q-186 0 -346 -95zM518 999q0 -43 27.5 -72.5t72.5 -29.5 q44 0 74.5 30t30.5 72q0 39 -30 70t-77 31q-37 0 -67.5 -29t-30.5 -72zM977 457q0 44 31 75t67 31q43 0 74 -32.5t31 -73.5q0 -43 -32 -72t-73 -29t-69.5 31.5t-28.5 69.5z" />
<glyph unicode="&#x2672;" horiz-adv-x="1882" d="M102 862h433l174 -375l-123 72l-64 -57q-33 -29 -33 -60q0 -51 64 -51h393v-432h-379q-42 0 -69.5 11t-40 25.5t-29.5 43.5l-231 426q-25 46 -25 106q0 122 66 191zM188 831l97 -65q-82 -79 -82 -191q0 -184 217 -184h57q-22 16 -22 49q0 41 39 80l86 78l57 -35l-125 268 h-324zM268 391l181 -334q22 -38 43.5 -54.5t64.5 -16.5h361v379h-486q-65 0 -96 5.5t-68 20.5zM365 1026l210 340q49 78 142 78h497q42 0 57.5 -6t28.5 -27l109 -178l131 78l-172 -393l-432 43l123 77l-94 166l-254 -379zM408 1032l294 -170l246 371q-89 174 -243 174 q-60 0 -99 -57zM801 1417q39 -8 75 -39t57.5 -62.5t51.5 -84.5l115 -205l-76 -47l326 -31l137 297l-82 -53l-121 190q-12 20 -26 27.5t-39 7.5h-418zM1001 160l226 346v-144h223l-236 400l353 209l194 -361q19 -40 19 -61q0 -35 -25 -80l-221 -397q-39 -71 -61.5 -92 t-71.5 -21h-172v-158zM1036 160l166 -266v92h197q53 0 84 53l211 385q-62 -57 -130.5 -74.5t-189.5 -17.5h-172v90zM1251 754l236 -392q86 8 172 66t86 125q0 21 -12 49l-183 326z" />
<glyph unicode="&#x2673;" horiz-adv-x="1779" d="M102 213q0 74 50 160l149 268l-94 51l14 27l242 45l86 -229l-17 -31l-96 59l-131 -237q-26 -50 -26 -88q0 -40 29 -64t91 -24h406v-150h-436q-121 0 -194 58.5t-73 154.5zM449 897l217 379q84 145 219 145q64 0 122.5 -37t94.5 -102l149 -264l105 59l12 -28l-90 -230 l-248 43l-12 25l100 55l-145 246q-33 61 -92 61q-27 0 -54 -20t-45 -51l-202 -357zM739 662v116l86 62h101v-594h-113v467zM913 74l160 200l27 -4v-120h262q71 0 106 24t35 66q0 36 -33 94l-204 348l137 80l227 -397q47 -78 47 -150q0 -96 -83 -155.5t-210 -59.5h-286v-121 h-33z" />
<glyph unicode="&#x2674;" horiz-adv-x="1779" d="M102 213q0 74 50 160l149 268l-94 51l14 27l242 45l86 -229l-17 -31l-96 59l-131 -237q-26 -50 -26 -88q0 -40 29 -64t91 -24h406v-150h-436q-121 0 -194 58.5t-73 154.5zM449 897l217 379q84 145 219 145q64 0 122.5 -37t94.5 -102l149 -264l105 59l12 -28l-90 -230 l-248 43l-12 25l100 55l-145 246q-33 61 -92 61q-27 0 -54 -20t-45 -51l-202 -357zM674 254v94l219 275q29 33 29 67q0 25 -17.5 42.5t-46.5 17.5q-28 0 -48 -24t-26 -64l-106 12q12 83 62 130.5t118 47.5q76 0 124 -42t48 -118q0 -66 -43 -121l-170 -213h203v-104h-346z M913 74l160 200l27 -4v-120h262q71 0 106 24t35 66q0 36 -33 94l-204 348l137 80l227 -397q47 -78 47 -150q0 -96 -83 -155.5t-210 -59.5h-286v-121h-33z" />
<glyph unicode="&#x2675;" horiz-adv-x="1779" d="M102 213q0 74 50 160l149 268l-94 51l14 27l242 45l86 -229l-17 -31l-96 59l-131 -237q-26 -50 -26 -88q0 -40 29 -64t91 -24h406v-150h-436q-121 0 -194 58.5t-73 154.5zM449 897l217 379q84 145 219 145q64 0 122.5 -37t94.5 -102l149 -264l105 59l12 -28l-90 -230 l-248 43l-12 25l100 55l-145 246q-33 61 -92 61q-27 0 -54 -20t-45 -51l-202 -357zM674 406l104 14q14 -72 72 -72q36 0 58 25t22 63q0 37 -21.5 57.5t-54.5 20.5h-59v98h53q32 0 54 19.5t22 48.5t-21 49.5t-49 20.5q-22 0 -41.5 -20t-28.5 -54l-106 12q13 72 63 118t113 46 q86 0 131 -48.5t45 -121.5q0 -72 -55 -115q59 -46 59 -129q0 -85 -51 -137.5t-135 -52.5q-63 0 -111.5 37t-62.5 121zM913 74l160 200l27 -4v-120h262q71 0 106 24t35 66q0 36 -33 94l-204 348l137 80l227 -397q47 -78 47 -150q0 -96 -83 -155.5t-210 -59.5h-286v-121h-33z " />
<glyph unicode="&#x2676;" horiz-adv-x="1779" d="M102 213q0 74 50 160l149 268l-94 51l14 27l242 45l86 -229l-17 -31l-96 59l-131 -237q-26 -50 -26 -88q0 -40 29 -64t91 -24h406v-150h-436q-121 0 -194 58.5t-73 154.5zM449 897l217 379q84 145 219 145q64 0 122.5 -37t94.5 -102l149 -264l105 59l12 -28l-90 -230 l-248 43l-12 25l100 55l-145 246q-33 61 -92 61q-27 0 -54 -20t-45 -51l-202 -357zM633 342v88l196 422h115l-190 -410h118v144h105v-144h45v-100h-45v-84h-105v84h-239zM913 74l160 200l27 -4v-120h262q71 0 106 24t35 66q0 36 -33 94l-204 348l137 80l227 -397 q47 -78 47 -150q0 -96 -83 -155.5t-210 -59.5h-286v-121h-33z" />
<glyph unicode="&#x2677;" horiz-adv-x="1779" d="M102 213q0 74 50 160l149 268l-94 51l14 27l242 45l86 -229l-17 -31l-96 59l-131 -237q-26 -50 -26 -88q0 -40 29 -64t91 -24h406v-150h-436q-121 0 -194 58.5t-73 154.5zM449 897l217 379q84 145 219 145q64 0 122.5 -37t94.5 -102l149 -264l105 59l12 -28l-90 -230 l-248 43l-12 25l100 55l-145 246q-33 61 -92 61q-27 0 -54 -20t-45 -51l-202 -357zM684 397l104 21q17 -78 74 -78q80 0 80 117q0 102 -72 102q-37 0 -67 -51h-96v332h309v-103h-209v-96q35 18 80 18q76 0 116.5 -50t40.5 -132v-37q0 -88 -46.5 -143t-135.5 -55 q-145 0 -178 155zM913 74l160 200l27 -4v-120h262q71 0 106 24t35 66q0 36 -33 94l-204 348l137 80l227 -397q47 -78 47 -150q0 -96 -83 -155.5t-210 -59.5h-286v-121h-33z" />
<glyph unicode="&#x2678;" horiz-adv-x="1779" d="M102 213q0 74 50 160l149 268l-94 51l14 27l242 45l86 -229l-17 -31l-96 59l-131 -237q-26 -50 -26 -88q0 -40 29 -64t91 -24h406v-150h-436q-121 0 -194 58.5t-73 154.5zM449 897l217 379q84 145 219 145q64 0 122.5 -37t94.5 -102l149 -264l105 59l12 -28l-90 -230 l-248 43l-12 25l100 55l-145 246q-33 61 -92 61q-27 0 -54 -20t-45 -51l-202 -357zM694 426q0 67 33 129q16 30 69.5 131t80.5 154h114l-112 -232h12q70 0 116 -52t46 -124q0 -93 -53.5 -141.5t-129.5 -48.5q-81 0 -128.5 47t-47.5 137zM801 428q0 -40 19.5 -63t51.5 -23 q30 0 50 23.5t20 62.5t-20 60.5t-50 21.5t-50.5 -21.5t-20.5 -60.5zM913 74l160 200l27 -4v-120h262q71 0 106 24t35 66q0 36 -33 94l-204 348l137 80l227 -397q47 -78 47 -150q0 -96 -83 -155.5t-210 -59.5h-286v-121h-33z" />
<glyph unicode="&#x2679;" horiz-adv-x="1779" d="M102 213q0 74 50 160l149 268l-94 51l14 27l242 45l86 -229l-17 -31l-96 59l-131 -237q-26 -50 -26 -88q0 -40 29 -64t91 -24h406v-150h-436q-121 0 -194 58.5t-73 154.5zM449 897l217 379q84 145 219 145q64 0 122.5 -37t94.5 -102l149 -264l105 59l12 -28l-90 -230 l-248 43l-12 25l100 55l-145 246q-33 61 -92 61q-27 0 -54 -20t-45 -51l-202 -357zM692 641v188h352v-90l-200 -503h-115l195 489h-125v-84h-107zM913 74l160 200l27 -4v-120h262q71 0 106 24t35 66q0 36 -33 94l-204 348l137 80l227 -397q47 -78 47 -150q0 -96 -83 -155.5 t-210 -59.5h-286v-121h-33z" />
<glyph unicode="&#x267a;" horiz-adv-x="1779" d="M102 213q0 74 50 160l149 268l-94 51l14 27l242 45l86 -229l-17 -31l-96 59l-131 -237q-26 -50 -26 -88q0 -40 29 -64t91 -24h406v-150h-436q-121 0 -194 58.5t-73 154.5zM449 897l217 379q84 145 219 145q64 0 122.5 -37t94.5 -102l149 -264l105 59l12 -28l-90 -230 l-248 43l-12 25l100 55l-145 246q-33 61 -92 61q-27 0 -54 -20t-45 -51l-202 -357zM913 74l160 200l27 -4v-120h262q71 0 106 24t35 66q0 36 -33 94l-204 348l137 80l227 -397q47 -78 47 -150q0 -96 -83 -155.5t-210 -59.5h-286v-121h-33z" />
<glyph unicode="&#x267b;" horiz-adv-x="1820" d="M102 606q0 14 11 47l102 176l-84 41h330l160 -276l-95 55l-147 -268q-68 -107 -68 -166l-180 311q-29 51 -29 80zM326 1032l170 299q69 92 161 92q67 0 124 -35t93 -83l-247 -451zM358 172q0 59 50 150h510v-322h-388q-59 0 -115.5 43t-56.5 129zM823 1421h371 q53 0 74.5 -10.5t34.5 -36.5l94 -168l98 56l-168 -295h-342l107 67l-152 273q-37 64 -117 114zM961 164l176 280v-122h305q37 0 94.5 16.5t99.5 44.5l-204 -311q-48 -72 -129 -72h-166v-119zM1202 836l309 178l177 -303q30 -48 30 -107q0 -93 -78 -158t-170 -65h-16z" />
<glyph unicode="&#x267c;" horiz-adv-x="1712" d="M102 721q0 153 60 292.5t161 240.5t240.5 161t292.5 60t292.5 -60t240.5 -161t161 -240.5t60 -292.5t-60 -292.5t-161 -240.5t-240.5 -161t-292.5 -60t-292.5 60t-240.5 161t-161 240.5t-60 292.5zM242 651q0 -25 20 -61l141 -228q0 40 48 123l112 199l70 -39l-119 205 h-246l62 -29l-78 -131q-10 -17 -10 -39zM414 971l227 -133l184 338q-71 88 -163 88q-39 0 -71 -19t-50 -51zM438 330q0 -65 42 -98t85 -33h291v239h-381q-37 -55 -37 -108zM784 1262q54 -26 88 -84l113 -205l-80 -51h256l127 221l-74 -41l-69 125q-10 20 -25.5 27.5 t-54.5 7.5h-281zM889 324l131 -213v88h125q60 0 96 55l154 231q-32 -19 -76.5 -33t-69.5 -14h-229v94zM1069 825l188 -340h13q70 0 127 48t57 118q0 47 -22 80l-132 227z" />
<glyph unicode="&#x267d;" horiz-adv-x="1712" d="M102 723q0 153 60 292.5t161 240.5t240.5 161t292.5 60t292.5 -60t240.5 -161t161 -240.5t60 -292.5t-60 -292.5t-161 -240.5t-240.5 -161t-292.5 -60t-292.5 60t-240.5 161t-161 240.5t-60 292.5zM141 723q0 -145 57 -277.5t153 -228.5t228 -152.5t277 -56.5 q146 0 278 56.5t228 152.5t152.5 228t56.5 278q0 145 -56.5 277t-152.5 228t-228.5 153t-277.5 57t-277 -57t-228 -153t-153 -228t-57 -277zM246 651q0 22 10 39l78 131l-62 29h246l119 -205l-70 39l-112 -199q-47 -81 -47 -123l-142 228q-20 36 -20 61zM418 971l127 223 q18 32 50 51t71 19q92 0 163 -88l-184 -338zM442 330q0 53 37 108h381v-239h-291q-43 0 -85 33t-42 98zM788 1262h281q39 0 54.5 -7.5t25.5 -27.5l70 -125l73 41l-127 -221h-256l80 51l-112 205q-33 57 -89 84zM893 324l131 208v-94h229q25 0 69.5 14t76.5 33l-154 -231 q-36 -55 -96 -55h-125v-88zM1073 825l232 133l131 -227q22 -33 22 -80q0 -70 -57 -118t-127 -48h-12z" />
<glyph unicode="&#x2693;" horiz-adv-x="1429" d="M131 432l291 -84l-82 -72q80 -76 151.5 -102.5t159.5 -34.5v813h-262v99h262v24q-55 15 -90 64t-35 110q0 76 55 130.5t130 54.5q74 0 127 -54.5t53 -130.5q0 -57 -31.5 -102t-83.5 -66v-30h266v-99h-266v-813h4q56 5 96 13.5t99 39.5t115 84l-82 72l290 84l-43 -311 l-77 84q-190 -197 -463 -221q-273 24 -461 221l-78 -84z" />
<glyph unicode="&#x26a0;" horiz-adv-x="1810" d="M100 94q0 35 23 76l678 1200q42 74 104 74q59 0 99 -70l677 -1204q21 -37 21 -76q0 -42 -27.5 -68t-81.5 -26h-1382q-55 0 -83 26.5t-28 67.5zM231 133q0 -18 60 -18h1222q60 0 60 18q0 5 -4 12.5t-11.5 20t-11.5 20.5l-608 1078q-16 34 -39 34q-20 0 -39 -34l-604 -1080 q-4 -7 -9 -16t-8 -14t-5.5 -11t-2.5 -10zM803 242q0 27 22.5 55.5t69.5 28.5q35 0 60.5 -24.5t25.5 -63.5q0 -37 -25 -60.5t-61 -23.5q-34 0 -63 20t-29 68zM805 981q0 35 25.5 64.5t64.5 29.5q47 0 72.5 -26.5t25.5 -67.5l-59 -575q-3 -16 -16 -26.5t-25 -10.5 q-13 0 -26.5 10.5t-14.5 26.5z" />
<glyph unicode="&#x2706;" horiz-adv-x="884" d="M215 713q0 127 15 234.5t38.5 181t55.5 132t63.5 92.5t64 57t56 31.5t41.5 10.5v-426q-53 0 -73.5 -76.5t-20.5 -257.5q0 -47 7 -108t29.5 -126.5t57.5 -70.5v-412q-17 0 -40.5 8.5t-56 31.5t-64.5 57.5t-63.5 93.5t-55.5 132.5t-39 181t-15 233.5zM575 -25v412h123 q17 0 29 -10.5t12 -30.5v-328q0 -17 -10.5 -30t-30.5 -13h-123zM575 1026v426h123q15 0 28 -13t13 -28v-334q0 -51 -41 -51h-123z" />
<glyph unicode="&#x2708;" horiz-adv-x="1822" d="M96 858h154l131 -172h393l-229 735h194l424 -735h506q48 0 76.5 -28t28.5 -66q0 -35 -27.5 -61.5t-75.5 -26.5h-512l-426 -719h-196l235 719h-391l-125 -164h-154l78 260z" />
<glyph unicode="&#x2709;" horiz-adv-x="2191" d="M131 0v1374h1927v-1374h-1927zM254 213l469 463l-469 467v-930zM332 1249l753 -760l750 760h-1503zM346 131h1487l-455 459l-293 -295l-280 278zM1458 690l465 -465v934z" />
<glyph unicode="&#x2713;" horiz-adv-x="1564" d="M131 729q42 38 101 57t106 19q35 0 86.5 -80t95.5 -206.5t58 -244.5q109 188 259 394t337 407t344 303l30 -35q-102 -77 -236 -245.5t-257.5 -364t-228 -381t-171.5 -327.5q-141 -29 -206 -66q-30 131 -83 295t-120.5 309t-114.5 166z" />
<glyph unicode="&#x2716;" horiz-adv-x="1519" d="M51 352l359 353l-359 352l355 356l354 -356l354 356l354 -356l-356 -352l356 -353l-354 -356l-354 358l-354 -358z" />
<glyph unicode="&#x271a;" horiz-adv-x="1531" d="M104 446v472h437v446h471v-446h446v-472h-436v-446h-473v446h-445z" />
<glyph unicode="&#x272a;" horiz-adv-x="1630" d="M86 709q0 197 97 364.5t264.5 265t365.5 97.5t365.5 -97.5t264.5 -265t97 -364.5q0 -148 -57.5 -282.5t-154.5 -231.5t-231.5 -154t-283.5 -57q-198 0 -365.5 97t-264.5 264t-97 364zM207 874l289 -286l-50 -408l349 189l387 -189l-66 418l281 276l-406 84l-196 363 l-187 -367z" />
<glyph unicode="&#x2794;" horiz-adv-x="1454" d="M61 668v88h1176l-492 489h142l522 -536l-530 -541h-140l498 500h-1176z" />
<glyph unicode="&#xe000;" horiz-adv-x="1128" d="M51 647q0 126 17.5 230t56.5 190.5t98 146t145.5 92.5t196.5 33q114 0 203 -38t144.5 -101t91.5 -153.5t50.5 -187t14.5 -210.5q0 -106 -15 -198.5t-51.5 -180t-93 -149.5t-145 -99.5t-201.5 -37.5q-116 0 -204 32t-146 88.5t-94.5 141t-52 182t-15.5 219.5zM104 647 q0 -618 457 -618q211 0 333 157t122 463q0 145 -25.5 260t-78.5 202t-142 134t-209 47q-457 0 -457 -645z" />
<glyph unicode="&#xe001;" horiz-adv-x="911" d="M84 0v45h377v1206l-330 -61v35l328 92h57v-1272h375v-45h-807z" />
<glyph unicode="&#xe002;" horiz-adv-x="1112" d="M72 0v59q0 64 11 116.5t45 101.5t59 80.5t91.5 79.5t101.5 70t127 79q9 6 14 9t13 8t15 9q69 43 110.5 70.5t92.5 69t78.5 77.5t47 83.5t19.5 99.5q0 128 -87 201t-267 73q-107 0 -187 -27.5t-124 -74.5t-65 -100.5t-22 -114.5h-43q-2 12 -2 28q0 110 60.5 188.5 t158.5 115.5t222 38q109 0 192 -26t131.5 -71.5t72.5 -103t24 -124.5q0 -43 -12.5 -84t-29.5 -73t-49.5 -67.5t-58 -59.5t-70.5 -56t-71 -49t-74 -47q-35 -22 -88.5 -55.5t-81.5 -51t-69 -44.5t-62 -44.5t-50.5 -43t-43.5 -46.5t-31.5 -49.5t-24.5 -57t-12 -64t-4 -75.5h858 v-47h-915z" />
<glyph unicode="&#xe003;" horiz-adv-x="1095" d="M35 315q0 17 2 29h43q1 -48 13 -91t41.5 -84t73 -70.5t111.5 -47.5t154 -18q205 0 320.5 97.5t115.5 266.5q0 177 -112.5 260.5t-339.5 83.5q-56 0 -74 -2l-29 41l512 482l-4 8h-762v49h846v-53l-504 -469l4 -9q21 3 43 3q226 0 351 -97t125 -288q0 -192 -131.5 -307 t-358.5 -115q-125 0 -222 34.5t-157.5 111t-60.5 185.5z" />
<glyph unicode="&#xe004;" horiz-adv-x="1116" d="M49 358v56l742 905h51v-909h229v-52h-229v-358h-58v358h-735zM121 420l4 -10h659v807l-8 4z" />
<glyph unicode="&#xe005;" horiz-adv-x="1095" d="M72 315q0 17 2 29h43q1 -48 13 -91t41.5 -84t73 -70.5t111.5 -47.5t154 -18q202 0 316 101t114 265q0 99 -34.5 174t-95 119t-135.5 66t-163 22q-163 0 -303 -43l-51 21l84 561h671v-49h-626l-72 -482q128 41 295 41q77 0 146 -14t131.5 -45.5t108 -79.5t72.5 -120 t27 -162q0 -190 -129 -307t-354 -117q-125 0 -222 34.5t-157.5 111t-60.5 185.5z" />
<glyph unicode="&#xe006;" horiz-adv-x="1103" d="M113 584q0 120 13 223.5t47.5 203.5t88.5 171t141.5 114t200.5 43q101 0 184.5 -33t135 -100.5t51.5 -158.5q0 -15 -2 -25h-41q-1 51 -18 96.5t-53 85.5t-102 64t-155 24q-77 0 -140 -22.5t-108 -61t-79.5 -97t-55.5 -123t-34.5 -146.5t-19.5 -159.5t-7 -170.5l10 -2 q34 126 149.5 215.5t270.5 89.5q201 0 318.5 -106t117.5 -297q0 -192 -116.5 -310t-336.5 -118q-247 0 -353.5 139.5t-106.5 460.5zM190 381q0 -96 33.5 -167.5t91 -110.5t123.5 -57.5t142 -18.5q79 0 148.5 23t125 68t87.5 119.5t32 170.5q0 164 -96 262t-291 98 q-161 0 -278.5 -116.5t-117.5 -270.5z" />
<glyph unicode="&#xe007;" horiz-adv-x="978" d="M29 1270v47h895v-47l-639 -1270h-60l639 1270h-835z" />
<glyph unicode="&#xe008;" horiz-adv-x="1048" d="M63 338q0 37 8 73.5t32 81t61.5 83t103 74.5t150.5 59l2 8q-301 73 -301 303q0 56 25 111t72.5 102.5t127.5 76.5t180 29q111 0 194 -29t128 -77t66.5 -101.5t21.5 -111.5q0 -28 -7.5 -58t-28 -65.5t-51.5 -67t-82 -61t-116 -49.5v-8q86 -20 150.5 -57t99 -76t55.5 -87 t27 -82t6 -67q0 -70 -29.5 -133.5t-85.5 -114t-146 -80.5t-202 -30q-217 0 -339 94t-122 260zM115 334q0 -79 34 -139.5t92 -96t129.5 -53.5t153.5 -18q76 0 147.5 19t131.5 55.5t96.5 98t36.5 138.5q0 141 -107 237t-301 113q-195 -26 -304 -120t-109 -234zM174 1020 q0 -114 87.5 -179t264.5 -108q165 27 260 106t95 183q0 126 -103.5 198t-253.5 72q-148 0 -249 -73.5t-101 -198.5z" />
<glyph unicode="&#xe009;" horiz-adv-x="1085" d="M86 911q0 197 114.5 312.5t329.5 115.5q449 0 449 -600q0 -92 -5.5 -168.5t-20 -156t-38.5 -141.5t-62.5 -117.5t-90 -92.5t-123.5 -58t-160 -21q-156 0 -262 78t-106 214q0 15 2 25h45q1 -46 17.5 -90.5t52 -86.5t101.5 -67.5t154 -25.5q82 0 146.5 20t110.5 54.5 t79.5 90t54 116.5t33 146t17.5 166t6 187l-10 2q-30 -128 -141.5 -216.5t-258.5 -88.5q-207 0 -320.5 104t-113.5 299zM139 915q0 -167 91.5 -264.5t293.5 -97.5q159 0 267 116.5t108 272.5q0 89 -32 158t-86 110t-118 61.5t-133 20.5q-76 0 -142 -19t-124 -60.5 t-91.5 -117.5t-33.5 -180z" />
<glyph unicode="&#xe00a;" horiz-adv-x="1220" d="M76 442l8 45h242l67 385h-250l9 43h249l70 416h43l-68 -416h408l68 416h47l-72 -416h252l-10 -43h-248l-64 -385h244l-8 -45h-244l-74 -442h-49l78 442h-409l-78 -442h-45l77 442h-243zM373 487h407l66 385h-408z" />
<glyph unicode="&#xe00b;" horiz-adv-x="1150" d="M74 346q0 23 2 35h51q0 -295 373 -342v663q-75 15 -128 31t-103 40.5t-80 55.5t-48 76t-18 103q0 125 94 216.5t283 112.5v146h47v-1653h-47v158q-199 18 -312.5 110.5t-113.5 247.5zM186 1012q0 -57 17 -96.5t58 -68.5t96 -48t143 -39v522q-159 -18 -236.5 -92 t-77.5 -178zM623 -170v1653h47v-146q165 -14 269.5 -97t104.5 -228q0 -15 -4 -27h-47q0 42 -9 79.5t-32 74t-59 65t-93 49.5t-130 29v-561q96 -20 165 -46t127 -67.5t87.5 -104t29.5 -145.5q0 -66 -24 -126.5t-72 -111.5t-128.5 -85.5t-184.5 -44.5v-160h-47zM670 41 q96 11 167.5 42.5t110 75.5t56.5 90.5t18 96.5q0 134 -79 207.5t-273 114.5v-627z" />
<glyph unicode="&#xe00c;" horiz-adv-x="1212" d="M63 754v45h113q6 121 41 219.5t98.5 171.5t160.5 113t220 40q117 0 210.5 -35t152.5 -110.5t59 -181.5q0 -17 -2 -27h-45q-1 58 -21 109t-62.5 96t-119.5 71.5t-180 26.5q-212 0 -327.5 -130.5t-129.5 -362.5h727v-45h-895zM66 586v47h897v-47h-738q9 -549 461 -549 q91 0 163.5 20.5t118 53.5t76 77.5t43 90t13.5 94.5h43q2 -14 2 -31q0 -160 -127.5 -257t-329.5 -97q-138 0 -238 41t-160 121t-89 187t-31 249h-104z" />
<glyph unicode="&#xe00e;" horiz-adv-x="1032" d="M61 0v47h62q62 74 97.5 186t35.5 207q0 91 -39 238h-154v45h146q-53 185 -53 264q0 155 105.5 254.5t303.5 99.5q167 0 283.5 -77t116.5 -203q0 -15 -2 -25h-41q-1 49 -22.5 94t-63 82.5t-112 59.5t-159.5 22q-169 0 -263.5 -88t-94.5 -233q0 -68 57 -250h402v-45h-394 q33 -144 33 -244q0 -209 -121 -387h758v-47h-881z" />
<glyph unicode="&#xe00f;" horiz-adv-x="1040" d="M133 653q0 102 21 188t65 158.5t122 116.5t183 51v219h49v-217q66 -2 124.5 -18t106 -47t75.5 -82t28 -117q0 -14 -2 -24h-43q-1 44 -16 83.5t-47 75t-90 58t-136 24.5v-917q87 1 150 27t95.5 67.5t47 84t15.5 87.5h43q2 -10 2 -25q0 -133 -98.5 -209t-254.5 -79v-258 h-49v258q-207 7 -299 128t-92 367zM190 657q0 -235 84 -339t250 -113v915q-167 -12 -250.5 -136t-83.5 -327z" />
<glyph unicode="&#xe010;" horiz-adv-x="1058" d="M43 1319h68l202 -344q137 -230 197 -340h16q85 153 191 319l225 365h66l-445 -725h408v-47h-881v47h383zM90 379v47h881v-47h-424v-379h-60v379h-397z" />
<glyph unicode="&#xe024;" horiz-adv-x="1171" d="M137 483q0 104 25 193t77 162t142 115t209 42q101 0 179.5 -29.5t127.5 -78t80.5 -116.5t44 -137.5t12.5 -148.5q0 -101 -23.5 -187t-74.5 -158.5t-142 -114t-214 -41.5q-118 0 -204.5 37t-138 105t-76 156.5t-24.5 200.5zM190 483q0 -221 100 -337.5t290 -116.5 q187 0 294 113t107 343q0 105 -22 187.5t-67.5 145.5t-122 96.5t-179.5 33.5q-106 0 -185 -36t-125 -100.5t-68 -146.5t-22 -182z" />
<glyph unicode="&#xe025;" horiz-adv-x="1171" d="M199 0v45h376v868l-329 -61v35l327 92h58v-934h375v-45h-807z" />
<glyph unicode="&#xe026;" horiz-adv-x="1171" d="M154 0v35q0 46 14.5 87.5t34.5 73t58 64.5t68.5 54t84.5 49t86 42.5t92 40.5q51 22 78.5 34.5t71.5 34.5t68.5 38t54.5 39.5t45.5 45t26.5 49.5t11 58q0 105 -87 157t-232 52q-108 0 -187.5 -23t-123.5 -63t-65 -86t-22 -100h-43q-2 12 -2 18q0 99 60.5 169.5 t158.5 103.5t222 33q182 0 281.5 -69t99.5 -189q0 -35 -11.5 -67.5t-28.5 -58t-47.5 -52t-58 -45t-71.5 -41.5t-75 -37.5t-81 -36.5q-186 -83 -253 -124q-159 -99 -168 -222q-1 -9 -1 -17h829v-47h-888z" />
<glyph unicode="&#xe027;" horiz-adv-x="1171" d="M100 27q0 16 2 28h41q1 -53 20.5 -101t60.5 -91.5t118 -69.5t180 -26q193 0 305.5 93.5t112.5 256.5q0 321 -432 321q-54 0 -72 -2l-24 39l462 443l-8 10h-696v51h782v-55l-458 -435l4 -8q14 2 41 2q208 0 330 -92t122 -270q0 -181 -128.5 -291.5t-338.5 -110.5 q-116 0 -210 33.5t-154 104.5t-60 170z" />
<glyph unicode="&#xe028;" horiz-adv-x="1171" d="M61 0v51l727 928h46v-932h219v-47h-219v-264h-52v264h-721zM121 47h661v844z" />
<glyph unicode="&#xe029;" horiz-adv-x="1171" d="M129 27q0 16 2 28h41q1 -42 12 -80.5t38 -77t68.5 -67t107.5 -46t149 -17.5q184 0 297.5 99t113.5 263q0 93 -33.5 161.5t-92.5 107t-130.5 57t-156.5 18.5q-128 0 -266 -41l-48 21l80 526h637v-51h-596l-67 -447q125 39 258 39q93 0 173.5 -21t148 -65t106.5 -122 t39 -183q0 -183 -126.5 -296.5t-334.5 -113.5q-116 0 -209 33.5t-152 104.5t-59 170z" />
<glyph unicode="&#xe02a;" horiz-adv-x="1171" d="M147 551q0 112 12.5 210t46 192.5t85.5 161.5t136.5 108t193.5 41q153 0 256.5 -73.5t103.5 -203.5q0 -16 -2 -26h-43q-1 49 -17.5 92t-51 81t-98 60.5t-148.5 22.5q-72 0 -131.5 -21.5t-102.5 -58.5t-75.5 -92t-53 -116t-34 -137.5t-19.5 -149t-8 -157.5l6 -2 q36 118 147.5 202.5t257.5 84.5q195 0 308.5 -99.5t113.5 -281.5t-112 -293.5t-326 -111.5q-238 0 -341.5 131.5t-103.5 435.5zM227 358q0 -72 21.5 -129t56.5 -94t84 -61.5t100.5 -34.5t108.5 -10q75 0 141.5 21.5t120 63.5t84.5 112t31 159q0 153 -92 244.5t-279 91.5 q-152 0 -264.5 -109.5t-112.5 -253.5z" />
<glyph unicode="&#xe02b;" horiz-adv-x="1171" d="M139 928v51h852v-51l-600 -1190h-55l600 1190h-797z" />
<glyph unicode="&#xe02c;" horiz-adv-x="1171" d="M145 322q0 35 7 68.5t28.5 76t57 77.5t99 68.5t146.5 55.5l2 6q-282 66 -282 284q0 53 23.5 105t68 97t120 72.5t169.5 27.5q105 0 183.5 -27.5t120.5 -73t61.5 -96t19.5 -105.5q0 -34 -12 -70t-39.5 -76.5t-82.5 -77t-130 -58.5v-8q82 -19 144 -52.5t94.5 -68.5 t52.5 -78t25 -73.5t5 -61.5q0 -68 -28 -130t-81.5 -111.5t-139.5 -79t-193 -29.5q-204 0 -321.5 90.5t-117.5 247.5zM195 317q0 -98 57 -166t142.5 -97t189.5 -29q106 0 192.5 33t142.5 103.5t56 168.5q0 132 -100.5 217t-286.5 100q-186 -25 -289.5 -111.5t-103.5 -218.5z M256 958q0 -107 82 -168t248 -100q157 24 245.5 98t88.5 173q0 121 -93 187t-243 66q-140 0 -234 -69t-94 -187z" />
<glyph unicode="&#xe02d;" horiz-adv-x="1171" d="M131 598q0 186 114.5 296t327.5 110q449 0 449 -570q0 -102 -8 -185t-27.5 -167.5t-56 -147t-90 -112t-134 -75.5t-182.5 -26q-101 0 -183.5 31t-133.5 95t-51 151q0 17 2 27h43q1 -44 16.5 -85.5t49.5 -81.5t101.5 -64.5t159.5 -24.5q79 0 143 19.5t110 53t79.5 86 t54.5 111.5t34 137t17.5 154.5t4.5 171.5l-6 2q-34 -120 -145.5 -204.5t-256.5 -84.5q-206 0 -319 98.5t-113 284.5zM188 602q0 -157 90.5 -249.5t288.5 -92.5q157 0 264 110.5t107 256.5q0 82 -31.5 147t-84.5 103t-116.5 57.5t-132.5 19.5q-75 0 -140 -18t-122 -57 t-90 -110t-33 -167z" />
<glyph unicode="&#xe02e;" horiz-adv-x="1171" d="M102 377l9 37h217l61 327h-225l6 37h225l64 355h39l-62 -355h367l61 355h41l-63 -355h227l-10 -37h-223l-58 -327h219l-6 -37h-219l-67 -377h-43l69 377h-369l-69 -377h-41l70 377h-220zM371 414h366l58 327h-367z" />
<glyph unicode="&#xe02f;" horiz-adv-x="1171" d="M154 283q0 22 2 32h43q0 -251 319 -297v576q-81 18 -133.5 36.5t-99 48.5t-68.5 74.5t-22 106.5q0 51 19.5 98.5t57.5 87.5t101.5 66.5t144.5 32.5v131h43v-1446h-43v143q-169 19 -266.5 99.5t-97.5 210.5zM246 862q0 -92 64 -139t208 -80v455q-139 -11 -205.5 -77 t-66.5 -159zM625 -170v1446h43v-131q140 -14 231.5 -88t91.5 -195q0 -12 -4 -24h-39q0 97 -66 168.5t-214 91.5v-490q82 -18 141 -40t110 -58t77 -90.5t26 -126.5q0 -115 -93.5 -205.5t-260.5 -112.5v-145h-43zM668 20q152 22 228.5 97.5t76.5 165.5q0 115 -72.5 181.5 t-232.5 98.5v-543z" />
<glyph unicode="&#xe030;" horiz-adv-x="1171" d="M111 666v41h104q11 221 132 351t345 130q107 0 193 -31.5t140 -98.5t54 -161q0 -15 -2 -23h-41q-1 52 -19.5 97t-57.5 85t-109.5 63.5t-165.5 23.5q-193 0 -299.5 -115.5t-120.5 -320.5h668v-41h-821zM113 516v43h823v-43h-676q6 -485 422 -485q84 0 151 18t109 47.5 t69.5 69t39 79.5t12.5 83h39q2 -12 2 -27q0 -141 -117 -227t-303 -86q-127 0 -218.5 36.5t-146.5 107t-81.5 165t-28.5 219.5h-96z" />
<glyph unicode="&#xe032;" horiz-adv-x="1171" d="M186 0v45h56q57 67 88.5 165t31.5 181q0 79 -36 211h-138v41h131q-29 101 -39 148t-10 88q0 137 95.5 224t275.5 87q152 0 256 -68.5t104 -181.5q0 -12 -2 -22h-36q-2 95 -83 161t-239 66q-154 0 -238 -75.5t-84 -203.5q0 -66 50 -223h362v-41h-354q31 -129 31 -215 q0 -180 -111 -342h684v-45h-795z" />
<glyph unicode="&#xe033;" horiz-adv-x="1171" d="M266 528q0 88 18.5 162.5t57.5 138t108 101t162 41.5v190h45v-188q122 2 209.5 -60t87.5 -168q0 -12 -2 -22h-37q-2 83 -63.5 142t-194.5 63v-783q62 1 111 15.5t78.5 37.5t49 53.5t26.5 59.5t8 60h39q2 -10 2 -23q0 -112 -91.5 -179t-222.5 -69v-223h-45v223 q-181 12 -263.5 115t-82.5 313zM313 532q0 -204 74.5 -291.5t224.5 -95.5v781q-151 -10 -225 -114.5t-74 -279.5z" />
<glyph unicode="&#xe034;" horiz-adv-x="1171" d="M133 1174h64l190 -306q130 -213 182 -303h17q75 126 178 285l211 324h61l-415 -646h380v-45h-823v45h359zM178 338v45h823v-45h-397v-338h-55v338h-371z" />
<glyph unicode="&#xe059;" horiz-adv-x="1437" d="M86 834q0 165 73.5 258.5t233.5 93.5q84 0 144 -28.5t92.5 -80t46.5 -111t14 -132.5q0 -53 -9 -100.5t-30.5 -92t-55 -76t-86 -50.5t-118.5 -19q-165 0 -235 88.5t-70 249.5zM133 834q0 -299 258 -299q118 0 187 76t69 223q0 145 -62.5 228t-193.5 83q-140 0 -199 -81 t-59 -230zM322 -53l768 1278h47l-768 -1278h-47zM788 324q0 165 74 258.5t234 93.5q84 0 144 -28.5t92.5 -80t46.5 -111t14 -132.5q0 -53 -9 -100.5t-30.5 -92t-55 -76t-86 -50.5t-118.5 -19q-167 0 -236.5 88t-69.5 250zM836 324q0 -299 258 -299q118 0 187 76t69 223 q0 145 -62.5 228t-193.5 83q-140 0 -199 -81t-59 -230z" />
<glyph unicode="&#xe06c;" horiz-adv-x="661" d="M43 762q0 95 82 158t242 63q65 0 159 -16v47q0 184 -198 184q-104 0 -151.5 -45.5t-47.5 -108.5h-43q-4 12 -4 23q0 89 72.5 134.5t167.5 45.5q136 0 198 -61.5t62 -163.5v-428h-41q-13 29 -13 98l-8 4q-88 -112 -254 -112q-98 0 -160.5 43.5t-62.5 134.5zM96 762 q0 -60 42.5 -96.5t125.5 -36.5q60 0 107 14.5t75.5 37t47 52t25.5 57t7 54.5v76q-81 16 -161 16q-131 0 -200 -50t-69 -124z" />
<glyph unicode="&#xe06d;" horiz-adv-x="727" d="M78 594v944h53v-258q0 -101 -4 -150l8 -2q34 50 95.5 84.5t138.5 34.5q288 0 288 -336q0 -145 -72.5 -236t-219.5 -91q-163 0 -228 108l-6 -2q0 -56 -12 -96h-41zM131 858q0 -105 60 -166t171 -61q242 0 242 280q0 137 -54 212t-183 75q-59 0 -106 -23t-74.5 -60.5 t-41.5 -79.5t-14 -85v-92z" />
<glyph unicode="&#xe06f;" horiz-adv-x="727" d="M63 905q0 71 16 130.5t49 108t91 76t135 27.5q87 0 144 -33t86 -81l6 2v401h53v-942h-39q-12 34 -12 98h-8q-84 -108 -236 -108q-81 0 -139 26.5t-88.5 73.5t-44 101t-13.5 120zM119 905q0 -141 58 -208.5t181 -67.5q112 0 172 67.5t60 161.5v92q0 64 -23.5 118.5t-78 92 t-132.5 37.5q-124 0 -180.5 -79t-56.5 -214z" />
<glyph unicode="&#xe070;" horiz-adv-x="700" d="M63 913q0 71 16 129.5t49.5 105.5t91.5 73t136 26q143 0 205 -75.5t62 -198.5q0 -19 -5 -64h-499q3 -278 239 -278q63 0 107.5 16t66.5 42.5t31 53t10 56.5h45v-23q0 -91 -74.5 -141.5t-187.5 -50.5q-157 0 -225 86.5t-68 242.5zM121 956h450q-1 53 -10.5 93t-32 75.5 t-66 54.5t-106.5 19q-216 0 -235 -242z" />
<glyph unicode="&#xe073;" horiz-adv-x="714" d="M78 594v942h53v-283q0 -81 -10 -135h8q33 63 97.5 96t146.5 33q66 0 114 -17t75.5 -43.5t44 -66.5t21.5 -77.5t5 -84.5v-364h-53v364q0 37 -3.5 66t-16 63.5t-34.5 57t-62.5 38t-96.5 15.5q-115 0 -175.5 -70t-60.5 -170v-364h-53z" />
<glyph unicode="&#xe074;" horiz-adv-x="296" d="M98 1452q0 19 13 32t32 13t32 -13t13 -32t-13 -32t-32 -13t-32 13t-13 32zM121 594v643h53v-643h-53z" />
<glyph unicode="&#xe077;" horiz-adv-x="266" d="M98 688v850h52v-840q0 -41 12 -51.5t63 -13.5v-41q-18 -4 -47 -4q-49 0 -64.5 24t-15.5 76z" />
<glyph unicode="&#xe078;" horiz-adv-x="1196" d="M80 594v649h43q10 -29 10 -115h8q80 119 228 119q93 0 153 -40t80 -105q68 145 254 145q66 0 114 -19t74 -47.5t41 -72.5t19 -82t4 -88v-344h-53v344q0 41 -3 72.5t-15 69t-33 61.5t-59.5 40.5t-92.5 16.5q-112 0 -171.5 -70t-59.5 -170v-364h-54v344q0 43 -3.5 75 t-15.5 69t-33 60.5t-59 39.5t-91 16q-112 0 -172 -70t-60 -170v-364h-53z" />
<glyph unicode="&#xe079;" horiz-adv-x="735" d="M63 905q0 74 17 134t52.5 107.5t95 74t139.5 26.5q69 0 122.5 -19.5t86 -51t53.5 -76.5t29 -91t8 -98q0 -64 -14.5 -119t-47 -103.5t-93 -76.5t-144.5 -28q-304 0 -304 321zM121 905q0 -136 58 -205t188 -69q117 0 181 71.5t64 208.5q0 131 -57.5 210t-187.5 79 q-127 0 -186.5 -82t-59.5 -213z" />
<glyph unicode="&#xe07c;" horiz-adv-x="403" d="M98 594v649h37q15 -31 15 -108l6 -2q34 53 97.5 84.5t139.5 31.5l4 -57q-62 -3 -107 -18.5t-71.5 -37.5t-41.5 -54.5t-20 -63.5t-5 -72v-352h-54z" />
<glyph unicode="&#xe07d;" horiz-adv-x="645" d="M57 776q0 11 4 23h41q2 -71 49.5 -119.5t161.5 -48.5q108 0 160.5 39.5t52.5 93.5q0 63 -50 95.5t-152 41.5q-42 5 -73 10.5t-66 18t-56.5 29t-36 44.5t-14.5 64q0 78 59.5 129t184.5 51q101 0 170 -43.5t69 -128.5q0 -8 -4 -24h-45q0 64 -45 106.5t-148 42.5 q-91 0 -139.5 -35.5t-48.5 -89.5q0 -64 51 -88.5t168 -38.5q108 -12 169 -52.5t61 -125.5q0 -80 -65 -133t-200 -53q-115 0 -186.5 48.5t-71.5 143.5z" />
<glyph unicode="&#xe07e;" horiz-adv-x="442" d="M23 1194v41l112 8l15 152h38v-152h207v-49h-207v-403q0 -89 39 -123.5t117 -34.5q51 0 86 4v-45q-46 -6 -96 -6q-105 0 -152 46.5t-47 164.5v397h-112z" />
<glyph unicode="&#xe081;" horiz-adv-x="378" d="M102 1176q0 28 15 55l135 242l24 -11l-90 -196q39 0 64.5 -25.5t25.5 -62.5t-25.5 -61.5t-62.5 -24.5q-39 0 -62.5 22.5t-23.5 61.5z" />
<glyph unicode="&#xe083;" horiz-adv-x="591" d="M102 1174q0 28 15 55l135 241l22 -12l-88 -194q39 0 64.5 -25.5t25.5 -62.5t-25.5 -61.5t-62.5 -24.5q-39 0 -62.5 22.5t-23.5 61.5zM315 1174q0 28 15 55l135 241l22 -12l-88 -194q39 0 64.5 -25.5t25.5 -62.5t-25.5 -61.5t-62.5 -24.5q-39 0 -62.5 22.5t-23.5 61.5z " />
<glyph unicode="&#xe084;" horiz-adv-x="591" d="M102 1384q0 37 25.5 61.5t62.5 24.5q39 0 62.5 -22.5t23.5 -61.5q0 -30 -14 -55l-135 -241l-23 12l89 194q-39 0 -65 25.5t-26 62.5zM315 1384q0 37 25.5 61.5t62.5 24.5q39 0 62.5 -22.5t23.5 -61.5q0 -30 -14 -55l-135 -241l-23 12l89 194q-39 0 -65 25.5t-26 62.5z " />
<glyph unicode="&#xe0d8;" horiz-adv-x="563" d="M115 659q0 251 93 466.5t251 381.5l24 -18q-313 -384 -313 -815q0 -428 313 -824l-24 -22q-155 163 -249.5 377.5t-94.5 453.5z" />
<glyph unicode="&#xe0d9;" horiz-adv-x="563" d="M66 -150q313 396 313 824q0 431 -313 815l24 18q158 -166 251 -381.5t93 -466.5q0 -239 -94.5 -453.5t-249.5 -377.5z" />
<glyph unicode="&#xe0da;" horiz-adv-x="917" d="M211 539v67h496v-67h-496z" />
<glyph unicode="&#xe0db;" horiz-adv-x="581" d="M162 -193v1709h270v-46h-217v-1617h217v-46h-270z" />
<glyph unicode="&#xe0dc;" horiz-adv-x="581" d="M162 -147h217v1617h-217v46h270l-2 -1709h-268v46z" />
<glyph unicode="&#xe0dd;" horiz-adv-x="692" d="M190 629v37q37 8 60.5 22.5t37 31.5t20 51t8 63.5t1.5 87.5v409q0 85 37 130.5t107 45.5h78v-41h-60q-31 0 -52.5 -9t-33 -22.5t-17.5 -38t-7.5 -45.5t-1.5 -55v-409q0 -50 -2.5 -79.5t-12 -64.5t-31.5 -57.5t-57 -38.5v-4q28 -10 48 -30.5t30 -41.5t15.5 -55t6.5 -57.5 t1 -61.5v-368q0 -94 26.5 -136.5t93.5 -42.5h54v-45h-66q-70 0 -112 50t-42 137v385q0 127 -22.5 177t-106.5 75z" />
<glyph unicode="&#xe0de;" horiz-adv-x="692" d="M190 -150h54q67 0 94 42.5t27 136.5v368q0 39 1 62t6 57t15 55t30 41.5t48 30.5v4q-35 16 -57 38.5t-31.5 57.5t-12 64.5t-2.5 79.5v409q0 34 -1.5 55t-7.5 45.5t-17.5 38t-33 22.5t-52.5 9h-60v41h78q70 0 107 -45.5t37 -130.5v-409q0 -58 1.5 -87.5t8 -63.5t20 -51 t37 -31.5t60.5 -22.5v-37q-84 -25 -106.5 -75t-22.5 -177v-385q0 -87 -42 -137t-112 -50h-66v45z" />
<glyph unicode="&#xe0df;" horiz-adv-x="1024" d="M53 553v51h926v-51h-926z" />
<glyph unicode="&#xe0e0;" horiz-adv-x="2048" d="M37 553v51h1984v-51h-1984z" />
<glyph unicode="&#xe0e3;" horiz-adv-x="811" d="M133 502v28l305 388l27 -19l-264 -383l284 -375l-28 -20zM371 502v28l305 388l26 -19l-264 -383l285 -375l-29 -20z" />
<glyph unicode="&#xe0e4;" horiz-adv-x="811" d="M133 141l285 375l-264 383l26 19l305 -388v-28l-323 -381zM371 141l284 375l-264 383l27 19l305 -388v-28l-324 -381z" />
<glyph unicode="&#xe0fb;" horiz-adv-x="1214" d="M117 252q0 85 66 167t188 146q-135 145 -135 242q0 84 61.5 149.5t171.5 65.5q103 0 161 -53t58 -133q0 -83 -60 -151t-175 -134q222 -242 432 -410q99 70 149.5 172t50.5 203q0 79 -38.5 139t-133.5 103l21 39q103 -37 154 -110t51 -167q0 -108 -52.5 -220.5 t-158.5 -190.5q104 -77 198 -138l-28 -37q-106 63 -217 146q-157 -92 -373 -92q-84 0 -152.5 14t-123 44t-85 82t-30.5 124zM172 252q0 -105 89.5 -161t242.5 -56q203 0 336 76q-231 183 -439 417q-229 -128 -229 -276zM295 811q0 -35 18 -74t36 -62.5t58 -69.5q1 -2 2.5 -3 t3 -3t3 -3.5t2.5 -3.5q54 31 85 51.5t64.5 50.5t48.5 63t15 72q0 64 -45 104t-119 40q-46 0 -81.5 -16.5t-54 -42.5t-27.5 -52.5t-9 -50.5z" />
<glyph unicode="&#xe0fc;" horiz-adv-x="493" d="M190 51q0 25 17.5 42.5t42.5 17.5t42 -17.5t17 -42.5t-17 -42t-42 -17t-42.5 17t-17.5 42zM215 1051h72l-13 -809h-47z" />
<glyph unicode="&#xe0fd;" horiz-adv-x="993" d="M143 791q0 126 91 192t245 66q165 0 244.5 -67t79.5 -175q0 -61 -40 -118.5t-116 -121.5q-84 -69 -128 -135t-44 -160v-65h-63v57q0 96 37 172.5t122 147.5q84 69 124 117.5t40 99.5q0 192 -254 192q-280 0 -284 -229h-50q-4 16 -4 27zM383 51q0 25 17 42.5t42 17.5 t42.5 -17.5t17.5 -42.5t-17.5 -42t-42.5 -17t-42 17t-17 42z" />
<glyph unicode="&#xe0fe;" horiz-adv-x="946" d="M33 0l407 1026h62l411 -1026h-61l-111 281h-538l-111 -281h-59zM223 334h498l-133 325q-61 148 -115 295l-8 -2q-79 -206 -107 -278z" />
<glyph unicode="&#xe0ff;" horiz-adv-x="1032" d="M129 0v1026h430q160 0 250 -67t90 -199q0 -27 -6.5 -54t-22.5 -58t-48.5 -57.5t-78.5 -43.5v-8q97 -28 144 -99.5t47 -160.5q0 -53 -19.5 -101t-60.5 -89t-113 -65t-168 -24h-444zM188 47h381q58 0 110 12.5t97 38t71.5 70t26.5 102.5q0 118 -79.5 184t-192.5 66h-414 v-473zM188 569h387q116 0 191.5 46.5t75.5 144.5q0 49 -16.5 87.5t-44.5 63t-67 40t-80.5 22t-88.5 6.5h-357v-410z" />
<glyph unicode="&#xe100;" horiz-adv-x="1011" d="M109 500q0 122 25 217.5t78 169t142 112.5t211 39q153 0 257 -67t104 -189q0 -12 -4 -26h-45q-2 43 -20.5 81.5t-54 73.5t-99 55.5t-146.5 20.5q-202 0 -296.5 -128t-94.5 -359q0 -240 95.5 -352.5t293.5 -112.5q91 0 159.5 23.5t106 63t56 82.5t20.5 91h47q4 -18 4 -29 q0 -125 -110 -201.5t-281 -76.5q-125 0 -213.5 36.5t-139 106t-73 160t-22.5 209.5z" />
<glyph unicode="&#xe101;" horiz-adv-x="1042" d="M129 0v1026h320q72 0 138 -15.5t130.5 -54t111.5 -96t76 -148t29 -204.5q0 -232 -138.5 -370t-346.5 -138h-320zM184 47h242q58 0 114 10.5t119 41.5t109.5 80.5t77.5 135.5t31 197t-29 196t-73.5 135t-105.5 82t-117.5 43t-117.5 11h-250v-932z" />
<glyph unicode="&#xe102;" horiz-adv-x="876" d="M129 0v1026h651v-47h-594v-418h551v-49h-551v-465h623v-47h-680z" />
<glyph unicode="&#xe103;" horiz-adv-x="843" d="M129 0v1026h678v-47h-625v-416h553v-49h-553v-514h-53z" />
<glyph unicode="&#xe104;" horiz-adv-x="1093" d="M109 502q0 120 27 216t81.5 168.5t145 112t210.5 39.5q101 0 184.5 -27.5t138 -87t54.5 -141.5q0 -10 -4 -24h-47q-2 42 -20 81t-55 74t-103.5 55.5t-153.5 20.5q-135 0 -226 -62t-133 -169t-42 -256q0 -469 397 -469q75 0 134.5 15.5t98 42.5t65.5 59t40.5 71t19 72 t5.5 67v119h-328v45h381v-170q0 -166 -103.5 -267t-312.5 -101q-454 0 -454 516z" />
<glyph unicode="&#xe105;" horiz-adv-x="1056" d="M129 0v1028h57v-465h682v465h60v-1028h-60v514h-682v-514h-57z" />
<glyph unicode="&#xe106;" horiz-adv-x="395" d="M170 0v1026h55v-1026h-55z" />
<glyph unicode="&#xe107;" horiz-adv-x="923" d="M43 250q0 10 4 26h49q1 -45 16 -84.5t48.5 -76.5t98 -58.5t153.5 -21.5q157 0 240 77t83 210v704h60v-713q0 -64 -21.5 -120.5t-65 -104t-119 -75t-175.5 -27.5q-168 0 -269.5 69t-101.5 195z" />
<glyph unicode="&#xe108;" horiz-adv-x="927" d="M129 0v1026h59v-457h218l399 457h74l-420 -481l432 -545h-78l-405 516h-220v-516h-59z" />
<glyph unicode="&#xe109;" horiz-adv-x="858" d="M129 0v1026h57v-979h635v-47h-692z" />
<glyph unicode="&#xe10a;" horiz-adv-x="1265" d="M129 0v1026h51l287 -516q42 -76 160 -293h12q63 122 160 297l280 512h58v-1026h-58v913l-6 2q-39 -86 -112 -217l-299 -544h-58l-317 565q-19 32 -51 94.5t-43 83.5l-9 -4v-893h-55z" />
<glyph unicode="&#xe10b;" horiz-adv-x="1064" d="M129 0v1026h49l473 -629l219 -297l9 4v922h57v-1026h-51l-496 662q-20 27 -59 82t-71.5 99t-63.5 83l-9 -2v-924h-57z" />
<glyph unicode="&#xe10c;" horiz-adv-x="1095" d="M109 502q0 91 14 169t47.5 146.5t83.5 116t126 75t173 27.5q101 0 178.5 -30t125 -79.5t77.5 -120t41.5 -143.5t11.5 -159q0 -81 -12 -152t-43 -139t-79 -117t-124.5 -78.5t-175.5 -29.5q-444 0 -444 514zM164 502q0 -237 96.5 -352t290.5 -115q181 0 279 116.5t98 352.5 q0 113 -19 198.5t-62 151t-117.5 99.5t-178.5 34q-106 0 -182 -34t-120.5 -100t-64.5 -152t-20 -199z" />
<glyph unicode="&#xe10d;" horiz-adv-x="923" d="M129 0v1026h401q161 0 250.5 -88.5t89.5 -228.5q0 -54 -17 -104t-53.5 -97.5t-106 -76t-163.5 -28.5h-344v-403h-57zM186 451h336q46 0 86.5 7.5t79.5 26.5t67 47.5t45 74.5t17 104q0 124 -82.5 196t-212.5 72h-336v-528z" />
<glyph unicode="&#xe10e;" horiz-adv-x="1095" d="M109 502q0 119 23.5 213t74 167.5t138.5 113.5t208 40q434 0 434 -532q0 -89 -17.5 -169t-56.5 -154t-110 -123.5t-168 -63.5q130 -57 272 -100l-22 -56q-190 61 -332 150q-444 0 -444 514zM164 502q0 -237 96.5 -352t290.5 -115q181 0 279 116.5t98 352.5 q0 113 -19 198.5t-62 151t-117.5 99.5t-178.5 34q-106 0 -182 -34t-120.5 -100t-64.5 -152t-20 -199z" />
<glyph unicode="&#xe10f;" horiz-adv-x="931" d="M129 0v1026h401q167 0 255.5 -81.5t88.5 -219.5q0 -48 -17 -95.5t-53.5 -93t-107.5 -74t-166 -28.5h-38l358 -434h-64l-360 434h-242v-434h-55zM184 483h340q46 0 86.5 6.5t79 24t66 44t44.5 70t17 99.5q0 122 -81.5 187t-213.5 65h-338v-496z" />
<glyph unicode="&#xe110;" horiz-adv-x="1028" d="M121 285q0 14 4 30h43q1 -47 9 -85t30.5 -75.5t59 -63t96 -41t139.5 -15.5q97 0 168.5 20t110.5 54t57 72.5t18 82.5q0 111 -82 171.5t-254 82.5q-61 8 -103 15t-88.5 19.5t-76.5 29.5t-55.5 41.5t-37.5 59t-12 79.5q0 55 20.5 102.5t63.5 87.5t118.5 63t176.5 23 q63 0 124.5 -16t114.5 -46.5t85.5 -83t32.5 -118.5q0 -21 -2 -33h-45q0 105 -78.5 176.5t-237.5 71.5q-162 0 -238.5 -63t-76.5 -156q0 -43 14.5 -74t38.5 -51.5t72.5 -35.5t98 -24.5t134.5 -21.5q348 -49 348 -287q0 -58 -22 -107.5t-68.5 -91t-127.5 -65.5t-189 -24 q-188 0 -285.5 75.5t-97.5 221.5z" />
<glyph unicode="&#xe111;" horiz-adv-x="880" d="M37 979v47h807v-47h-375v-979h-53v979h-379z" />
<glyph unicode="&#xe112;" horiz-adv-x="1071" d="M129 410v616h57v-614q0 -207 87 -291t266 -84q168 0 256 88t88 289v612h59v-614q0 -424 -405 -424q-116 0 -197.5 31t-126.5 89.5t-64.5 131.5t-19.5 170z" />
<glyph unicode="&#xe113;" horiz-adv-x="944" d="M33 1026h61l199 -496q19 -48 56 -136.5t65.5 -161.5t50.5 -140h16q22 63 49 132t61.5 154t51.5 128l205 520h63l-409 -1026h-62z" />
<glyph unicode="&#xe114;" horiz-adv-x="1382" d="M33 1026h57l162 -565q9 -30 43.5 -161t58.5 -202h13q15 52 108 351l182 577h58l182 -567q74 -225 113 -363l10 -2q83 305 108 393l154 539h59l-294 -1026h-64l-188 588q-14 43 -50 164t-57 182h-8q-12 -49 -28 -102.5t-43.5 -137.5t-33.5 -104l-186 -590h-59z" />
<glyph unicode="&#xe115;" horiz-adv-x="901" d="M33 0l385 537l-344 489h65l314 -446l317 446h66l-351 -487l383 -539h-71l-346 494l-351 -494h-67z" />
<glyph unicode="&#xe116;" horiz-adv-x="866" d="M33 1026h65l183 -305q79 -133 141 -252h8q16 32 37 68t35.5 60t39.5 63.5t36 58.5l190 307h66l-379 -616v-410h-58v410q-258 434 -364 616z" />
<glyph unicode="&#xe117;" horiz-adv-x="882" d="M57 0v45l680 934h-655v47h727v-41l-682 -938h698v-47h-768z" />
<glyph unicode="&#xe119;" horiz-adv-x="1404" d="M102 502q0 115 25 208.5t78.5 168.5t146.5 116t219 41q57 0 115 -10h649v-51h-635v-414h580v-51h-580v-459h652v-51h-658q-58 -12 -125 -12q-467 0 -467 514zM162 502q0 -237 101 -352t304 -115q49 0 72 4v944q-46 4 -72 4q-111 0 -190.5 -34t-126 -100t-67.5 -152 t-21 -199z" />
<glyph unicode="&#xe122;" horiz-adv-x="1640" d="M29 0l821 1026h717v-51h-635v-414h579v-51h-579v-459h651v-51h-713v281h-544l-224 -281h-73zM369 334h501v633z" />
<glyph unicode="&#xe1a9;" horiz-adv-x="876" d="M129 0v1026h651v-47h-594v-418h551v-49h-551v-465h623v-47h-680zM225 1167q0 21 13.5 35.5t33.5 14.5t35 -15t15 -35t-14.5 -33.5t-35.5 -13.5q-20 0 -33.5 13.5t-13.5 33.5zM539 1167q0 21 13.5 35.5t33.5 14.5t34.5 -15t14.5 -35t-14.5 -33.5t-34.5 -13.5t-33.5 13.5 t-13.5 33.5z" />
<glyph unicode="&#xe1aa;" horiz-adv-x="1210" d="M31 977v47h901v-47h-496v-383q54 48 144 84.5t176 36.5q81 0 144.5 -26t101.5 -66t63 -93.5t34 -103.5t9 -102q0 -56 -6.5 -104.5t-28.5 -105.5t-58 -96.5t-101 -66.5t-152 -27q-23 0 -35 2l2 45q81 0 142 21.5t95 54t54.5 80t26.5 90t6 94.5q0 44 -6 86t-26 92t-52 86.5 t-89 61.5t-132 25q-74 0 -163 -36t-149 -98v-528h-53v977h-352z" />
<glyph unicode="&#xe1ab;" horiz-adv-x="839" d="M127 0v1026h680v-47h-623v-979h-57zM356 1139l209 268l66 -49l-248 -240z" />
<glyph unicode="&#xe1ac;" horiz-adv-x="1011" d="M109 500q0 122 25 217.5t78 169t142 112.5t211 39q153 0 257 -67t104 -189q0 -12 -4 -26h-45q-2 43 -20.5 81.5t-54 73.5t-99 55.5t-146.5 20.5q-187 0 -282.5 -111.5t-106.5 -312.5h534v-55h-536q0 -245 95.5 -359t293.5 -114q91 0 159.5 23.5t106 63t56 82.5t20.5 91 h47q4 -18 4 -29q0 -125 -110 -201.5t-281 -76.5q-125 0 -213.5 36.5t-139 106t-73 160t-22.5 209.5z" />
<glyph unicode="&#xe1ad;" horiz-adv-x="1028" d="M121 285q0 14 4 30h43q1 -47 9 -85t30.5 -75.5t59 -63t96 -41t139.5 -15.5q97 0 168.5 20t110.5 54t57 72.5t18 82.5q0 111 -82 171.5t-254 82.5q-61 8 -103 15t-88.5 19.5t-76.5 29.5t-55.5 41.5t-37.5 59t-12 79.5q0 55 20.5 102.5t63.5 87.5t118.5 63t176.5 23 q63 0 124.5 -16t114.5 -46.5t85.5 -83t32.5 -118.5q0 -21 -2 -33h-45q0 105 -78.5 176.5t-237.5 71.5q-162 0 -238.5 -63t-76.5 -156q0 -43 14.5 -74t38.5 -51.5t72.5 -35.5t98 -24.5t134.5 -21.5q348 -49 348 -287q0 -58 -22 -107.5t-68.5 -91t-127.5 -65.5t-189 -24 q-188 0 -285.5 75.5t-97.5 221.5z" />
<glyph unicode="&#xe1ae;" horiz-adv-x="395" d="M170 0v1026h55v-1026h-55z" />
<glyph unicode="&#xe1af;" horiz-adv-x="395" d="M-8 1253q0 21 13.5 35.5t33.5 14.5t34.5 -15t14.5 -35t-14.5 -33.5t-34.5 -13.5t-33.5 13.5t-13.5 33.5zM170 0v1026h55v-1026h-55zM305 1253q0 21 13.5 35.5t33.5 14.5t34.5 -15t14.5 -35t-14.5 -33.5t-34.5 -13.5t-33.5 13.5t-13.5 33.5z" />
<glyph unicode="&#xe1b0;" horiz-adv-x="923" d="M43 250q0 10 4 26h49q1 -45 16 -84.5t48.5 -76.5t98 -58.5t153.5 -21.5q157 0 240 77t83 210v704h60v-713q0 -64 -21.5 -120.5t-65 -104t-119 -75t-175.5 -27.5q-168 0 -269.5 69t-101.5 195z" />
<glyph unicode="&#xe1b1;" horiz-adv-x="1613" d="M31 -12v47q112 0 161 68t60 210l59 711h490v-420h389q76 0 136.5 -18t98 -47t62.5 -68.5t35 -78.5t10 -81q0 -139 -90 -225t-252 -86h-445v977h-383l-57 -674q-4 -46 -10 -83t-22.5 -83t-41 -76.5t-68 -52t-100.5 -22.5q-24 0 -32 2zM801 47h375q134 0 216.5 69.5 t82.5 192.5q0 67 -26.5 116.5t-71 76.5t-94 40t-103.5 13h-379v-508z" />
<glyph unicode="&#xe1b2;" horiz-adv-x="1562" d="M115 0v1024h53v-440h537v440h57v-440h375q94 0 164 -25t107.5 -68t55 -90t17.5 -100q0 -137 -91 -219t-253 -82h-432v535h-537v-535h-53zM762 47h362q140 0 217.5 64t77.5 188q0 56 -18 98.5t-46 68t-67.5 41.5t-78 22t-81.5 6h-366v-488z" />
<glyph unicode="&#xe1b3;" horiz-adv-x="1204" d="M31 975v49h891v-49h-488v-383q61 55 156 88t186 33q72 0 127.5 -17t90.5 -45.5t57 -70t30.5 -85t8.5 -94.5v-401h-56v391q0 271 -260 271q-85 0 -182.5 -38t-157.5 -98v-526h-55v975h-348z" />
<glyph unicode="&#xe1b4;" horiz-adv-x="927" d="M129 0v1026h59v-457h218l399 457h74l-420 -481l432 -545h-78l-405 516h-220v-516h-59zM393 1184l209 268l66 -49l-248 -240z" />
<glyph unicode="&#xe1b5;" horiz-adv-x="806" d="M16 1022h62l192 -401q11 -24 60 -125t78 -166h8l303 692h59l-364 -836q-15 -34 -20.5 -45.5t-20.5 -40.5t-25.5 -40t-30.5 -30t-40.5 -27t-49.5 -14.5t-63 -6.5h-58v51h52q124 0 178 117l57 124q-3 0 -8.5 -1t-7.5 -1zM133 1389h51q-1 -33 11 -68t37 -69t72 -56t108 -22 q59 0 105 23t71.5 57.5t38 69.5t12.5 65h47q-1 -44 -17.5 -89.5t-48 -87t-86.5 -68t-124 -26.5q-70 0 -125.5 26.5t-87.5 68.5t-48 87.5t-16 88.5z" />
<glyph unicode="&#xe1b6;" horiz-adv-x="1036" d="M117 0v1022h57v-975h678v975h59l2 -1022h-368v-272h-56v272h-372z" />
<glyph unicode="&#xe1b7;" horiz-adv-x="946" d="M33 0l407 1026h62l411 -1026h-61l-111 281h-538l-111 -281h-59zM223 334h498l-133 325q-61 148 -115 295l-8 -2q-79 -206 -107 -278z" />
<glyph unicode="&#xe1b8;" horiz-adv-x="1001" d="M117 0v1024h700v-47h-645v-373h406q76 0 136.5 -18t98 -47t62.5 -68.5t35 -78.5t10 -81q0 -139 -90 -225t-252 -86h-461zM172 47h391q134 0 216.5 69.5t82.5 192.5q0 67 -26.5 116.5t-71 76.5t-94 40t-103.5 13h-395v-508z" />
<glyph unicode="&#xe1b9;" horiz-adv-x="1032" d="M129 0v1026h430q160 0 250 -67t90 -199q0 -27 -6.5 -54t-22.5 -58t-48.5 -57.5t-78.5 -43.5v-8q97 -28 144 -99.5t47 -160.5q0 -53 -19.5 -101t-60.5 -89t-113 -65t-168 -24h-444zM188 47h381q58 0 110 12.5t97 38t71.5 70t26.5 102.5q0 118 -79.5 184t-192.5 66h-414 v-473zM188 569h387q116 0 191.5 46.5t75.5 144.5q0 49 -16.5 87.5t-44.5 63t-67 40t-80.5 22t-88.5 6.5h-357v-410z" />
<glyph unicode="&#xe1ba;" horiz-adv-x="839" d="M127 0v1026h680v-47h-623v-979h-57z" />
<glyph unicode="&#xe1bb;" horiz-adv-x="1069" d="M27 47h92q114 195 149 623l29 356h627v-979h96v-301h-55v254h-883v-254h-55v301zM184 47h682v930h-518l-24 -299q-16 -192 -46 -342t-94 -289z" />
<glyph unicode="&#xe1bc;" horiz-adv-x="876" d="M129 0v1026h651v-47h-594v-418h551v-49h-551v-465h623v-47h-680z" />
<glyph unicode="&#xe1bd;" horiz-adv-x="1378" d="M12 0l434 543l-419 481h67l402 -459h159v459h58v-459h159l402 459h67l-419 -481q52 -65 202.5 -254.5t231.5 -288.5h-72l-410 516h-161v-516h-58v516h-161q-65 -84 -205 -258t-205 -258h-72z" />
<glyph unicode="&#xe1be;" horiz-adv-x="929" d="M68 264v29h47q1 -46 20.5 -90t58 -82.5t107.5 -62t158 -23.5q161 0 245 69.5t84 182.5q0 38 -13.5 75t-42.5 71.5t-83.5 55.5t-128.5 21h-172v51h162q128 0 194 61.5t66 147.5q0 92 -76.5 152.5t-226.5 60.5q-82 0 -143.5 -20.5t-97 -55t-52.5 -74.5t-18 -85h-45 q-2 8 -2 26q0 123 101.5 190.5t258.5 67.5q172 0 266 -73.5t94 -190.5q0 -73 -40.5 -136t-112.5 -91v-11q80 -29 125 -93t45 -150q0 -129 -96.5 -214t-286.5 -85q-179 0 -287 75t-108 201z" />
<glyph unicode="&#xe1bf;" horiz-adv-x="1042" d="M119 0v1026h55v-922l8 -4q76 107 219 297l473 629h50v-1026h-58v924l-8 2q-31 -39 -63.5 -83t-71.5 -99t-59 -82l-496 -662h-49z" />
<glyph unicode="&#xe1c0;" horiz-adv-x="1042" d="M119 0v1026h55v-922l8 -4q76 107 219 297l473 629h50v-1026h-58v924l-8 2q-31 -39 -63.5 -83t-71.5 -99t-59 -82l-496 -662h-49zM250 1399h51q-1 -33 11 -68t36.5 -69t71.5 -56t108 -22q59 0 105 23t71.5 57.5t38.5 69.5t13 65h47q-1 -44 -17.5 -89.5t-48.5 -87t-87 -68 t-124 -26.5q-70 0 -125.5 26.5t-87 68.5t-47.5 87.5t-16 88.5z" />
<glyph unicode="&#xe1c1;" horiz-adv-x="927" d="M129 0v1026h59v-457h218l399 457h74l-420 -481l432 -545h-78l-405 516h-220v-516h-59z" />
<glyph unicode="&#xe1c2;" horiz-adv-x="1003" d="M29 -12v47q109 0 158 73t59 205l59 715h578v-1028h-58v977h-467l-57 -674q-4 -47 -9.5 -83.5t-22 -82.5t-41 -76.5t-67.5 -52t-100 -22.5q-24 0 -32 2z" />
<glyph unicode="&#xe1c3;" horiz-adv-x="1265" d="M129 0v1026h51l287 -516q42 -76 160 -293h12q63 122 160 297l280 512h58v-1026h-58v913l-6 2q-39 -86 -112 -217l-299 -544h-58l-317 565q-19 32 -51 94.5t-43 83.5l-9 -4v-893h-55z" />
<glyph unicode="&#xe1c4;" horiz-adv-x="1056" d="M129 0v1028h57v-465h682v465h60v-1028h-60v514h-682v-514h-57z" />
<glyph unicode="&#xe1c5;" horiz-adv-x="1095" d="M109 502q0 91 14 169t47.5 146.5t83.5 116t126 75t173 27.5q101 0 178.5 -30t125 -79.5t77.5 -120t41.5 -143.5t11.5 -159q0 -81 -12 -152t-43 -139t-79 -117t-124.5 -78.5t-175.5 -29.5q-444 0 -444 514zM164 502q0 -237 96.5 -352t290.5 -115q181 0 279 116.5t98 352.5 q0 113 -19 198.5t-62 151t-117.5 99.5t-178.5 34q-106 0 -182 -34t-120.5 -100t-64.5 -152t-20 -199z" />
<glyph unicode="&#xe1c6;" horiz-adv-x="1030" d="M115 0v1028h798v-1028h-59v979h-682v-979h-57z" />
<glyph unicode="&#xe1c7;" horiz-adv-x="923" d="M129 0v1026h401q161 0 250.5 -88.5t89.5 -228.5q0 -54 -17 -104t-53.5 -97.5t-106 -76t-163.5 -28.5h-344v-403h-57zM186 451h336q46 0 86.5 7.5t79.5 26.5t67 47.5t45 74.5t17 104q0 124 -82.5 196t-212.5 72h-336v-528z" />
<glyph unicode="&#xe1c8;" horiz-adv-x="1011" d="M109 500q0 122 25 217.5t78 169t142 112.5t211 39q153 0 257 -67t104 -189q0 -12 -4 -26h-45q-2 43 -20.5 81.5t-54 73.5t-99 55.5t-146.5 20.5q-202 0 -296.5 -128t-94.5 -359q0 -240 95.5 -352.5t293.5 -112.5q91 0 159.5 23.5t106 63t56 82.5t20.5 91h47q4 -18 4 -29 q0 -125 -110 -201.5t-281 -76.5q-125 0 -213.5 36.5t-139 106t-73 160t-22.5 209.5z" />
<glyph unicode="&#xe1c9;" horiz-adv-x="880" d="M37 979v47h807v-47h-375v-979h-53v979h-379z" />
<glyph unicode="&#xe1ca;" horiz-adv-x="806" d="M16 1022h62l192 -401q11 -24 60 -125t78 -166h8l303 692h59l-364 -836q-15 -34 -20.5 -45.5t-20.5 -40.5t-25.5 -40t-30.5 -30t-40.5 -27t-49.5 -14.5t-63 -6.5h-58v51h52q124 0 178 117l57 124q-3 0 -8.5 -1t-7.5 -1z" />
<glyph unicode="&#xe1cb;" horiz-adv-x="1157" d="M94 528q0 97 27 177t82 142t145.5 97.5t210.5 38.5v45h57v-45q103 -3 182.5 -30t129.5 -69t82 -101t44.5 -120.5t12.5 -132.5q0 -63 -14.5 -122.5t-48.5 -116.5t-84.5 -100t-128.5 -71t-175 -32v-88h-57v86q-236 9 -350.5 130.5t-114.5 311.5zM143 528q0 -369 416 -397 v805q-416 -16 -416 -408zM616 131q194 15 296 115.5t102 283.5q0 87 -18.5 154t-62.5 123t-123.5 89.5t-193.5 41.5v-807z" />
<glyph unicode="&#xe1cc;" horiz-adv-x="901" d="M33 0l385 537l-344 489h65l314 -446l317 446h66l-351 -487l383 -539h-71l-346 494l-351 -494h-67z" />
<glyph unicode="&#xe1cd;" horiz-adv-x="1048" d="M117 0v1026h57v-979h680v979h57v-979h72v-301h-59v254h-807z" />
<glyph unicode="&#xe1ce;" horiz-adv-x="944" d="M92 713v311h58v-307q0 -277 323 -277q123 0 293 39v545h55v-1024h-55v428q-191 -35 -299 -35q-375 0 -375 320z" />
<glyph unicode="&#xe1cf;" horiz-adv-x="1523" d="M119 0v1022h55v-975h555v975h55v-975h553v975h60v-1022h-1278z" />
<glyph unicode="&#xe1d0;" horiz-adv-x="1540" d="M119 0v1022h55v-975h553v975h57v-975h553v975h60v-975h69v-301h-55v254h-1292z" />
<glyph unicode="&#xe1d1;" horiz-adv-x="1353" d="M27 977v47h497v-420h396q76 0 136.5 -18t98 -47t62.5 -68.5t35 -78.5t10 -81q0 -139 -90 -225t-252 -86h-451v977h-442zM524 47h381q134 0 216.5 69.5t82.5 192.5q0 67 -26.5 116.5t-71 76.5t-94 40t-103.5 13h-385v-508z" />
<glyph unicode="&#xe1d2;" horiz-adv-x="1208" d="M117 0v1024h55v-420h406q76 0 136.5 -18t98 -47t62.5 -68.5t35 -78.5t10 -81q0 -139 -90 -225t-252 -86h-461zM172 47h391q134 0 216.5 69.5t82.5 192.5q0 67 -26.5 116.5t-71 76.5t-94 40t-103.5 13h-395v-508zM1036 0v1024h56v-1024h-56z" />
<glyph unicode="&#xe1d3;" horiz-adv-x="1001" d="M117 0v1024h55v-420h406q76 0 136.5 -18t98 -47t62.5 -68.5t35 -78.5t10 -81q0 -139 -90 -225t-252 -86h-461zM172 47h391q134 0 216.5 69.5t82.5 192.5q0 67 -26.5 116.5t-71 76.5t-94 40t-103.5 13h-395v-508z" />
<glyph unicode="&#xe1d4;" horiz-adv-x="1024" d="M78 266q0 11 4 29h45q0 -108 82.5 -183t259.5 -75q100 0 176.5 37t122 103t68 150t22.5 185h-536v51h534q-4 95 -23.5 168t-60.5 132t-111.5 90.5t-168.5 31.5q-152 0 -236 -68t-96 -161h-49q0 17 4 41q12 65 52.5 114t96 75.5t111 39t108.5 12.5q119 0 205 -39.5 t134.5 -111t70.5 -159.5t22 -198q0 -86 -12.5 -161t-45 -146.5t-83 -122.5t-132 -81.5t-185.5 -30.5q-177 0 -278 75.5t-101 202.5z" />
<glyph unicode="&#xe1d5;" horiz-adv-x="1376" d="M129 0v1022h55v-463h242q5 101 29 182.5t72 149t130.5 104.5t194.5 37q97 0 171 -29t120 -77t74.5 -117.5t39.5 -143.5t11 -163q0 -80 -10.5 -148.5t-38.5 -137.5t-73.5 -116.5t-121 -77.5t-174.5 -30q-121 0 -205.5 38t-131 110t-66.5 161.5t-21 208.5h-242v-510h-55z M479 500q0 -235 92.5 -348t276.5 -113q362 0 362 463q0 481 -362 481q-189 0 -279 -128.5t-90 -354.5z" />
<glyph unicode="&#xe1d6;" horiz-adv-x="952" d="M86 725q0 138 88.5 219.5t255.5 81.5h401v-1026h-55v434h-241l-361 -434h-63l358 434h-39q-95 0 -166 28.5t-107.5 74t-53.5 93t-17 95.5zM143 727q0 -56 17 -99.5t44.5 -70t66 -44t79 -24t86.5 -6.5h340v496h-338q-132 0 -213.5 -65t-81.5 -187z" />
<glyph unicode="&#xe1d7;" horiz-adv-x="823" d="M117 0v1024h622v203h52v-252h-623v-975h-51z" />
<glyph unicode="&#xe23f;" horiz-adv-x="1171" d="M76 647q0 126 17.5 230t56.5 190.5t98 146t145.5 92.5t196.5 33q114 0 203 -38t144.5 -101t91.5 -153.5t50.5 -187t14.5 -210.5q0 -106 -15 -198.5t-51.5 -180t-93 -149.5t-145 -99.5t-201.5 -37.5q-116 0 -204 32t-146 88.5t-94.5 141t-52 182t-15.5 219.5zM129 647 q0 -272 90 -428l690 928q-113 145 -323 145q-457 0 -457 -645zM246 178q116 -149 340 -149q211 0 332.5 157t121.5 463q0 297 -102 457z" />
<glyph unicode="&#xe245;" horiz-adv-x="1329" d="M20 0l1119 1380h57v-1380h-59v385h-729l-310 -385h-78zM449 436h688v848h-11q-106 -140 -194 -250z" />
<glyph unicode="&#xe246;" horiz-adv-x="612" d="M135 0v1380h60l-2 -1288h10q49 69 101.5 137.5t82 105t91.5 112t81 98.5l674 835h76l-1116 -1380h-58z" />
<glyph unicode="&#xe247;" horiz-adv-x="1323" d="M133 0v1380h60v-1267l10 -2q59 82 243 327l472 621v321h59v-1263l10 -4l373 499l582 768h77l-1044 -1380h-57v950h-11q-104 -145 -243 -329l-474 -621h-57z" />
<glyph unicode="&#xe24a;" horiz-adv-x="1329" d="M20 0l1119 1380h57v-1380h-59v385h-729l-310 -385h-78zM449 436h688v848h-11q-106 -140 -194 -250z" />
<glyph unicode="&#xe26a;" horiz-adv-x="360" d="M154 0v1454h53v-1454h-53z" />
<glyph unicode="&#xe271;" horiz-adv-x="1054" d="M102 481q0 112 25 203.5t75 162t133 109.5t191 39q242 0 342 -172h9q0 121 12 156h43v-979h-43q-12 33 -12 190h-9q-119 -206 -354 -206q-93 0 -164 24.5t-117.5 67t-76 106t-42 136.5t-12.5 163zM160 481q0 -105 17.5 -183.5t57.5 -140t111.5 -93t173.5 -31.5 q73 0 133.5 24.5t101 65t69 93.5t41 108t12.5 110v144q0 169 -92 269.5t-259 100.5q-185 0 -275.5 -121t-90.5 -346z" />
<glyph unicode="&#xe27b;" horiz-adv-x="1054" d="M102 481q0 112 25 203.5t75 162t133 109.5t191 39q242 0 342 -172h9q0 121 12 156h43v-979h-43q-12 33 -12 190h-9q-119 -206 -354 -206q-93 0 -164 24.5t-117.5 67t-76 106t-42 136.5t-12.5 163zM160 481q0 -105 17.5 -183.5t57.5 -140t111.5 -93t173.5 -31.5 q73 0 133.5 24.5t101 65t69 93.5t41 108t12.5 110v144q0 169 -92 269.5t-259 100.5q-185 0 -275.5 -121t-90.5 -346z" />
<glyph unicode="&#xe2d0;" horiz-adv-x="761" d="M43 977q0 194 80.5 303t255.5 109q93 0 160 -33t103.5 -92.5t52.5 -129t16 -155.5q0 -63 -10 -118.5t-34 -107t-61 -88.5t-95 -59t-132 -22q-76 0 -134 19t-96 52.5t-62 83.5t-34 108t-10 130zM96 977q0 -346 281 -346q129 0 203.5 87.5t74.5 260.5q0 169 -67 264.5 t-211 95.5q-150 0 -215.5 -94.5t-65.5 -267.5z" />
<glyph unicode="&#xe2d1;" horiz-adv-x="761" d="M111 594v47h239v678l-211 -35v41l219 53h48v-737h241v-47h-536z" />
<glyph unicode="&#xe2d2;" horiz-adv-x="761" d="M66 594v47q0 37 7.5 67.5t27.5 58t39 47.5t60 47t71.5 45t89.5 52q11 6 16 9q56 32 86 51.5t65 48.5t50.5 59.5t15.5 65.5q0 71 -52.5 111t-162.5 40q-127 0 -186.5 -55t-59.5 -131h-45q-4 16 -4 27q0 100 83 153.5t210 55.5q142 0 210 -56t68 -143q0 -45 -20 -84.5 t-58.5 -72.5t-74.5 -56t-86 -49q-54 -29 -78.5 -42.5t-63.5 -36.5t-56 -37t-40 -35.5t-32 -40.5t-16 -44t-7 -53h549v-49h-606z" />
<glyph unicode="&#xe2d3;" horiz-adv-x="761" d="M61 788v25h50q2 -76 58.5 -128t182.5 -52q128 0 198.5 54t70.5 147q0 99 -69 145.5t-210 46.5q-28 0 -53 -4l-29 39l309 260l-2 10h-463v49h562v-45l-314 -260h10q149 0 231.5 -59.5t82.5 -175.5t-87 -186t-235 -70q-129 0 -211 52t-82 152z" />
<glyph unicode="&#xe2d4;" horiz-adv-x="761" d="M39 801v45l483 534h45v-530h148v-49h-148v-207h-55v207h-473zM113 850h399v442z" />
<glyph unicode="&#xe2d5;" horiz-adv-x="761" d="M68 788q0 13 4 25h45q2 -76 59.5 -128t181.5 -52q126 0 196.5 56.5t70.5 146.5q0 107 -75.5 160t-189.5 53q-98 0 -196 -29l-45 16l59 344h449v-49h-404l-41 -254q97 19 176 19q65 0 120.5 -14t101.5 -43t72 -80t26 -119q0 -115 -85 -185.5t-233 -70.5q-129 0 -210.5 52 t-81.5 152z" />
<glyph unicode="&#xe2d6;" horiz-adv-x="761" d="M78 942q0 72 8.5 133t30.5 121.5t57.5 102.5t93.5 68t133 26q105 0 176.5 -48.5t71.5 -132.5v-24h-47q-2 65 -50 111.5t-151 46.5q-60 0 -106.5 -20.5t-76.5 -55t-50 -85t-29 -104.5t-12 -120l10 -7q37 59 104 96t152 37q132 0 209.5 -64t77.5 -179q0 -117 -76.5 -188.5 t-220.5 -71.5q-165 0 -235 82.5t-70 275.5zM145 825q0 -54 20.5 -93t56 -60.5t76.5 -31t89 -9.5q102 0 172 52.5t70 156.5q0 91 -59.5 145.5t-178.5 54.5q-99 0 -172.5 -65t-73.5 -150z" />
<glyph unicode="&#xe2d7;" horiz-adv-x="761" d="M82 1331v47h590v-37l-414 -747h-57l407 737h-526z" />
<glyph unicode="&#xe2d8;" horiz-adv-x="761" d="M72 799q0 57 41.5 114.5t140.5 96.5l-2 14q-39 13 -67 31t-42 35t-22.5 38t-10 35t-1.5 31q0 75 70 135t196 60q140 0 205 -58.5t65 -136.5q0 -46 -34.5 -94t-114.5 -78l2 -8q55 -17 94 -45.5t56.5 -60.5t24.5 -57t7 -48q0 -92 -80 -155.5t-225 -63.5q-141 0 -222 57.5 t-81 157.5zM125 797q0 -82 72 -124t178 -42q103 0 178.5 42.5t75.5 125.5q0 75 -67 128.5t-181 63.5q-115 -18 -185.5 -70t-70.5 -124zM162 1194q0 -59 54 -95t161 -63q94 19 154.5 63t60.5 95q0 69 -62 107t-155 38q-90 0 -151.5 -39t-61.5 -106z" />
<glyph unicode="&#xe2d9;" horiz-adv-x="761" d="M84 1135q0 119 76 188.5t219 69.5q295 0 295 -359q0 -79 -7 -140t-28 -121.5t-56.5 -100t-95.5 -64t-141 -24.5q-104 0 -175 48.5t-71 133.5v25h50q0 -62 47.5 -110t150.5 -48q65 0 112.5 19t77.5 51t49 83.5t27 105.5t11 128h-11q-35 -59 -99 -95t-142 -36 q-138 0 -213.5 63.5t-75.5 182.5zM137 1137q0 -93 57 -147t181 -54q97 0 163 64.5t66 150.5q0 49 -19.5 87.5t-52 61t-72 34.5t-81.5 12q-48 0 -88.5 -10.5t-76.5 -33.5t-56.5 -65t-20.5 -100z" />
<glyph unicode="&#xe2da;" horiz-adv-x="342" d="M41 954q0 149 60.5 278t164.5 228l35 -20q-209 -229 -209 -479q0 -245 205 -480l-31 -26q-102 99 -163.5 227.5t-61.5 271.5z" />
<glyph unicode="&#xe2db;" horiz-adv-x="317" d="M29 1440l30 20q106 -99 168 -228.5t62 -277.5q0 -143 -63 -271.5t-167 -227.5l-28 26q207 237 207 480q0 250 -209 479z" />
<glyph unicode="&#xe2dc;" horiz-adv-x="243" d="M61 692q0 26 17.5 45t42.5 19q27 0 45 -17t18 -45q0 -16 -8 -37l-86 -176l-22 8l49 144q-24 3 -40 19.5t-16 39.5z" />
<glyph unicode="&#xe2dd;" horiz-adv-x="251" d="M66 696q0 25 17 42.5t42 17.5t42 -17.5t17 -42.5t-17 -42t-42 -17t-42 17t-17 42z" />
<glyph unicode="&#xe2f4;" horiz-adv-x="761" d="M43 383q0 194 80.5 303t255.5 109q93 0 160 -33t103.5 -92.5t52.5 -129t16 -155.5q0 -63 -10 -118.5t-34 -107t-61 -88.5t-95 -59t-132 -22q-76 0 -134 19t-96 52.5t-62 83.5t-34 108t-10 130zM96 383q0 -346 281 -346q129 0 203.5 87.5t74.5 260.5q0 169 -67 264.5 t-211 95.5q-150 0 -215.5 -94.5t-65.5 -267.5z" />
<glyph unicode="&#xe2f5;" horiz-adv-x="761" d="M111 0v47h239v678l-211 -35v41l219 53h48v-737h241v-47h-536z" />
<glyph unicode="&#xe2f6;" horiz-adv-x="761" d="M66 0v47q0 37 7.5 67.5t27.5 58t39 47.5t60 47t71.5 45t89.5 52q11 6 16 9q56 32 86 51.5t65 48.5t50.5 59.5t15.5 65.5q0 71 -52.5 111.5t-162.5 40.5q-127 0 -186.5 -55.5t-59.5 -131.5h-45q-4 16 -4 27q0 100 83 153.5t210 55.5q142 0 210 -56t68 -143 q0 -45 -20 -84.5t-58.5 -72.5t-74.5 -56t-86 -49q-54 -29 -78.5 -42.5t-63.5 -36.5t-56 -37t-40 -35.5t-32 -40.5t-16 -44t-7 -53h549v-49h-606z" />
<glyph unicode="&#xe2f7;" horiz-adv-x="761" d="M61 195v24h50q2 -76 58.5 -128t182.5 -52q128 0 198.5 54t70.5 147q0 99 -69 145.5t-210 46.5q-28 0 -53 -4l-29 39l309 260l-2 10h-463v49h562v-45l-314 -260h10q149 0 231.5 -59.5t82.5 -175.5t-87 -186t-235 -70q-128 0 -210.5 52.5t-82.5 152.5z" />
<glyph unicode="&#xe2f8;" horiz-adv-x="761" d="M39 207v45l483 534h45v-530h148v-49h-148v-207h-55v207h-473zM113 256h399v442z" />
<glyph unicode="&#xe2f9;" horiz-adv-x="761" d="M68 195q0 12 4 24h45q2 -76 59.5 -128t181.5 -52q126 0 196.5 56.5t70.5 146.5q0 107 -75.5 160t-189.5 53q-98 0 -196 -29l-45 16l59 344h449v-49h-404l-41 -254q97 19 176 19q65 0 120.5 -14t101.5 -43t72 -80t26 -119q0 -115 -85 -185.5t-233 -70.5q-128 0 -210 52.5 t-82 152.5z" />
<glyph unicode="&#xe2fa;" horiz-adv-x="761" d="M78 348q0 72 8.5 133t30.5 121.5t57.5 102.5t93.5 68t133 26q105 0 176.5 -48.5t71.5 -132.5v-24h-47q-2 65 -50 111.5t-151 46.5q-60 0 -106.5 -20.5t-76.5 -55t-50 -85t-29 -104.5t-12 -120l10 -7q38 59 104.5 96.5t151.5 37.5q132 0 209.5 -64t77.5 -180 q0 -117 -76.5 -188.5t-220.5 -71.5q-165 0 -235 82.5t-70 275.5zM145 231q0 -54 20.5 -93t56 -60.5t76.5 -31t89 -9.5q102 0 172 52.5t70 156.5q0 91 -59.5 145.5t-178.5 54.5q-99 0 -172.5 -65t-73.5 -150z" />
<glyph unicode="&#xe2fb;" horiz-adv-x="761" d="M82 735v47h590v-37l-414 -745h-57l407 735h-526z" />
<glyph unicode="&#xe2fc;" horiz-adv-x="761" d="M72 205q0 57 41.5 114.5t140.5 96.5l-2 14q-39 13 -67 31t-42 35t-22.5 38t-10 35t-1.5 31q0 75 70 135t196 60q140 0 205 -58.5t65 -136.5q0 -46 -34.5 -94t-114.5 -78l2 -8q55 -17 94 -45.5t56.5 -60.5t24.5 -57t7 -48q0 -92 -80 -155.5t-225 -63.5q-141 0 -222 57.5 t-81 157.5zM125 203q0 -82 72 -124t178 -42q103 0 178.5 42.5t75.5 125.5q0 75 -67 128.5t-181 63.5q-115 -18 -185.5 -70t-70.5 -124zM162 600q0 -59 54 -95t161 -63q94 19 154.5 63t60.5 95q0 69 -62 107t-155 38q-90 0 -151.5 -39t-61.5 -106z" />
<glyph unicode="&#xe2fd;" horiz-adv-x="761" d="M84 541q0 119 76 188.5t219 69.5q295 0 295 -359q0 -79 -7 -140t-28 -121.5t-56.5 -100t-95.5 -64t-141 -24.5q-104 0 -175 48.5t-71 133.5v25h50q0 -62 47.5 -110t150.5 -48q65 0 112.5 19t77.5 51t49 83.5t27 105.5t11 128h-11q-35 -59 -99 -95t-142 -36 q-138 0 -213.5 63.5t-75.5 182.5zM137 543q0 -93 57 -147t181 -54q97 0 163 64.5t66 150.5q0 49 -19.5 87.5t-52 61t-72 34.5t-81.5 12q-48 0 -88.5 -10.5t-76.5 -33.5t-56.5 -65t-20.5 -100z" />
<glyph unicode="&#xe2fe;" horiz-adv-x="342" d="M41 360q0 149 60.5 278t164.5 228l35 -20q-209 -229 -209 -479q0 -245 205 -480l-31 -26q-102 99 -163.5 227.5t-61.5 271.5z" />
<glyph unicode="&#xe2ff;" horiz-adv-x="317" d="M29 846l30 20q106 -99 168 -228.5t62 -277.5q0 -143 -63 -271.5t-167 -227.5l-28 26q207 237 207 480q0 250 -209 479z" />
<glyph unicode="&#xe300;" horiz-adv-x="243" d="M61 53q0 26 17.5 45t42.5 19q27 0 45 -17t18 -45q0 -16 -8 -37l-86 -176l-22 8l49 144q-24 3 -40 19.5t-16 39.5z" />
<glyph unicode="&#xe301;" horiz-adv-x="251" d="M66 49q0 25 17 42.5t42 17.5t42 -17.5t17 -42.5t-17 -42t-42 -17t-42 17t-17 42z" />
<glyph unicode="&#xe360;" horiz-adv-x="821" d="M16 596l363 903h59l367 -903h-62l-98 246h-471l-98 -246h-60zM193 891h434l-101 250l-112 282h-15l-102 -272q-17 -45 -52 -131.5t-52 -128.5z" />
<glyph unicode="&#xe361;" horiz-adv-x="860" d="M102 596v903h355q139 0 218 -59.5t79 -175.5q0 -51 -28.5 -103.5t-88.5 -81.5v-12q81 -27 116 -89.5t35 -141.5q0 -44 -15.5 -84.5t-48 -76.5t-92.5 -57.5t-140 -21.5h-390zM156 643h323q66 0 120.5 18t93 63t38.5 112q0 103 -62 154.5t-157 51.5h-356v-399zM156 1092 h338q40 0 74.5 8.5t64.5 27.5t47.5 53.5t17.5 82.5q0 43 -14 76t-37 53.5t-56 33.5t-67 18t-73 5h-295v-358z" />
<glyph unicode="&#xe362;" horiz-adv-x="901" d="M102 596v903h285q63 0 121.5 -13.5t116 -47t100 -84t68.5 -130.5t26 -180q0 -206 -123 -327t-309 -121h-285zM154 645h225q44 0 89 8.5t100 35t96.5 68.5t69.5 116.5t28 170.5q0 97 -27 172t-67.5 118t-94.5 71t-101.5 37.5t-94.5 9.5h-223v-807z" />
<glyph unicode="&#xe363;" horiz-adv-x="753" d="M102 596v903h580v-49h-526v-358h489v-50h-489v-395h555v-51h-609z" />
<glyph unicode="&#xe364;" horiz-adv-x="917" d="M102 596v905h58v-407h596v407h59v-905h-59v446h-596v-446h-58z" />
<glyph unicode="&#xe365;" horiz-adv-x="342" d="M143 596v903h56v-903h-56z" />
<glyph unicode="&#xe366;" horiz-adv-x="739" d="M102 596v903h56v-850h561v-53h-617z" />
<glyph unicode="&#xe367;" horiz-adv-x="1099" d="M102 596v903h54l233 -418q136 -246 152 -276h18l141 260l244 434h53v-903h-55v780l-8 2q-22 -46 -68.5 -128t-52.5 -93l-238 -426h-51l-239 424q-48 84 -119 219l-8 -4v-774h-56z" />
<glyph unicode="&#xe368;" horiz-adv-x="921" d="M102 596v903h45l445 -579q15 -20 50 -65t61 -80t49 -68l12 8v784h55v-903h-47l-471 618l-133 179l-10 -4v-793h-56z" />
<glyph unicode="&#xe369;" horiz-adv-x="946" d="M82 1040q0 469 395 469q387 0 387 -469q0 -73 -11 -135.5t-38.5 -122.5t-70.5 -102.5t-111.5 -68t-157.5 -25.5q-109 0 -187 32.5t-122 94.5t-64 142t-20 185zM135 1040q0 -407 338 -407q160 0 246 101t86 306q0 201 -76.5 310.5t-255.5 109.5q-180 0 -259 -110t-79 -310 z" />
<glyph unicode="&#xe36a;" horiz-adv-x="817" d="M102 596v903h369q151 0 229 -71t78 -195q0 -43 -13.5 -84t-44 -81.5t-91 -65.5t-144.5 -25h-55l326 -381h-60l-327 381h-217v-381h-50zM152 1028h315q254 0 254 207q0 106 -70 160.5t-186 54.5h-313v-422z" />
<glyph unicode="&#xe36b;" horiz-adv-x="849" d="M78 854q0 15 2 25h45q1 -46 15 -86.5t45 -77.5t90.5 -58.5t142.5 -21.5q149 0 223 60t74 139q0 92 -71.5 141t-213.5 67q-54 6 -96 14.5t-87.5 25.5t-75.5 40.5t-49.5 61t-19.5 86.5q0 106 80.5 176t243.5 70q85 0 155 -23.5t117 -78.5t47 -134v-27h-51q-1 40 -14.5 75.5 t-43 67t-84 50t-128.5 18.5q-125 0 -193.5 -53.5t-68.5 -130.5q0 -27 4.5 -48.5t16.5 -38t24.5 -29t35 -22.5t42.5 -17t53.5 -13.5t59.5 -10t69 -9.5q67 -9 118.5 -25t95.5 -44t67.5 -73t23.5 -106q0 -109 -86 -183.5t-264 -74.5q-156 0 -250 67t-94 201z" />
<glyph unicode="&#xe36c;" horiz-adv-x="761" d="M20 1450v49h721v-49h-329v-854h-56v854h-336z" />
<glyph unicode="&#xe378;" horiz-adv-x="1236" d="M78 721v137l536 522l541 -530v-139l-500 497v-1175h-88v1175z" />
<glyph unicode="&#xe379;" horiz-adv-x="1236" d="M78 555v137l489 -487v1175h88v-1175l500 497v-139l-541 -530z" />
<glyph unicode="&#xe37a;" horiz-adv-x="1454" d="M61 709l523 536h141l-492 -489h1176v-88h-1176l498 -500h-139z" />
<glyph unicode="&#xe37b;" horiz-adv-x="1171" d="M76 301l831 832h-692l94 92h752v-760l-90 -100v706l-832 -831z" />
<glyph unicode="&#xe37c;" horiz-adv-x="1171" d="M78 465v760h751l95 -92h-693l832 -832l-64 -61l-831 831v-706z" />
<glyph unicode="&#xe37d;" horiz-adv-x="1839" d="M166 715l719 719v-1438zM944 715l717 719v-1438z" />
<glyph unicode="&#xe37e;" horiz-adv-x="1839" d="M248 -2v1438l717 -719zM1026 -2v1438l717 -719z" />
<glyph unicode="&#xe37f;" horiz-adv-x="2048" d="M162 -6v1438h143v-1438h-143zM336 713l715 719v-1438zM1110 713l713 719v-1438z" />
<glyph unicode="&#xe380;" horiz-adv-x="2048" d="M197 -8v1438l718 -719zM971 -8v1438l719 -719zM1718 -8v1438h142v-1438h-142z" />
<glyph unicode="&#xe381;" horiz-adv-x="1519" d="M326 0v1438h284v-1438h-284zM901 0v1438h287v-1438h-287z" />
<glyph unicode="&#xe382;" horiz-adv-x="1036" d="M154 489v437h239l441 434v-1305l-441 434h-239z" />
<glyph unicode="&#xe383;" horiz-adv-x="1460" d="M182 489v435h242l436 434v-1303l-436 434h-242zM1042 252q0 18 17 35v-2q158 165 158 422q0 265 -158 430v-2q-17 17 -17 34q0 12 12.5 25.5t26.5 13.5q17 0 29 -12q184 -184 184 -485q0 -302 -184 -486q-10 -10 -29 -10q-14 0 -26.5 13t-12.5 24z" />
<glyph unicode="&#xe384;" horiz-adv-x="1798" d="M127 489v435h238l440 436v-1305l-440 434h-238zM1001 229q0 17 17 37v-2q166 169 166 443q0 265 -166 448q-17 20 -17 37q0 13 12.5 27t28.5 14t31 -12q92 -92 142.5 -228.5t50.5 -281.5q0 -317 -193 -510q-14 -11 -31 -11q-16 0 -28.5 13t-12.5 26zM1290 1395 q0 12 13 24.5t28 12.5q23 0 33 -13q270 -301 270 -714q0 -209 -67 -393.5t-197 -317.5q-26 -21 -41 -21t-26 11.5t-11 25.5q0 25 21 43q106 101 174.5 272.5t68.5 374.5q0 190 -65 356.5t-182 297.5q-19 19 -19 41z" />
<glyph unicode="&#xe385;" horiz-adv-x="2105" d="M113 489v435h239l439 436v-1305l-439 434h-239zM1006 203q0 13 14 24q87 68 134.5 197.5t47.5 275.5q0 145 -48 278t-132 208q-10 10 -10 24q0 17 13 31t30 14q8 0 18 -10q102 -102 155.5 -248.5t53.5 -304.5q0 -154 -56 -293.5t-163 -232.5q-12 -8 -16 -8 q-17 0 -29 13.5t-12 31.5zM1237 -45q0 12 20 35q132 108 205.5 297.5t73.5 404.5q0 219 -73.5 417.5t-211.5 322.5v-2q-10 5 -10 26q0 15 12 28t27 13t27 -14h-2q155 -138 232 -351t77 -448q0 -229 -80.5 -430t-237.5 -334q-11 -8 -22 -8q-14 0 -25.5 13t-11.5 30z M1487 -274q0 12 6 24q181 146 282 400t101 536q0 278 -100 542t-283 433q-6 12 -6 20q0 17 12 30t29 13q10 0 22 -12q127 -110 221 -283t140.5 -366t46.5 -387q0 -297 -106 -559.5t-308 -431.5v2q-11 -11 -18 -11q-15 0 -27 15.5t-12 34.5z" />
<glyph unicode="&#xe386;" horiz-adv-x="1712" d="M109 741q0 88 21 170t56.5 145.5t73.5 110.5t80 82q18 15 39 15q25 0 44 -15.5t19 -36.5q0 -18 -14 -32q-6 -6 -33 -34t-40 -43.5t-38 -47.5t-38.5 -60.5t-29.5 -67.5t-23 -84t-7 -95q0 -182 86 -335t234.5 -242t324.5 -89q175 0 322.5 89t233 242t85.5 335 q0 242 -178 434q-12 12 -12 35t15.5 37t37.5 14q21 0 51 -23q73 -56 136 -202t63 -302q0 -205 -101 -378.5t-274.5 -274t-378.5 -100.5q-207 0 -380.5 100.5t-274 273.5t-100.5 379zM819 821v690q0 22 14 38t37 16q22 0 38 -16t16 -38v-690q0 -22 -16 -37.5t-38 -15.5 q-23 0 -37 15t-14 38z" />
<glyph unicode="&#xe387;" horiz-adv-x="1642" d="M111 893q27 79 84 143.5t112.5 95.5t98.5 35q62 -37 131.5 -123.5t80.5 -185.5q-51 -75 -155 -117q6 -20 55 -81t116.5 -131t149.5 -132t142 -78q42 106 116 158q84 -4 186 -75t126 -134q-9 -72 -83.5 -166t-189.5 -133q-146 41 -294.5 134t-262 203t-206.5 226.5 t-145.5 211t-61.5 149.5zM705 662q0 44 30.5 75t73.5 31q44 0 74 -31t30 -75q0 -43 -30 -74t-74 -31q-43 0 -73.5 31t-30.5 74zM887 969l47 49l237 -236l-49 -47zM1130 1092q0 43 31.5 73.5t75.5 30.5q43 0 73.5 -30.5t30.5 -73.5q0 -44 -30.5 -75.5t-73.5 -31.5 q-44 0 -75.5 31.5t-31.5 75.5zM1305 1403l47 47l235 -236l-45 -47z" />
<glyph unicode="&#xe388;" horiz-adv-x="2119" d="M51 518l506 504l107 -107l-400 -397l412 -412l-107 -106zM547 516q0 57 39 96t96 39t97 -39t40 -96t-40 -96t-97 -39t-96 39t-39 96zM922 516q0 57 40 96t97 39t96 -39t39 -96t-39 -96t-96 -39t-97 39t-40 96zM1296 516q0 56 40.5 95.5t95.5 39.5q56 0 96.5 -39.5 t40.5 -95.5t-40.5 -95.5t-96.5 -39.5q-55 0 -95.5 39.5t-40.5 95.5zM1444 106l414 412l-402 397l107 107l505 -504l-518 -518z" />
<glyph unicode="&#xe389;" horiz-adv-x="1748" d="M135 721q0 200 100 369.5t269 267.5t366 98q148 0 284 -58t235 -156t158 -234.5t59 -286.5t-59 -286.5t-158 -234.5t-235 -156t-284 -58q-197 0 -366 98t-269 267.5t-100 369.5zM254 721q0 -124 49.5 -238t132 -197.5t196.5 -133.5t238 -50t237.5 49.5t195.5 133t131 198 t49 238.5q0 165 -82 307t-223.5 225.5t-307.5 83.5t-308 -83.5t-225 -225.5t-83 -307zM719 1100q0 59 44.5 100t106.5 41q61 0 106.5 -41t45.5 -100t-45.5 -100.5t-106.5 -41.5q-62 0 -106.5 41t-44.5 101zM748 172v702h245v-702h-245z" />
<glyph unicode="&#xe38a;" horiz-adv-x="1781" d="M100 223l80 29l-26 84l180 63l-23 86l181 64l-27 86l182 63l-22 76l-95 -33l-26 84l-94 -32l-25 84l-78 -27l-28 94l1392 496l27 -94l-86 -31l26 -88l-94 -33l25 -84l-94 -33l24 -86l-94 -33l25 -84l-95 -34l27 -86l-94 -33l24 -84l-94 -35l25 -84l-97 -33l27 -86 l-94 -34l24 -84l-94 -33l27 -86l-88 -31l-94 315l-95 -34l27 -86l-180 -62l24 -86l-182 -63l27 -86l-191 -68l-22 86l-80 -29z" />
<glyph unicode="&#xe38b;" horiz-adv-x="1781" d="M100 1346l27 94l1393 -496l-29 -94l-78 27l-24 -84l-95 32l-26 -84l-94 33l-23 -76l182 -63l-26 -86l180 -64l-23 -86l181 -63l-27 -84l80 -29l-62 -205l-80 29l-22 -86l-191 68l27 86l-182 63l24 86l-180 62l27 86l-94 34l-95 -315l-88 31l27 86l-94 33l24 84l-94 34 l27 86l-97 33l25 84l-94 35l24 84l-94 33l27 86l-94 34l24 84l-94 33l25 86l-95 33l25 84l-94 33l26 88z" />
<glyph unicode="&#xe38c;" horiz-adv-x="1781" d="M100 219l80 29l-26 84l180 63l-23 86l181 64l-27 86l182 63l-22 76l-95 -33l-26 84l-94 -33l-25 84l-78 -26l-28 94l1392 496l27 -95l-86 -30l26 -88l-94 -33l25 -84l-94 -33l24 -86l-94 -33l25 -84l-95 -34l27 -86l-94 -33l24 -84l-94 -35l25 -84l-97 -33l27 -86 l-94 -35l24 -84l-94 -32l27 -86l-88 -31l-94 315l-95 -34l27 -86l-180 -62l24 -86l-182 -63l27 -86l-191 -68l-22 86l-80 -29zM190 242l56 -187l172 62l-25 84l180 63l-24 86l180 64l-24 86l188 65l68 -227l88 31l-27 84l94 32l-24 86l94 33l-25 84l94 35l-24 84l94 33 l-25 86l95 35l-27 83l94 33l-22 86l92 33l-23 80l-1022 -367l23 -75l94 34l25 -86l94 35l29 -94l-95 -35l27 -84l-182 -63l24 -86l-180 -64l25 -86z" />
<glyph unicode="&#xe38d;" horiz-adv-x="1781" d="M100 1341l27 95l1393 -496l-29 -94l-78 26l-24 -84l-95 33l-26 -84l-94 33l-23 -76l182 -63l-26 -86l180 -64l-23 -86l181 -63l-27 -84l80 -29l-62 -205l-80 29l-22 -86l-191 68l27 86l-182 63l24 86l-180 62l27 86l-94 34l-95 -315l-88 31l27 86l-94 32l24 84l-94 35 l27 86l-97 33l25 84l-94 35l24 84l-94 33l27 86l-94 34l24 84l-94 33l25 86l-95 33l25 84l-94 33l26 88zM266 1196l92 -33l-22 -86l94 -33l-27 -83l95 -35l-25 -86l94 -33l-24 -84l94 -35l-25 -84l95 -33l-25 -86l94 -32l-26 -84l88 -31l67 227l189 -65l-25 -86l180 -64 l-24 -86l180 -63l-25 -84l172 -62l56 187l-181 63l25 86l-180 64l24 86l-182 63l27 84l-94 35l28 94l94 -35l25 86l94 -34l23 75l-1022 367z" />
<glyph unicode="&#xe38e;" horiz-adv-x="1576" d="M47 -12v141q28 0 50 5.5t30 11.5l8 6q41 24 84 24q26 0 89 -24.5t102 -24.5q40 0 101.5 22.5t84.5 22.5q21 0 86 -22.5t102 -22.5t102.5 22.5t88.5 22.5t85 -22.5t99 -22.5q42 0 105 24.5t88 24.5q44 0 84 -24q27 -23 88 -23v-141q-42 0 -90.5 22.5t-85.5 22.5 q-28 0 -96 -22.5t-95 -22.5q-35 0 -95.5 24.5t-84.5 24.5q-17 0 -88 -23q-49 -22 -96 -22q-33 0 -103.5 22.5t-93.5 22.5q-24 0 -84 -24.5t-92 -24.5q-30 0 -99.5 22.5t-97.5 22.5q-40 0 -88.5 -22.5t-87.5 -22.5zM47 197v137q24 0 46 4t32 8l10 4q53 27 96 27 q32 0 90 -17.5t80 -17.5v326l-92 229q-8 24 -8 35q0 32 31 43l71 29v198h97v107h184v139h203v-139h186v-107h96v-198l70 -29q33 -13 33 -43q0 -11 -8 -35l-93 -229v-326q21 0 79 19.5t91 19.5q42 0 95 -27q33 -16 88 -20v-137q-35 2 -83.5 23.5t-90.5 21.5 q-28 0 -95.5 -22.5t-97.5 -22.5q-34 0 -95.5 23.5t-88.5 23.5q-39 0 -84 -23q-49 -24 -101 -24q-27 0 -85 23.5t-105 23.5q-27 0 -88.5 -23.5t-95.5 -23.5q-28 0 -96.5 22.5t-96.5 22.5q-42 0 -90.5 -21.5t-83.5 -23.5zM492 1042l294 121l295 -121v82h-96v101h-397v-101h-96 v-82z" />
<glyph unicode="&#xe38f;" horiz-adv-x="1286" d="M203 0l219 319q-61 11 -105.5 61t-44.5 118v659q0 75 53.5 129.5t131.5 54.5h461q78 0 132 -54.5t54 -129.5v-659q0 -68 -43 -118t-100 -61l213 -319h-119l-158 219h-420l-147 -219h-127zM373 938q0 -43 26.5 -67.5t65.5 -24.5h446q43 0 66.5 24t23.5 68v121 q0 40 -22.5 66t-67.5 26h-446q-43 0 -67.5 -26.5t-24.5 -65.5v-121zM379 498q0 -32 23.5 -55t54.5 -23q33 0 59.5 23t26.5 55t-27 59t-59 27q-30 0 -54 -26.5t-24 -59.5zM569 1221q0 -11 10 -23t19 -12h184q11 0 20 12t9 23v51q0 9 -8.5 17.5t-20.5 8.5h-184q-9 0 -19 -8.5 t-10 -17.5v-51zM569 1413q0 21 14 35t35 14q22 0 37 -14t15 -35t-15 -35t-37 -14q-21 0 -35 14t-14 35zM705 1413q0 22 15.5 35.5t41.5 13.5q21 0 35 -14t14 -35t-14 -35t-35 -14q-26 0 -41.5 13.5t-15.5 35.5zM842 498q0 -32 22 -55t54 -23q37 0 60 22.5t23 55.5 q0 34 -23 60t-60 26q-31 0 -53.5 -26.5t-22.5 -59.5z" />
<glyph unicode="&#xe390;" horiz-adv-x="1380" d="M141 174v567l58 414q13 93 153 145t350 52q205 0 341.5 -52.5t148.5 -144.5l57 -414v-567h-92v-84q0 -40 -24 -63t-56 -23q-35 0 -59.5 22.5t-24.5 63.5v84h-596v-84q0 -40 -24.5 -63t-57.5 -23t-57.5 23t-24.5 63v84h-92zM242 430q0 -32 22.5 -55t54.5 -23 q27 0 49.5 23.5t22.5 54.5q0 32 -22.5 56t-49.5 24q-32 0 -54.5 -23.5t-22.5 -56.5zM242 758q0 -58 43 -58h823q43 0 43 58l-43 299q-7 61 -66 61h-694q-56 0 -63 -61zM438 1219q0 -35 31 -35h453q16 0 24 10.5t8 24.5q0 34 -32 34h-453q-31 0 -31 -34zM999 430 q0 -31 22.5 -54.5t49.5 -23.5q32 0 56 23t24 55t-24 56t-56 24q-27 0 -49.5 -24t-22.5 -56z" />
<glyph unicode="&#xe391;" horiz-adv-x="1435" d="M88 188v322q0 60 35.5 96.5t71.5 44.5l98 248q16 40 51 66t84 26h141v66q0 41 43 41h164q35 0 35 -41v-66h141q51 0 84.5 -26t44.5 -66l99 -248q41 -8 77.5 -44t36.5 -97v-322h-98v-98q0 -44 -26.5 -69t-61.5 -25q-37 0 -63.5 24.5t-26.5 69.5v98h-656v-98 q0 -45 -25.5 -69.5t-60.5 -24.5q-37 0 -63.5 24.5t-26.5 69.5v98h-98zM195 473q0 -37 24 -61.5t62 -24.5q32 0 53.5 24.5t21.5 61.5t-21.5 61.5t-53.5 24.5q-38 0 -62 -24.5t-24 -61.5zM301 657h780l-63 193q-18 49 -66 49h-524q-24 0 -35 -12t-20 -37zM1018 473 q0 -36 26.5 -61t59.5 -25q37 0 60.5 24.5t23.5 61.5t-23.5 61.5t-60.5 24.5q-33 0 -59.5 -25t-26.5 -61z" />
<glyph unicode="&#xe392;" horiz-adv-x="1617" d="M190 135v619q0 52 40.5 88.5t95.5 36.5h90v-879h-90q-57 0 -96.5 36.5t-39.5 98.5zM485 0v879h172v129q0 37 26.5 57t68.5 20h190q33 0 58.5 -20.5t25.5 -56.5v-129h178v-879h-719zM721 879h244v137h-244v-137zM1268 0v879h100q54 0 90.5 -36t36.5 -89v-619 q0 -61 -39 -98t-88 -37h-100z" />
<glyph unicode="&#xe393;" horiz-adv-x="1212" d="M258 993v449q0 11 8.5 17.5t18.5 6.5q28 0 28 -32v-326h43v334q0 24 29 24q31 0 31 -24v-334h49v334q0 24 22 24q27 0 27 -32v-326h49v334q0 24 25 24q24 0 24 -32v-447q0 -34 -29.5 -66t-68.5 -32v-803q0 -41 -23.5 -63.5t-56.5 -22.5q-30 0 -54 23t-24 63v803 q-39 0 -68.5 29.5t-29.5 74.5zM788 584v749q0 63 37 98t86 35q50 0 85.5 -34.5t35.5 -98.5v-1247q0 -39 -23.5 -61.5t-54.5 -22.5q-32 0 -56 22.5t-24 61.5v498h-86z" />
<glyph unicode="&#xe395;" horiz-adv-x="1474" d="M80 1296h1290l-563 -694v-440h309q38 0 59 -23t21 -57q0 -32 -21.5 -57t-58.5 -25h-772q-37 0 -58.5 25t-21.5 57q0 34 21 57t59 23h307v440zM711 870q0 -36 32.5 -67t75.5 -31q35 0 65.5 31.5t30.5 66.5q0 42 -30 73.5t-66 31.5q-44 0 -76 -31t-32 -74z" />
<glyph unicode="&#xe396;" horiz-adv-x="1802" d="M152 705q0 3 1 8t1 8l108 336q4 15 8 24.5t15.5 27t26.5 28.5t41.5 19.5t60.5 8.5h135q42 0 73.5 -11.5t47 -30.5t22.5 -34.5t10 -31.5l107 -336q2 -6 2 -16q0 -25 -13.5 -39.5t-35.5 -14.5q-36 0 -49 39l-90 309h-23l152 -540h-146v-410q0 -25 -15.5 -39t-35.5 -14 q-23 0 -39 14t-16 39v410h-33v-410q0 -25 -15.5 -39t-37.5 -14t-38 14t-16 39v410h-151l158 540h-25l-90 -309q-8 -39 -49 -39q-20 0 -35.5 15t-15.5 39zM367 1311q0 49 33 81.5t81 32.5q51 0 85 -32.5t34 -81.5t-34 -82t-85 -33q-48 0 -81 33t-33 82zM901 0v1411h131v-1411 h-131zM1163 649v359q0 68 41.5 112.5t126.5 44.5h205q92 0 130 -45t38 -112v-359q0 -49 -51 -49q-21 0 -35 12t-14 37v328h-23v-914q0 -31 -19 -48t-46 -17t-46.5 17t-19.5 48v551h-25v-551q0 -31 -20.5 -48t-48.5 -17q-27 0 -48.5 17.5t-21.5 47.5v914h-16v-328 q0 -24 -15.5 -36.5t-35.5 -12.5q-24 0 -40 12t-16 37zM1321 1311q0 49 32.5 81.5t80.5 32.5q51 0 82.5 -32t31.5 -82t-31.5 -82.5t-82.5 -32.5q-48 0 -80.5 33t-32.5 82z" />
<glyph unicode="&#xe478;" d="M100 748q0 184 87 355t247 309t374 241t481.5 159t555.5 56q234 0 459.5 -40t418.5 -111.5t356.5 -175t278.5 -226t179.5 -268.5t64.5 -299q0 -154 -64.5 -300t-179.5 -268.5t-278.5 -225.5t-356.5 -174t-418.5 -111t-459.5 -40q-241 0 -468.5 39.5t-418.5 111.5 t-351.5 174.5t-271.5 225.5t-173 268.5t-62 299.5zM233 748q0 -164 80.5 -317t228.5 -275t345.5 -213.5t444.5 -141t513 -49.5q259 0 504.5 49.5t446.5 141t353 213.5t236 275t84 317q0 136 -59.5 266t-166 239t-258 200.5t-329.5 155t-386.5 99t-424.5 35.5 q-266 0 -513 -49.5t-444.5 -141t-345.5 -214t-228.5 -274.5t-80.5 -316zM874 76l371 1343h346l381 -1343h-307l-74 305h-340l-69 -305h-308zM1305 610h235l-115 523h-14zM2091 76v1345h297v-1106h496v-239h-793z" />
<glyph unicode="&#xe479;" d="M100 748q0 184 87 355t247 309t374 241t481.5 159t555.5 56q234 0 459.5 -40t418.5 -111.5t356.5 -175t278.5 -226t179.5 -268.5t64.5 -299q0 -154 -64.5 -300t-179.5 -268.5t-278.5 -225.5t-356.5 -174t-418.5 -111t-459.5 -40q-241 0 -468.5 39.5t-418.5 111.5 t-351.5 174.5t-271.5 225.5t-173 268.5t-62 299.5zM233 748q0 -164 80.5 -317t228.5 -275t345.5 -213.5t444.5 -141t513 -49.5q259 0 504.5 49.5t446.5 141t353 213.5t236 275t84 317q0 136 -59.5 266t-166 239t-258 200.5t-329.5 155t-386.5 99t-424.5 35.5 q-266 0 -513 -49.5t-444.5 -141t-345.5 -214t-228.5 -274.5t-80.5 -316zM825 76l373 1343h346l381 -1343h-307l-74 305h-340l-69 -305h-310zM1257 610h236l-115 523h-14zM2001 76v1345h792v-241h-493v-285h434v-238h-434v-342h493v-239h-792z" />
<glyph unicode="&#xe47a;" d="M100 748q0 184 87 355t247 309t374 241t481.5 159t555.5 56q234 0 459.5 -40t418.5 -111.5t356.5 -175t278.5 -226t179.5 -268.5t64.5 -299q0 -154 -64.5 -300t-179.5 -268.5t-278.5 -225.5t-356.5 -174t-418.5 -111t-459.5 -40q-241 0 -468.5 39.5t-418.5 111.5 t-351.5 174.5t-271.5 225.5t-173 268.5t-62 299.5zM233 748q0 -164 80.5 -317t228.5 -275t345.5 -213.5t444.5 -141t513 -49.5q259 0 504.5 49.5t446.5 141t353 213.5t236 275t84 317q0 136 -59.5 266t-166 239t-258 200.5t-329.5 155t-386.5 99t-424.5 35.5 q-266 0 -513 -49.5t-444.5 -141t-345.5 -214t-228.5 -274.5t-80.5 -316zM813 76l371 1343h348l381 -1343h-309l-72 305h-340l-70 -305h-309zM1243 610h236l-115 523h-12zM1978 76v1343h404q452 0 452 -387q0 -305 -264 -387l129 -100l193 -469h-299q-17 45 -89.5 240 t-113.5 300h-115v-540h-297zM2275 846h99q82 6 121.5 47t39.5 131q0 164 -176 164h-84v-342z" />
<glyph unicode="&#xe47b;" d="M100 748q0 184 87 355t247 309t374 241t481.5 159t555.5 56q234 0 459.5 -40t418.5 -111.5t356.5 -175t278.5 -226t179.5 -268.5t64.5 -299q0 -154 -64.5 -300t-179.5 -268.5t-278.5 -225.5t-356.5 -174t-418.5 -111t-459.5 -40q-241 0 -468.5 39.5t-418.5 111.5 t-351.5 174.5t-271.5 225.5t-173 268.5t-62 299.5zM233 748q0 -164 80.5 -317t228.5 -275t345.5 -213.5t444.5 -141t513 -49.5q259 0 504.5 49.5t446.5 141t353 213.5t236 275t84 317q0 136 -59.5 266t-166 239t-258 200.5t-329.5 155t-386.5 99t-424.5 35.5 q-266 0 -513 -49.5t-444.5 -141t-345.5 -214t-228.5 -274.5t-80.5 -316zM817 76v1345h473q112 0 201 -37t145 -117.5t56 -195.5q0 -91 -46.5 -165.5t-136.5 -108.5v-6q115 -35 169.5 -120t54.5 -202q0 -171 -111 -282t-279 -111h-526zM1114 303h117q98 0 152.5 40.5 t54.5 141.5q0 92 -58 137.5t-149 45.5h-117v-365zM1114 891h113q78 0 124 41t46 125q0 48 -26 79.5t-59.5 42.5t-72.5 11h-125v-299zM1882 762q0 137 34.5 258.5t101 218t175.5 153t246 56.5q198 0 363 -90l-76 -205q-50 22 -120 36.5t-128 14.5q-133 0 -203.5 -114 t-70.5 -314q0 -229 66 -354t186 -125q53 0 108 22v312l-106 18v170h391v-659q-187 -111 -432 -111q-535 0 -535 713z" />
<glyph unicode="&#xe47c;" d="M100 748q0 184 87 355t247 309t374 241t481.5 159t555.5 56q234 0 459.5 -40t418.5 -111.5t356.5 -175t278.5 -226t179.5 -268.5t64.5 -299q0 -154 -64.5 -300t-179.5 -268.5t-278.5 -225.5t-356.5 -174t-418.5 -111t-459.5 -40q-241 0 -468.5 39.5t-418.5 111.5 t-351.5 174.5t-271.5 225.5t-173 268.5t-62 299.5zM233 748q0 -164 80.5 -317t228.5 -275t345.5 -213.5t444.5 -141t513 -49.5q259 0 504.5 49.5t446.5 141t353 213.5t236 275t84 317q0 136 -59.5 266t-166 239t-258 200.5t-329.5 155t-386.5 99t-424.5 35.5 q-266 0 -513 -49.5t-444.5 -141t-345.5 -214t-228.5 -274.5t-80.5 -316zM907 76v1345h473q112 0 201 -37t145 -117.5t56 -195.5q0 -91 -46.5 -165.5t-136.5 -108.5v-6q115 -35 169.5 -120t54.5 -202q0 -171 -110.5 -282t-278.5 -111h-527zM1204 303h117q98 0 152.5 40.5 t54.5 141.5q0 92 -58 137.5t-149 45.5h-117v-365zM1204 891h113q78 0 124 41t46 125q0 48 -26 79.5t-59.5 42.5t-72.5 11h-125v-299zM1860 1419h311l153 -352l74 -195h12l76 195l150 352h311l-399 -823v-520h-297v516z" />
<glyph unicode="&#xe47d;" d="M100 748q0 184 87 355t247 309t374 241t481.5 159t555.5 56q234 0 459.5 -40t418.5 -111.5t356.5 -175t278.5 -226t179.5 -268.5t64.5 -299q0 -154 -64.5 -300t-179.5 -268.5t-278.5 -225.5t-356.5 -174t-418.5 -111t-459.5 -40q-241 0 -468.5 39.5t-418.5 111.5 t-351.5 174.5t-271.5 225.5t-173 268.5t-62 299.5zM233 748q0 -164 80.5 -317t228.5 -275t345.5 -213.5t444.5 -141t513 -49.5q259 0 504.5 49.5t446.5 141t353 213.5t236 275t84 317q0 136 -59.5 266t-166 239t-258 200.5t-329.5 155t-386.5 99t-424.5 35.5 q-266 0 -513 -49.5t-444.5 -141t-345.5 -214t-228.5 -274.5t-80.5 -316zM858 76v1345h473q82 0 153.5 -21.5t127.5 -63.5t88.5 -110t32.5 -155q0 -91 -46.5 -165.5t-136.5 -108.5v-6q114 -35 168 -120t54 -202q0 -171 -110 -282t-278 -111h-526zM1155 303h117q97 0 151 41 t54 141q0 92 -57 137.5t-148 45.5h-117v-365zM1155 891h113q77 0 123.5 41t46.5 125q0 48 -26 79.5t-59.5 42.5t-72.5 11h-125v-299zM1978 76v1343h404q452 0 452 -387q0 -305 -264 -387l129 -100l193 -469h-299q-17 45 -89.5 240t-113.5 300h-115v-540h-297zM2275 846h99 q82 6 121.5 47t39.5 131q0 164 -176 164h-84v-342z" />
<glyph unicode="&#xe47e;" d="M100 748q0 184 87 355t247 309t374 241t481.5 159t555.5 56q234 0 459.5 -40t418.5 -111.5t356.5 -175t278.5 -226t179.5 -268.5t64.5 -299q0 -154 -64.5 -300t-179.5 -268.5t-278.5 -225.5t-356.5 -174t-418.5 -111t-459.5 -40q-241 0 -468.5 39.5t-418.5 111.5 t-351.5 174.5t-271.5 225.5t-173 268.5t-62 299.5zM233 748q0 -164 80.5 -317t228.5 -275t345.5 -213.5t444.5 -141t513 -49.5q259 0 504.5 49.5t446.5 141t353 213.5t236 275t84 317q0 136 -59.5 266t-166 239t-258 200.5t-329.5 155t-386.5 99t-424.5 35.5 q-266 0 -513 -49.5t-444.5 -141t-345.5 -214t-228.5 -274.5t-80.5 -316zM838 760q0 111 18.5 210t59.5 187t101.5 151.5t150 100.5t198.5 37q197 0 356 -92l-75 -201q-117 49 -242 49q-127 0 -187.5 -111t-60.5 -315q0 -231 58.5 -355t168.5 -124q61 0 122 15.5t153 52.5 l80 -205q-161 -111 -414 -111q-109 1 -193.5 36.5t-139.5 98t-90 153.5t-49.5 194t-14.5 229zM1915 1063q0 83 26 149t70.5 109t106.5 72t129.5 41t144.5 12q85 0 184.5 -22t167.5 -62q-11 -31 -63 -205q-125 49 -297 49q-69 0 -114.5 -31.5t-45.5 -103.5q0 -66 39 -98.5 t141 -65.5q119 -38 192 -73.5t126 -87t74.5 -119.5t21.5 -166q0 -108 -37.5 -188t-107 -128t-160 -71t-203.5 -23q-97 0 -205 21t-180 61l76 215q142 -55 299 -55q106 0 156.5 38t50.5 126q0 82 -41 116.5t-158 71.5q-61 21 -99.5 35.5t-85 36.5t-74 43t-56.5 51.5t-44 65.5 t-24.5 82t-9.5 104z" />
<glyph unicode="&#xe47f;" d="M100 748q0 184 87 355t247 309t374 241t481.5 159t555.5 56q234 0 459.5 -40t418.5 -111.5t356.5 -175t278.5 -226t179.5 -268.5t64.5 -299q0 -154 -64.5 -300t-179.5 -268.5t-278.5 -225.5t-356.5 -174t-418.5 -111t-459.5 -40q-241 0 -468.5 39.5t-418.5 111.5 t-351.5 174.5t-271.5 225.5t-173 268.5t-62 299.5zM233 748q0 -164 80.5 -317t228.5 -275t345.5 -213.5t444.5 -141t513 -49.5q259 0 504.5 49.5t446.5 141t353 213.5t236 275t84 317q0 136 -59.5 266t-166 239t-258 200.5t-329.5 155t-386.5 99t-424.5 35.5 q-266 0 -513 -49.5t-444.5 -141t-345.5 -214t-228.5 -274.5t-80.5 -316zM838 760q0 111 18.5 210t59.5 187t101.5 151.5t150 100.5t198.5 37q197 0 356 -92l-75 -201q-117 49 -242 49q-127 0 -187.5 -111t-60.5 -315q0 -231 58.5 -355t168.5 -124q61 0 122 15.5t153 52.5 l80 -205q-161 -111 -414 -111q-109 1 -193.5 36.5t-139.5 98t-90 153.5t-49.5 194t-14.5 229zM1868 76v221l518 883h-473v241h809v-211l-524 -895h548v-239h-878z" />
<glyph unicode="&#xe480;" d="M100 748q0 184 87 355t247 309t374 241t481.5 159t555.5 56q234 0 459.5 -40t418.5 -111.5t356.5 -175t278.5 -226t179.5 -268.5t64.5 -299q0 -154 -64.5 -300t-179.5 -268.5t-278.5 -225.5t-356.5 -174t-418.5 -111t-459.5 -40q-241 0 -468.5 39.5t-418.5 111.5 t-351.5 174.5t-271.5 225.5t-173 268.5t-62 299.5zM233 748q0 -164 80.5 -317t228.5 -275t345.5 -213.5t444.5 -141t513 -49.5q259 0 504.5 49.5t446.5 141t353 213.5t236 275t84 317q0 136 -59.5 266t-166 239t-258 200.5t-329.5 155t-386.5 99t-424.5 35.5 q-266 0 -513 -49.5t-444.5 -141t-345.5 -214t-228.5 -274.5t-80.5 -316zM897 760q0 111 18.5 210t59.5 187t101 151.5t149.5 100.5t199.5 37q198 0 357 -92l-78 -201q-117 49 -240 49q-247 0 -247 -426q0 -232 57.5 -355.5t169.5 -123.5q106 0 274 68l80 -205 q-161 -111 -416 -111q-109 1 -193 36.5t-138.5 98t-89.5 153.5t-49.5 194t-14.5 229zM1890 1419h312l151 -352l76 -195h10l78 195l147 352h312l-400 -823v-520h-297v516z" />
<glyph unicode="&#xe481;" d="M100 748q0 184 87 355t247 309t374 241t481.5 159t555.5 56q234 0 459.5 -40t418.5 -111.5t356.5 -175t278.5 -226t179.5 -268.5t64.5 -299q0 -154 -64.5 -300t-179.5 -268.5t-278.5 -225.5t-356.5 -174t-418.5 -111t-459.5 -40q-241 0 -468.5 39.5t-418.5 111.5 t-351.5 174.5t-271.5 225.5t-173 268.5t-62 299.5zM233 748q0 -164 80.5 -317t228.5 -275t345.5 -213.5t444.5 -141t513 -49.5q259 0 504.5 49.5t446.5 141t353 213.5t236 275t84 317q0 136 -59.5 266t-166 239t-258 200.5t-329.5 155t-386.5 99t-424.5 35.5 q-266 0 -513 -49.5t-444.5 -141t-345.5 -214t-228.5 -274.5t-80.5 -316zM864 760q0 111 18.5 210t60 187t102.5 151.5t150.5 100.5t199.5 37q199 0 354 -92l-76 -201q-117 49 -241 49q-125 0 -186.5 -111.5t-61.5 -314.5q0 -231 58.5 -355t168.5 -124q60 0 121.5 15.5 t155.5 52.5l77 -205q-161 -111 -413 -111q-109 1 -193.5 36.5t-139.5 98t-90.5 153.5t-50 194t-14.5 229zM1827 76l371 1343h348l381 -1343h-310l-71 305h-340l-70 -305h-309zM2257 610h237l-116 523h-13z" />
<glyph unicode="&#xe482;" d="M100 748q0 184 87 355t247 309t374 241t481.5 159t555.5 56q234 0 459.5 -40t418.5 -111.5t356.5 -175t278.5 -226t179.5 -268.5t64.5 -299q0 -154 -64.5 -300t-179.5 -268.5t-278.5 -225.5t-356.5 -174t-418.5 -111t-459.5 -40q-241 0 -468.5 39.5t-418.5 111.5 t-351.5 174.5t-271.5 225.5t-173 268.5t-62 299.5zM233 748q0 -164 80.5 -317t228.5 -275t345.5 -213.5t444.5 -141t513 -49.5q259 0 504.5 49.5t446.5 141t353 213.5t236 275t84 317q0 136 -59.5 266t-166 239t-258 200.5t-329.5 155t-386.5 99t-424.5 35.5 q-266 0 -513 -49.5t-444.5 -141t-345.5 -214t-228.5 -274.5t-80.5 -316zM836 760q0 111 18.5 210t59.5 187t101.5 151.5t150 100.5t198.5 37q197 0 356 -92l-75 -201q-120 49 -242 49q-127 0 -187.5 -111t-60.5 -315q0 -231 58.5 -355t168.5 -124q61 0 122 15.5t153 52.5 l80 -205q-161 -111 -416 -111q-109 1 -193 36.5t-138.5 98t-89.5 153.5t-49.5 194t-14.5 229zM1847 76v1341h338l381 -778h10v778h287v-1341h-311l-410 833h-14v-833h-281z" />
<glyph unicode="&#xe483;" d="M100 748q0 184 87 355t247 309t374 241t481.5 159t555.5 56q234 0 459.5 -40t418.5 -111.5t356.5 -175t278.5 -226t179.5 -268.5t64.5 -299q0 -154 -64.5 -300t-179.5 -268.5t-278.5 -225.5t-356.5 -174t-418.5 -111t-459.5 -40q-241 0 -468.5 39.5t-418.5 111.5 t-351.5 174.5t-271.5 225.5t-173 268.5t-62 299.5zM233 748q0 -164 80.5 -317t228.5 -275t345.5 -213.5t444.5 -141t513 -49.5q259 0 504.5 49.5t446.5 141t353 213.5t236 275t84 317q0 136 -59.5 266t-166 239t-258 200.5t-329.5 155t-386.5 99t-424.5 35.5 q-266 0 -513 -49.5t-444.5 -141t-345.5 -214t-228.5 -274.5t-80.5 -316zM809 760q0 111 18.5 210t59.5 187t101 151.5t149.5 100.5t199.5 37q198 0 357 -92l-76 -201q-120 49 -242 49q-127 0 -187.5 -111t-60.5 -315q0 -232 58 -355.5t170 -123.5q60 0 120.5 15.5 t153.5 52.5l80 -205q-161 -111 -416 -111q-109 1 -193 36.5t-138.5 98t-89.5 153.5t-49.5 194t-14.5 229zM1876 76v1345h297v-532h377v532h295v-1345h-295v581h-377v-581h-297z" />
<glyph unicode="&#xe484;" d="M100 748q0 184 87 355t247 309t374 241t481.5 159t555.5 56q234 0 459.5 -40t418.5 -111.5t356.5 -175t278.5 -226t179.5 -268.5t64.5 -299q0 -154 -64.5 -300t-179.5 -268.5t-278.5 -225.5t-356.5 -174t-418.5 -111t-459.5 -40q-241 0 -468.5 39.5t-418.5 111.5 t-351.5 174.5t-271.5 225.5t-173 268.5t-62 299.5zM233 748q0 -164 80.5 -317t228.5 -275t345.5 -213.5t444.5 -141t513 -49.5q259 0 504.5 49.5t446.5 141t353 213.5t236 275t84 317q0 136 -59.5 266t-166 239t-258 200.5t-329.5 155t-386.5 99t-424.5 35.5 q-266 0 -513 -49.5t-444.5 -141t-345.5 -214t-228.5 -274.5t-80.5 -316zM834 760q0 111 18.5 210t59.5 187t101.5 151.5t150 100.5t198.5 37q197 0 356 -92l-76 -201q-120 49 -241 49q-127 0 -187.5 -111t-60.5 -315q0 -232 57.5 -355.5t169.5 -123.5q61 0 122 15.5 t153 52.5l80 -205q-161 -111 -416 -111q-109 1 -193 36.5t-138.5 98t-89.5 153.5t-49.5 194t-14.5 229zM1880 465v954h299v-923q0 -98 38.5 -150.5t127.5 -52.5q95 0 141.5 54t46.5 149v923h301v-954q0 -190 -127.5 -303t-361.5 -113q-231 0 -348 111t-117 305z" />
<glyph unicode="&#xe485;" d="M100 748q0 184 87 355t247 309t374 241t481.5 159t555.5 56q234 0 459.5 -40t418.5 -111.5t356.5 -175t278.5 -226t179.5 -268.5t64.5 -299q0 -154 -64.5 -300t-179.5 -268.5t-278.5 -225.5t-356.5 -174t-418.5 -111t-459.5 -40q-241 0 -468.5 39.5t-418.5 111.5 t-351.5 174.5t-271.5 225.5t-173 268.5t-62 299.5zM233 748q0 -164 80.5 -317t228.5 -275t345.5 -213.5t444.5 -141t513 -49.5q259 0 504.5 49.5t446.5 141t353 213.5t236 275t84 317q0 136 -59.5 266t-166 239t-258 200.5t-329.5 155t-386.5 99t-424.5 35.5 q-266 0 -513 -49.5t-444.5 -141t-345.5 -214t-228.5 -274.5t-80.5 -316zM858 76v1345h367q68 0 122 -5t116.5 -22t109.5 -45.5t93 -78.5t75 -118t47 -168t18 -224q0 -179 -28.5 -303t-95.5 -211.5t-179 -128.5t-276 -41h-369zM1153 307h107q51 0 89.5 14t64.5 43.5t43 66.5 t26 92.5t12.5 112t3.5 132.5q0 131 -17 216.5t-53.5 129.5t-81 60t-112.5 16h-82v-883zM2009 78v1345h793v-241h-494v-285h436v-238h-436v-342h494v-239h-793z" />
<glyph unicode="&#xe486;" d="M100 748q0 184 87 355t247 309t374 241t481.5 159t555.5 56q234 0 459.5 -40t418.5 -111.5t356.5 -175t278.5 -226t179.5 -268.5t64.5 -299q0 -154 -64.5 -300t-179.5 -268.5t-278.5 -225.5t-356.5 -174t-418.5 -111t-459.5 -40q-241 0 -468.5 39.5t-418.5 111.5 t-351.5 174.5t-271.5 225.5t-173 268.5t-62 299.5zM233 748q0 -164 80.5 -317t228.5 -275t345.5 -213.5t444.5 -141t513 -49.5q259 0 504.5 49.5t446.5 141t353 213.5t236 275t84 317q0 136 -59.5 266t-166 239t-258 200.5t-329.5 155t-386.5 99t-424.5 35.5 q-266 0 -513 -49.5t-444.5 -141t-345.5 -214t-228.5 -274.5t-80.5 -316zM858 76v1345h367q68 0 122 -5t116.5 -22t109.5 -45.5t93 -78.5t75 -118t47 -168t18 -224q0 -179 -28.5 -303t-95.5 -211.5t-179 -128.5t-276 -41h-369zM1153 307h107q51 0 89.5 14t64.5 43.5t43 66.5 t26 92.5t12.5 112t3.5 132.5q0 131 -17 216.5t-53.5 129.5t-81 60t-112.5 16h-82v-883zM1962 76v1343h299v-573h10l389 573h340l-465 -641l469 -702h-362l-371 608l-10 -2v-606h-299z" />
<glyph unicode="&#xe487;" d="M100 748q0 184 87 355t247 309t374 241t481.5 159t555.5 56q234 0 459.5 -40t418.5 -111.5t356.5 -175t278.5 -226t179.5 -268.5t64.5 -299q0 -154 -64.5 -300t-179.5 -268.5t-278.5 -225.5t-356.5 -174t-418.5 -111t-459.5 -40q-241 0 -468.5 39.5t-418.5 111.5 t-351.5 174.5t-271.5 225.5t-173 268.5t-62 299.5zM233 748q0 -164 80.5 -317t228.5 -275t345.5 -213.5t444.5 -141t513 -49.5q259 0 504.5 49.5t446.5 141t353 213.5t236 275t84 317q0 136 -59.5 266t-166 239t-258 200.5t-329.5 155t-386.5 99t-424.5 35.5 q-266 0 -513 -49.5t-444.5 -141t-345.5 -214t-228.5 -274.5t-80.5 -316zM903 76v1345h793v-241h-494v-285h434v-238h-434v-342h494v-239h-793zM1927 1063q0 83 26.5 149t71 109t107 72t130 41t144.5 12q84 0 184.5 -22t166.5 -62q-48 -161 -64 -205q-123 49 -297 49 q-68 0 -114 -31.5t-46 -103.5q0 -65 40 -98t141 -66q119 -38 192 -73.5t126.5 -87t75 -119.5t21.5 -166q0 -108 -37.5 -188t-107 -128t-160 -71t-203.5 -23q-97 0 -206 21t-179 61q4 15 37 107.5t37 107.5q144 -55 301 -55q106 0 156.5 38t50.5 126q0 43 -10 71.5t-38.5 50 t-59.5 34t-91 32.5q-54 18 -88.5 31t-76.5 31.5t-68.5 35.5t-55.5 41t-46 50.5t-32 60.5t-21.5 76t-6.5 92z" />
<glyph unicode="&#xe488;" d="M100 748q0 184 87 355t247 309t374 241t481.5 159t555.5 56q234 0 459.5 -40t418.5 -111.5t356.5 -175t278.5 -226t179.5 -268.5t64.5 -299q0 -154 -64.5 -300t-179.5 -268.5t-278.5 -225.5t-356.5 -174t-418.5 -111t-459.5 -40q-241 0 -468.5 39.5t-418.5 111.5 t-351.5 174.5t-271.5 225.5t-173 268.5t-62 299.5zM233 748q0 -164 80.5 -317t228.5 -275t345.5 -213.5t444.5 -141t513 -49.5q259 0 504.5 49.5t446.5 141t353 213.5t236 275t84 317q0 136 -59.5 266t-166 239t-258 200.5t-329.5 155t-386.5 99t-424.5 35.5 q-266 0 -513 -49.5t-444.5 -141t-345.5 -214t-228.5 -274.5t-80.5 -316zM971 76v1345h792v-241h-493v-285h434v-238h-434v-342h493v-239h-792zM1993 76v1345h794v-241h-493v-285h434v-238h-434v-342h493v-239h-794z" />
<glyph unicode="&#xe489;" d="M100 748q0 184 87 355t247 309t374 241t481.5 159t555.5 56q234 0 459.5 -40t418.5 -111.5t356.5 -175t278.5 -226t179.5 -268.5t64.5 -299q0 -154 -64.5 -300t-179.5 -268.5t-278.5 -225.5t-356.5 -174t-418.5 -111t-459.5 -40q-241 0 -468.5 39.5t-418.5 111.5 t-351.5 174.5t-271.5 225.5t-173 268.5t-62 299.5zM233 748q0 -164 80.5 -317t228.5 -275t345.5 -213.5t444.5 -141t513 -49.5q259 0 504.5 49.5t446.5 141t353 213.5t236 275t84 317q0 136 -59.5 266t-166 239t-258 200.5t-329.5 155t-386.5 99t-424.5 35.5 q-266 0 -513 -49.5t-444.5 -141t-345.5 -214t-228.5 -274.5t-80.5 -316zM922 76v1345h792v-241h-493v-285h434v-238h-434v-342h493v-239h-792zM1876 762q0 137 34.5 258.5t101 218t175.5 153t246 56.5q198 0 363 -90l-76 -205q-50 22 -120 36.5t-128 14.5 q-133 0 -205 -114.5t-72 -313.5q0 -229 66.5 -354t187.5 -125q52 0 107 22v312l-105 18v170h392v-659q-187 -111 -433 -111q-534 0 -534 713z" />
<glyph unicode="&#xe48a;" d="M100 748q0 184 87 355t247 309t374 241t481.5 159t555.5 56q234 0 459.5 -40t418.5 -111.5t356.5 -175t278.5 -226t179.5 -268.5t64.5 -299q0 -154 -64.5 -300t-179.5 -268.5t-278.5 -225.5t-356.5 -174t-418.5 -111t-459.5 -40q-241 0 -468.5 39.5t-418.5 111.5 t-351.5 174.5t-271.5 225.5t-173 268.5t-62 299.5zM233 748q0 -164 80.5 -317t228.5 -275t345.5 -213.5t444.5 -141t513 -49.5q259 0 504.5 49.5t446.5 141t353 213.5t236 275t84 317q0 136 -59.5 266t-166 239t-258 200.5t-329.5 155t-386.5 99t-424.5 35.5 q-266 0 -513 -49.5t-444.5 -141t-345.5 -214t-228.5 -274.5t-80.5 -316zM989 74v1345h791v-241h-492v-287h432v-236h-432v-581h-299zM1964 78v1343h403q453 0 453 -387q0 -304 -264 -385l129 -102l194 -469h-301q-23 60 -92.5 248.5t-109.5 291.5h-115v-540h-297zM2261 850 h100q81 5 121.5 46t40.5 130q0 164 -178 164h-84v-340z" />
<glyph unicode="&#xe48b;" d="M100 748q0 184 87 355t247 309t374 241t481.5 159t555.5 56q234 0 459.5 -40t418.5 -111.5t356.5 -175t278.5 -226t179.5 -268.5t64.5 -299q0 -154 -64.5 -300t-179.5 -268.5t-278.5 -225.5t-356.5 -174t-418.5 -111t-459.5 -40q-241 0 -468.5 39.5t-418.5 111.5 t-351.5 174.5t-271.5 225.5t-173 268.5t-62 299.5zM233 748q0 -164 80.5 -317t228.5 -275t345.5 -213.5t444.5 -141t513 -49.5q259 0 504.5 49.5t446.5 141t353 213.5t236 275t84 317q0 136 -59.5 266t-166 239t-258 200.5t-329.5 155t-386.5 99t-424.5 35.5 q-266 0 -513 -49.5t-444.5 -141t-345.5 -214t-228.5 -274.5t-80.5 -316zM1139 76v1345h792v-241h-491v-285h432v-238h-432v-581h-301zM2191 76v1343h297v-1343h-297z" />
<glyph unicode="&#xe48c;" d="M100 748q0 184 87 355t247 309t374 241t481.5 159t555.5 56q234 0 459.5 -40t418.5 -111.5t356.5 -175t278.5 -226t179.5 -268.5t64.5 -299q0 -154 -64.5 -300t-179.5 -268.5t-278.5 -225.5t-356.5 -174t-418.5 -111t-459.5 -40q-241 0 -468.5 39.5t-418.5 111.5 t-351.5 174.5t-271.5 225.5t-173 268.5t-62 299.5zM233 748q0 -164 80.5 -317t228.5 -275t345.5 -213.5t444.5 -141t513 -49.5q259 0 504.5 49.5t446.5 141t353 213.5t236 275t84 317q0 136 -59.5 266t-166 239t-258 200.5t-329.5 155t-386.5 99t-424.5 35.5 q-266 0 -513 -49.5t-444.5 -141t-345.5 -214t-228.5 -274.5t-80.5 -316zM772 764q0 110 21 211t66 189.5t109.5 153.5t157 102.5t203.5 37.5q204 0 367 -94l-76 -205q-50 23 -120 37t-130 14q-133 0 -204.5 -115t-73.5 -317q0 -226 68.5 -352.5t187.5 -126.5q66 0 106 20 v314l-104 18v172h393v-659q-185 -115 -432 -115q-539 0 -539 715zM1995 78v1345h477q172 0 286.5 -89t114.5 -257q0 -92 -46 -167t-138 -111v-2q116 -37 170.5 -122t54.5 -202q0 -174 -109.5 -284.5t-279.5 -110.5h-530zM2296 303h119q97 0 151.5 41.5t54.5 142.5 q0 92 -57.5 138.5t-148.5 46.5h-119v-369zM2296 897h114q74 0 121 41t47 123q0 49 -26.5 80.5t-60 42t-72.5 10.5h-123v-297z" />
<glyph unicode="&#xe48d;" d="M100 748q0 184 87 355t247 309t374 241t481.5 159t555.5 56q234 0 459.5 -40t418.5 -111.5t356.5 -175t278.5 -226t179.5 -268.5t64.5 -299q0 -154 -64.5 -300t-179.5 -268.5t-278.5 -225.5t-356.5 -174t-418.5 -111t-459.5 -40q-241 0 -468.5 39.5t-418.5 111.5 t-351.5 174.5t-271.5 225.5t-173 268.5t-62 299.5zM233 748q0 -164 80.5 -317t228.5 -275t345.5 -213.5t444.5 -141t513 -49.5q259 0 504.5 49.5t446.5 141t353 213.5t236 275t84 317q0 136 -59.5 266t-166 239t-258 200.5t-329.5 155t-386.5 99t-424.5 35.5 q-266 0 -513 -49.5t-444.5 -141t-345.5 -214t-228.5 -274.5t-80.5 -316zM776 764q0 110 21 211t66 189.5t109.5 153.5t157 102.5t203.5 37.5q204 0 367 -94l-76 -205q-50 23 -120 37t-130 14q-132 0 -203.5 -115t-74.5 -317q0 -226 68.5 -352.5t187.5 -126.5q63 0 108 20 v314l-106 18v172h393v-659q-185 -115 -432 -115q-539 0 -539 715zM2001 74v1343h403q453 0 453 -387q0 -305 -264 -387l129 -100l192 -469h-299q-23 60 -92.5 248.5t-109.5 291.5h-115v-540h-297zM2298 844h98q82 6 122 47t40 131q0 48 -14 81t-40 50t-55 24t-67 7h-84v-340 z" />
<glyph unicode="&#xe48e;" d="M100 748q0 184 87 355t247 309t374 241t481.5 159t555.5 56q234 0 459.5 -40t418.5 -111.5t356.5 -175t278.5 -226t179.5 -268.5t64.5 -299q0 -154 -64.5 -300t-179.5 -268.5t-278.5 -225.5t-356.5 -174t-418.5 -111t-459.5 -40q-241 0 -468.5 39.5t-418.5 111.5 t-351.5 174.5t-271.5 225.5t-173 268.5t-62 299.5zM233 748q0 -164 80.5 -317t228.5 -275t345.5 -213.5t444.5 -141t513 -49.5q259 0 504.5 49.5t446.5 141t353 213.5t236 275t84 317q0 136 -59.5 266t-166 239t-258 200.5t-329.5 155t-386.5 99t-424.5 35.5 q-266 0 -513 -49.5t-444.5 -141t-345.5 -214t-228.5 -274.5t-80.5 -316zM870 764q0 110 21 211t66 189.5t109.5 153.5t157 102.5t203.5 37.5q204 0 367 -94l-76 -205q-50 23 -120 37t-130 14q-133 0 -203.5 -115t-72.5 -317q0 -226 67.5 -352.5t186.5 -126.5q63 0 108 20 v314l-106 18v172h395v-659q-185 -115 -434 -115q-539 0 -539 715zM2052 76v1345h793v-241h-494v-285h436v-238h-436v-342h494v-239h-793z" />
<glyph unicode="&#xe48f;" d="M100 748q0 184 87 355t247 309t374 241t481.5 159t555.5 56q234 0 459.5 -40t418.5 -111.5t356.5 -175t278.5 -226t179.5 -268.5t64.5 -299q0 -154 -64.5 -300t-179.5 -268.5t-278.5 -225.5t-356.5 -174t-418.5 -111t-459.5 -40q-241 0 -468.5 39.5t-418.5 111.5 t-351.5 174.5t-271.5 225.5t-173 268.5t-62 299.5zM233 748q0 -164 80.5 -317t228.5 -275t345.5 -213.5t444.5 -141t513 -49.5q259 0 504.5 49.5t446.5 141t353 213.5t236 275t84 317q0 136 -59.5 266t-166 239t-258 200.5t-329.5 155t-386.5 99t-424.5 35.5 q-266 0 -513 -49.5t-444.5 -141t-345.5 -214t-228.5 -274.5t-80.5 -316zM741 78v1345h297v-532h377v532h295v-1345h-295v581h-377v-581h-297zM1964 469v952h297v-923q0 -203 168 -203q93 0 140.5 55t47.5 148v923h299v-952q0 -191 -126.5 -304.5t-360.5 -113.5 q-231 0 -348 111.5t-117 306.5z" />
<glyph unicode="&#xe490;" d="M100 748q0 184 87 355t247 309t374 241t481.5 159t555.5 56q234 0 459.5 -40t418.5 -111.5t356.5 -175t278.5 -226t179.5 -268.5t64.5 -299q0 -154 -64.5 -300t-179.5 -268.5t-278.5 -225.5t-356.5 -174t-418.5 -111t-459.5 -40q-241 0 -468.5 39.5t-418.5 111.5 t-351.5 174.5t-271.5 225.5t-173 268.5t-62 299.5zM233 748q0 -164 80.5 -317t228.5 -275t345.5 -213.5t444.5 -141t513 -49.5q259 0 504.5 49.5t446.5 141t353 213.5t236 275t84 317q0 136 -59.5 266t-166 239t-258 200.5t-329.5 155t-386.5 99t-424.5 35.5 q-266 0 -513 -49.5t-444.5 -141t-345.5 -214t-228.5 -274.5t-80.5 -316zM741 78v1345h297v-532h377v532h295v-1345h-295v581h-377v-581h-297zM1956 76v1343h403q453 0 453 -387q0 -305 -264 -387l129 -100l192 -469h-299q-17 45 -89.5 240t-113.5 300h-114v-540h-297z M2253 846h98q82 6 122 47t40 131q0 164 -176 164h-84v-342z" />
<glyph unicode="&#xe491;" d="M100 748q0 184 87 355t247 309t374 241t481.5 159t555.5 56q234 0 459.5 -40t418.5 -111.5t356.5 -175t278.5 -226t179.5 -268.5t64.5 -299q0 -154 -64.5 -300t-179.5 -268.5t-278.5 -225.5t-356.5 -174t-418.5 -111t-459.5 -40q-241 0 -468.5 39.5t-418.5 111.5 t-351.5 174.5t-271.5 225.5t-173 268.5t-62 299.5zM233 748q0 -164 80.5 -317t228.5 -275t345.5 -213.5t444.5 -141t513 -49.5q343 0 654.5 86t539.5 238h-336l-372 608l-9 -2v-606h-299v1343h299v-573h9l391 573h317q-230 152 -540.5 238t-653.5 86q-266 0 -513 -49.5 t-444.5 -141t-345.5 -214t-228.5 -274.5t-80.5 -316zM807 78v1345h297v-532h375v532h297v-1345h-297v581h-375v-581h-297zM2597 778l461 -690q195 134 303 303t108 357q0 186 -109 356t-306 305z" />
<glyph unicode="&#xe492;" d="M100 748q0 184 87 355t247 309t374 241t481.5 159t555.5 56q234 0 459.5 -40t418.5 -111.5t356.5 -175t278.5 -226t179.5 -268.5t64.5 -299q0 -154 -64.5 -300t-179.5 -268.5t-278.5 -225.5t-356.5 -174t-418.5 -111t-459.5 -40q-241 0 -468.5 39.5t-418.5 111.5 t-351.5 174.5t-271.5 225.5t-173 268.5t-62 299.5zM233 748q0 -164 80.5 -317t228.5 -275t345.5 -213.5t444.5 -141t513 -49.5q259 0 504.5 49.5t446.5 141t353 213.5t236 275t84 317q0 136 -59.5 266t-166 239t-258 200.5t-329.5 155t-386.5 99t-424.5 35.5 q-266 0 -513 -49.5t-444.5 -141t-345.5 -214t-228.5 -274.5t-80.5 -316zM1176 76v1343h297v-1343h-297zM1792 1180v241h889v-241h-297v-1104h-303v1104h-289z" />
<glyph unicode="&#xe493;" d="M100 748q0 184 87 355t247 309t374 241t481.5 159t555.5 56q234 0 459.5 -40t418.5 -111.5t356.5 -175t278.5 -226t179.5 -268.5t64.5 -299q0 -154 -64.5 -300t-179.5 -268.5t-278.5 -225.5t-356.5 -174t-418.5 -111t-459.5 -40q-241 0 -468.5 39.5t-418.5 111.5 t-351.5 174.5t-271.5 225.5t-173 268.5t-62 299.5zM233 748q0 -164 80.5 -317t228.5 -275t345.5 -213.5t444.5 -141t513 -49.5q259 0 504.5 49.5t446.5 141t353 213.5t236 275t84 317q0 136 -59.5 266t-166 239t-258 200.5t-329.5 155t-386.5 99t-424.5 35.5 q-266 0 -513 -49.5t-444.5 -141t-345.5 -214t-228.5 -274.5t-80.5 -316zM1260 76v1343h296v-1343h-296zM1939 76v1345h297v-1106h496v-239h-793z" />
<glyph unicode="&#xe494;" d="M100 748q0 184 87 355t247 309t374 241t481.5 159t555.5 56q234 0 459.5 -40t418.5 -111.5t356.5 -175t278.5 -226t179.5 -268.5t64.5 -299q0 -154 -64.5 -300t-179.5 -268.5t-278.5 -225.5t-356.5 -174t-418.5 -111t-459.5 -40q-241 0 -468.5 39.5t-418.5 111.5 t-351.5 174.5t-271.5 225.5t-173 268.5t-62 299.5zM233 748q0 -164 80.5 -317t228.5 -275t345.5 -213.5t444.5 -141t513 -49.5q259 0 504.5 49.5t446.5 141t353 213.5t236 275t84 317q0 136 -59.5 266t-166 239t-258 200.5t-329.5 155t-386.5 99t-424.5 35.5 q-266 0 -513 -49.5t-444.5 -141t-345.5 -214t-228.5 -274.5t-80.5 -316zM1196 76v1343h297v-1343h-297zM1778 1063q0 83 26 149t70.5 109t106.5 72t129.5 41t144.5 12q85 0 184.5 -22t167.5 -62q-11 -31 -63 -205q-125 49 -297 49q-69 0 -115.5 -31.5t-46.5 -103.5 q0 -65 39.5 -98t140.5 -66q120 -38 193.5 -73.5t126.5 -87t74.5 -119.5t21.5 -166q0 -108 -37.5 -188t-107 -128t-160 -71t-203.5 -23q-97 0 -205 21t-180 61l76 215q142 -55 299 -55q106 0 156.5 38t50.5 126q0 43 -10 71.5t-38.5 50t-59.5 34t-91 32.5q-61 21 -99.5 35.5 t-85 36.5t-74 43t-56.5 51.5t-44 65.5t-24.5 82t-9.5 104z" />
<glyph unicode="&#xe495;" d="M100 748q0 184 87 355t247 309t374 241t481.5 159t555.5 56q234 0 459.5 -40t418.5 -111.5t356.5 -175t278.5 -226t179.5 -268.5t64.5 -299q0 -154 -64.5 -300t-179.5 -268.5t-278.5 -225.5t-356.5 -174t-418.5 -111t-459.5 -40q-241 0 -468.5 39.5t-418.5 111.5 t-351.5 174.5t-271.5 225.5t-173 268.5t-62 299.5zM233 748q0 -164 80.5 -317t228.5 -275t345.5 -213.5t444.5 -141t513 -49.5q259 0 504.5 49.5t446.5 141t353 213.5t236 275t84 317q0 136 -59.5 266t-166 239t-258 200.5t-329.5 155t-386.5 99t-424.5 35.5 q-266 0 -513 -49.5t-444.5 -141t-345.5 -214t-228.5 -274.5t-80.5 -316zM1196 76v1343h297v-1343h-297zM1872 76v1345h792v-241h-493v-285h436v-238h-436v-342h493v-239h-792z" />
<glyph unicode="&#xe496;" d="M100 748q0 184 87 355t247 309t374 241t481.5 159t555.5 56q234 0 459.5 -40t418.5 -111.5t356.5 -175t278.5 -226t179.5 -268.5t64.5 -299q0 -154 -64.5 -300t-179.5 -268.5t-278.5 -225.5t-356.5 -174t-418.5 -111t-459.5 -40q-241 0 -468.5 39.5t-418.5 111.5 t-351.5 174.5t-271.5 225.5t-173 268.5t-62 299.5zM233 748q0 -164 80.5 -317t228.5 -275t345.5 -213.5t444.5 -141t513 -49.5q259 0 504.5 49.5t446.5 141t353 213.5t236 275t84 317q0 136 -59.5 266t-166 239t-258 200.5t-329.5 155t-386.5 99t-424.5 35.5 q-266 0 -513 -49.5t-444.5 -141t-345.5 -214t-228.5 -274.5t-80.5 -316zM1087 76v1343h297v-1343h-297zM1737 76v1341h338l381 -778h10v778h287v-1341h-312l-409 833h-15v-833h-280z" />
<glyph unicode="&#xe497;" d="M100 748q0 184 87 355t247 309t374 241t481.5 159t555.5 56q234 0 459.5 -40t418.5 -111.5t356.5 -175t278.5 -226t179.5 -268.5t64.5 -299q0 -154 -64.5 -300t-179.5 -268.5t-278.5 -225.5t-356.5 -174t-418.5 -111t-459.5 -40q-241 0 -468.5 39.5t-418.5 111.5 t-351.5 174.5t-271.5 225.5t-173 268.5t-62 299.5zM233 748q0 -164 80.5 -317t228.5 -275t345.5 -213.5t444.5 -141t513 -49.5q259 0 504.5 49.5t446.5 141t353 213.5t236 275t84 317q0 136 -59.5 266t-166 239t-258 200.5t-329.5 155t-386.5 99t-424.5 35.5 q-266 0 -513 -49.5t-444.5 -141t-345.5 -214t-228.5 -274.5t-80.5 -316zM1178 76v1343h297v-1343h-297zM1839 76v1345h369q52 0 94.5 -3t92 -12t89.5 -24t82 -40.5t74 -60.5t61 -85t47.5 -112t29.5 -144.5t11 -179.5q0 -179 -29 -303t-96 -211.5t-179 -128.5t-275 -41h-371z M2136 307h105q62 0 105.5 21.5t69.5 58t41 98t20 126t5 157.5q0 106 -12 181.5t-33 122t-55.5 73t-73 36t-92.5 9.5h-80v-883z" />
</font>
</defs>
</svg>
